<svg xmlns="http://www.w3.org/2000/svg" width="18" height="18" viewBox="0 0 18 18">
    <g transform="translate(-649 -567)">
        <path data-name="사각형 23637" transform="translate(649 567)" style="fill:none" d="M0 0h18v18H0z"/>
        <path data-name="빼기 366" d="M9195 2955h-9a3 3 0 0 1-3-3v-4.132a1 1 0 0 0 .5.133h14a1 1 0 0 0 .5-.133V2952a3 3 0 0 1-3 3zm-12-8.867v-1.132a3 3 0 0 1 3-3h9a3 3 0 0 1 3 3v1.131a1.012 1.012 0 0 0-.5-.132h-14a1 1 0 0 0-.5.133z" transform="translate(-8532.5 -2372.002)" style="fill:#a2a2a2"/>
        <rect data-name="사각형 30239" width="2" height="3" rx="1" transform="translate(653 568)" style="fill:#a2a2a2"/>
        <rect data-name="사각형 32479" width="2" height="3" rx="1" transform="translate(661 568)" style="fill:#a2a2a2"/>
    </g>
</svg>
