<svg xmlns="http://www.w3.org/2000/svg" width="18" height="18" viewBox="0 0 18 18">
    <path data-name="사각형 23637" style="fill:none" d="M0 0h18v18H0z"/>
    <path data-name="빼기 367" d="M8261 21626.6h-9a3.006 3.006 0 0 1-3-3v-9a3 3 0 0 1 3-3h8.716a.776.776 0 0 1 .452.205 2.662 2.662 0 0 0 .2.178l2.2 2.189c.056.066.117.139.189.211a1.079 1.079 0 0 1 .25.725v8.492a3.006 3.006 0 0 1-3.007 3zm-7.5-7.252a1 1 0 0 0 0 2h4a1 1 0 1 0 0-2zm0-3.75a1 1 0 0 0 0 2h6a1 1 0 0 0 0-2z" transform="translate(-8247.5 -21610.1)" style="fill:#a2a2a2"/>
</svg>
