<svg xmlns="http://www.w3.org/2000/svg" width="18" height="18" viewBox="0 0 18 18">
    <path data-name="사각형 23637" style="fill:none" d="M0 0h18v18H0z"/>
    <path data-name="빼기 390" d="M7130-9338.894h-9a3 3 0 0 1-3-3v-9a3 3 0 0 1 3-3h8.723a.777.777 0 0 1 .443.2c.064.06.133.121.2.181l2.189 2.189c.07.079.131.146.19.209a1.1 1.1 0 0 1 .249.738v8.479a3 3 0 0 1-2.994 3.004zm-7.766-8.276a.852.852 0 0 0-.611.254.861.861 0 0 0-.254.612.86.86 0 0 0 .254.611l2.448 2.448a.858.858 0 0 0 .613.254.856.856 0 0 0 .611-.254l4.083-4.083a.86.86 0 0 0 .254-.611.861.861 0 0 0-.254-.612.86.86 0 0 0-.612-.254.86.86 0 0 0-.612.254l-3.47 3.472-1.837-1.837a.858.858 0 0 0-.613-.254z" transform="translate(-7116.5 9355.393)" style="fill:#a2a2a2"/>
</svg>
