<svg xmlns="http://www.w3.org/2000/svg" width="230" height="196" viewBox="0 0 230 196">
    <defs>
        <clipPath id="jfk3v24mna">
            <path data-name="사각형 21630" style="fill:none" d="M0 0h157.136v118.092H0z"/>
        </clipPath>
    </defs>
    <path data-name="사각형 21651" style="fill:transparent" d="M0 0h230v196H0z"/>
    <g data-name="그룹 19283" transform="translate(-97 -437)">
        <ellipse data-name="타원 162" cx="96.5" cy="21" rx="96.5" ry="21" transform="translate(134 591)" style="fill:#e5eaf2"/>
        <g data-name="그룹 19257">
            <g data-name="그룹 19258">
                <g data-name="그룹 19256" style="clip-path:url(#jfk3v24mna)" transform="translate(153.527 502.97)">
                    <path data-name="패스 16437" d="M202.431 147.6c-.881-2.719 1.359 1.559 2.308 2.445s-.8-1.089.892-3.941a15.429 15.429 0 0 0 1.827-6.378 16.46 16.46 0 0 1-5.705-4.756c-2.716-3.463 1.223.835 3.326.963s-.778-2.422-3.121-9.652-5.093-13.853-9.778-18.436-7.333-4.89-7.333-4.89a9.129 9.129 0 0 1 5.9 1.73 24.851 24.851 0 0 0-6.518-7.33 8.714 8.714 0 0 0-8.45-1.228 7.778 7.778 0 0 1 3.485-1.419 20.5 20.5 0 0 0-3-.738c-3.505-.616-9.416-.878-14.041 2.875-4.622-3.753-10.533-3.491-14.038-2.875a20.5 20.5 0 0 0-3 .738 7.778 7.778 0 0 1 3.485 1.419 8.714 8.714 0 0 0-8.45 1.228 24.851 24.851 0 0 0-6.518 7.33 9.129 9.129 0 0 1 5.9-1.73s-2.648.308-7.333 4.89-7.435 11.2-9.778 18.436-5.227 9.778-3.121 9.652 6.042-4.426 3.323-.963a16.439 16.439 0 0 1-5.7 4.756 15.452 15.452 0 0 0 1.824 6.378c1.693 2.853-.057 4.825.895 3.941s3.189-5.164 2.308-2.445a39.722 39.722 0 0 1-3.195 6.723c-.268.408 5.976-2.784 11.476-12.428S141.8 130.355 145 130.56s1.414-.14 3.383-2.106 3.6.2 3.531-1.764-1.559-3.87-.408-3.035a7.279 7.279 0 0 1 1.867 3.035 17.309 17.309 0 0 1 2.75-2.343c1.528-1.02 6.11-.613 6.11-.613s4.585-.408 6.113.613a17.309 17.309 0 0 1 2.75 2.343 7.279 7.279 0 0 1 1.867-3.035c1.151-.835-.339 1.063-.408 3.035s1.559-.205 3.531 1.764.182 2.308 3.383 2.106 9.177 1.7 14.677 11.337 11.747 12.836 11.479 12.428a39.722 39.722 0 0 1-3.195-6.723m-51.873-37.82c-5.774 1.764-4.62 3.158-2.363 3.668s-1.85 1.627 0 2.24-.524 1.12-5.415 5.133-4.583 2.405-3.668-.752-3.36 2.75-2.137 0 1.528-4.788-.949-3.87-5.469 5.3-2.209-1.123a14.829 14.829 0 0 1 8.963-7.74c1.642-.6 5.757-.664 4.218-.373s-4.181 3.086-2.619 2.069 9.5-3.463 11.949-1.017 0 0-5.771 1.767m37.886 6.418c-2.477-.918-2.172 1.12-.949 3.87s-3.055-3.158-2.14 0 1.223 4.762-3.665.752-7.261-4.523-5.415-5.133-2.254-1.733 0-2.24 3.408-1.9-2.363-3.668-8.213.675-5.771-1.767 10.391 0 11.949 1.017-1.083-1.781-2.619-2.069 2.576-.225 4.218.373a14.829 14.829 0 0 1 8.963 7.74c3.26 6.418.268 2.038-2.209 1.123" transform="translate(-83.665 -66.931)" style="fill:#f7e7dc"/>
                    <path data-name="패스 16438" d="M190.637 233.9c-2.539-.61-5.611 1.57-6.905 4.067a5.551 5.551 0 0 0 10.972.265c-.7-1.5-2.086-3.85-4.067-4.332m-1.4 7.945a3.667 3.667 0 0 1-3.668-3.668 3.706 3.706 0 0 1 .074-.738 2.977 2.977 0 0 1 .091-.348c.017-.057.034-.114.057-.171.029-.08.063-.16.1-.237s.063-.131.1-.2c.017-.034.037-.068.054-.1a.212.212 0 0 1 .02-.034c.043-.074.088-.148.137-.219a3.039 3.039 0 0 1 .182-.245c.04-.051.083-.1.128-.151a2.943 2.943 0 0 1 .208-.214c.043-.04.083-.08.128-.117.009-.006.014-.014.023-.02a3.153 3.153 0 0 1 .274-.208c.063-.046.128-.088.194-.128s.134-.077.2-.114a2.031 2.031 0 0 1 .211-.1l.148-.063.02-.009c.04-.017.083-.031.125-.046a2.919 2.919 0 0 1 .373-.105c.048-.011.1-.023.148-.031a3.494 3.494 0 0 1 .673-.063 3.666 3.666 0 0 1 0 7.333" transform="translate(-131.371 -167.168)" style="fill:#4c280b"/>
                    <path data-name="패스 16439" d="M197.526 239.974a3.667 3.667 0 1 1-3.667-3.667 3.667 3.667 0 0 1 3.667 3.667" transform="translate(-135.99 -168.963)" style="fill:#683512"/>
                    <path data-name="패스 16440" d="M190.722 234.905a26.706 26.706 0 0 0-2.588 1.656s-.18-.533-.522-1.274c-.7-1.5-2.086-3.85-4.067-4.332-2.539-.61-5.611 1.57-6.905 4.067a5.959 5.959 0 0 0-.476 1.231s.655 4.4 6.905 5.078a2.852 2.852 0 0 0-.94 1.864s1.641.815.96.883a2.767 2.767 0 0 0-.769.245c-3.374-1.063-6.355-3.394-7.207-4.728-1.089-1.7-2.579-1.661.712-5.6s4.819-4.38 9.065-4.312c3.1.048 5.021 3.411 5.831 5.221" transform="translate(-124.28 -164.223)" style="fill:#e2cbbc"/>
                    <path data-name="패스 16441" d="M195.294 251.613c0 .046-.068.08-.228.1a20.587 20.587 0 0 0-3.354 1.089l-.248.128c-.083.042-.157.083-.234.125l-.225.125a10.374 10.374 0 0 0-1.288.863q-.15.124-.282.239t-.248.231l-.114.114c-.037.037-.071.074-.105.111-6.25-.675-6.905-5.078-6.905-5.078a5.957 5.957 0 0 1 .476-1.231 5.551 5.551 0 0 0 10.972.265c.342.741.522 1.274.522 1.274l-.832.864a.028.028 0 0 1 .011 0 .031.031 0 0 1 .014 0c.137.034.741.194 1.262.37.04.011.077.026.114.04.057.017.108.037.16.057s.085.031.125.048a2.387 2.387 0 0 1 .234.105c.02.011.037.02.054.031a.4.4 0 0 1 .051.034.215.215 0 0 1 .037.031.086.086 0 0 1 .02.029.046.046 0 0 1 .009.026" transform="translate(-130.177 -177.631)" style="fill:#141313"/>
                    <path data-name="패스 16442" d="m312.025 399.543-.063-.063.06.063" transform="translate(-223.057 -285.634)" style="fill:#efdaca"/>
                    <path data-name="패스 16443" d="m252.628 387.413-.553.105c-.225.037-.507.088-.832.14-.231.037-.482.077-.75.117a20.387 20.387 0 0 1-4.97.279c-2.231-.333-2.9-.952-2.231-.333s-1.975.046-5.953.046-6.615.573-5.95-.046 0 0-2.231.333a20.371 20.371 0 0 1-4.967-.279c-.268-.04-.519-.077-.75-.114-.325-.054-.607-.1-.832-.143l-.556-.105a14.027 14.027 0 0 0 1.481-.676 13.325 13.325 0 0 0 3.24-2.365c.077-.08.154-.157.228-.237a9.739 9.739 0 0 1 4.226-2.753c4.48-1.223 6.11-3.363 6.11-3.363s1.63 2.14 6.11 3.363a7.4 7.4 0 0 1 1.992.9q.269.171.53.359a12.157 12.157 0 0 1 1.473 1.265 7.4 7.4 0 0 1 .217.217c0 .006.009.009.011.011l.063.063c.023.023.043.046.066.066a1.06 1.06 0 0 0 .077.083 13.2 13.2 0 0 0 3.266 2.391c.259.137.522.262.781.379.237.105.467.2.7.294" transform="translate(-158.77 -270.29)" style="fill:#efdaca"/>
                    <path data-name="패스 16444" d="M131.364 53.618c-1.373.326-8.706.685-10.646 3.076a11.083 11.083 0 0 0-2.445 4.506c-.151.586.611-.839 4.074-2.212s2.958-1.54 5.757-1.866-4.942 2.274-8.352 7.163-4.021 6.926-4.351 4.225a56.257 56.257 0 0 1 .024-7.313c.029-.627.061-1.2.086-1.658 0-.041.008-.082.008-.118V59.4c.008-.13.016-.249.025-.359v-.012c0-.093.008-.179.016-.256v-.058a.46.46 0 0 0 .008-.069v-.032a.156.156 0 0 0 0-.041.156.156 0 0 1 0-.045v-.097a.36.36 0 0 0 0-.061.45.45 0 0 0 0-.049 99.91 99.91 0 0 0 .122-5.264c0-8.352 2.31-17.246 4.416-17.315s5.7 1.349 6.111 1.5a8.919 8.919 0 0 1 3.87 2.783c1.153 1.5-1.5-.134-2.583.07s-4.685 1.222-2.844 1.357 5.9 2.176 3.862 2.31-6.787.884-4.889.815 5.842 2.375 5.842 2.375a9.4 9.4 0 0 0-6.791 1.524c-1.968 1.455-3.125 2.62 1.088.921 4.094-1.65 9.281.68 9.562.811a.031.031 0 0 0 .012 0 53.482 53.482 0 0 0-8.686.954 9.589 9.589 0 0 0-5.2 3.166s2.868-1.911 7.961-1.3 5.3.261 3.923.591" transform="translate(-82.434 -25.556)" style="fill:#d1948c"/>
                    <path data-name="패스 16445" d="M189.132 142.869c-5.773 1.764-4.62 3.157-2.363 3.667s-1.85 1.63 0 2.241-.526 1.12-5.414 5.133-4.583 2.4-3.667-.754-3.361 2.75-2.139 0 1.528-4.787-.949-3.87-5.467 5.3-2.208-1.12a14.823 14.823 0 0 1 8.963-7.741c1.642-.6 5.757-.664 4.217-.375s-4.18 3.088-2.62 2.07 9.5-3.463 11.949-1.019 0 0-5.769 1.768" transform="translate(-122.239 -100.018)" style="fill:#efdaca"/>
                    <path data-name="패스 16446" d="M189.958 340.123a1.2 1.2 0 0 1-.026.14c-.009.023-.014.046-.023.066a.454.454 0 0 1-.029.066.951.951 0 0 1-.12.188.745.745 0 0 1-.077.088c-.026.029-.057.057-.088.085a1.391 1.391 0 0 1-.12.1.058.058 0 0 1-.017.011 1.64 1.64 0 0 1-.117.083c-.08.054-.165.1-.254.151-.046.026-.091.048-.137.071a4.832 4.832 0 0 1-.271.125c-.034.017-.071.031-.105.046-.057.026-.117.048-.174.071-.125.051-.254.1-.379.145-.063.023-.123.043-.182.066a7.5 7.5 0 0 0-3.511 2.827q-.436.594-.815 1.223a14.37 14.37 0 0 0-.368.636c-.06.108-.117.217-.174.325-.023.04-.043.083-.063.123q-.1.2-.2.393c-.074.148-.148.3-.217.45-.083.174-.16.351-.237.53l-.162.382c-.105.257-.208.51-.3.767l-.017.043-.128.345c-.123.333-.237.633-.342.9a.165.165 0 0 1-.014.04c-.04.094-.074.185-.108.271q-.03.077-.06.145c-.037.094-.077.182-.114.268a7.764 7.764 0 0 1-.5 1.009c-.017.026-.031.051-.048.074-.379.556-.479.083-.388-.881a14.216 14.216 0 0 1 .071-.618c.054-.41.134-.866.228-1.351.031-.162.066-.325.1-.49a30.491 30.491 0 0 1 .712-2.747c.046-.151.094-.3.145-.447s.1-.279.145-.413c.023-.068.048-.134.074-.2.031-.085.063-.171.1-.251.108-.268.222-.522.339-.764.046-.094.088-.185.134-.276s.091-.18.137-.265l.208-.382c.208-.368.41-.7.6-.992.063-.1.125-.191.185-.282.028-.043.057-.088.088-.131.057-.086.114-.165.165-.245.131-.194.248-.362.339-.507.028-.046.057-.088.077-.128a1.946 1.946 0 0 0 .1-.18c.011-.026.023-.051.031-.074a.436.436 0 0 0 .02-.068.1.1 0 0 0 .009-.037c.031-.242-.237-.285-.995-.151a4.72 4.72 0 0 1-.579.068q-.1.009-.2.009a1.527 1.527 0 0 1-.8-.174.43.43 0 0 1-.074-.051.454.454 0 0 1-.077-.071.185.185 0 0 1-.046-.06.466.466 0 0 1-.04-.063.491.491 0 0 1-.029-.068.519.519 0 0 1-.02-.071.724.724 0 0 1-.014-.077.952.952 0 0 1 .037-.359 1.012 1.012 0 0 1 .031-.1.7.7 0 0 1 .034-.088 2.2 2.2 0 0 1 .222-.413 1.249 1.249 0 0 1 .074-.111l.063-.088q.077-.107.171-.214c.034-.043.071-.086.108-.125s.077-.086.117-.128.083-.088.125-.128.085-.088.131-.131a2.892 2.892 0 0 1 .262-.222 2.21 2.21 0 0 1 .171-.125c.088-.063.18-.123.274-.177.043-.026.086-.051.128-.074s.108-.063.165-.091.111-.06.168-.085.114-.057.171-.083c.028-.014.054-.028.083-.04.083-.04.168-.077.251-.111.111-.048.222-.1.333-.14.7-.282 1.379-.5 1.821-.684q.115-.047.205-.094a.269.269 0 0 0 .063-.034.146.146 0 0 0 .046-.026.249.249 0 0 0 .046-.029.528.528 0 0 0 .1-.083.148.148 0 0 0 .034-.083.065.065 0 0 0-.009-.031v-.011a.09.09 0 0 0-.026-.034.066.066 0 0 0-.02-.02l-.026-.02a.285.285 0 0 0-.066-.037c-.014-.009-.029-.014-.046-.023a.479.479 0 0 0-.077-.031c-.02-.006-.037-.014-.06-.02a2.035 2.035 0 0 0-.217-.063c-.054-.014-.114-.029-.177-.043s-.151-.031-.228-.046c-.029-.006-.06-.009-.091-.014a5.843 5.843 0 0 0-1.932.04c-.054.009-.108.02-.162.031a6.294 6.294 0 0 0-.7.188c-.088.029-.174.057-.262.091a7.529 7.529 0 0 0-1.277.613c-.06.034-.117.068-.177.108a2.091 2.091 0 0 0-.18.114 7.605 7.605 0 0 0-.522.37 10.268 10.268 0 0 0-.821.699c-.06.057-.123.114-.182.177-.023.02-.048.046-.071.068a.123.123 0 0 0-.017.02l-.054.054a2.202 2.202 0 0 0-.134.14c-.063.066-.125.131-.185.2s-.125.137-.185.208q-.227.256-.445.539a.1.1 0 0 0-.023.029c-.154.194-.3.4-.45.607q-.184.257-.359.53-.359.547-.7 1.177c-.063.105-.12.211-.171.319s-.117.217-.174.328c-.014.028-.029.057-.04.085s-.014.029-.023.04c-.02.043-.043.085-.063.125-.043.08-.086.16-.123.234l-.154.291c-.177.328-.331.6-.467.832l-.114.185-.105.162c-.034.051-.068.1-.1.143l-.046.063q-.047.064-.085.111c-.028.034-.054.066-.077.091l-.068.074-.034.029a.632.632 0 0 1-.051.04.189.189 0 0 1-.1.037.076.076 0 0 1-.034-.009.06.06 0 0 1-.028-.017.107.107 0 0 1-.026-.04l-.017-.048-.009-.034a.22.22 0 0 1-.006-.043.46.46 0 0 1-.006-.091 1.141 1.141 0 0 1 0-.137.753.753 0 0 1 .009-.108c0-.037.006-.074.011-.111V344.007c0-.037.009-.074.014-.114s.011-.091.02-.14c.017-.094.034-.2.057-.3l.034-.165a3.48 3.48 0 0 1 .037-.171l.009-.043c.023-.105.048-.214.08-.328.014-.066.031-.131.048-.2l.051-.2c.034-.134.074-.271.114-.413l.06-.214c.083-.288.171-.587.268-.889.046-.151.094-.3.145-.456.014-.04.026-.08.04-.117s.023-.077.037-.114.026-.077.04-.117c.037-.114.077-.231.117-.345.026-.077.051-.154.08-.228a35.642 35.642 0 0 1 .496-1.334c.029-.072.046-.111.074-.168v-.006a.1.1 0 0 1 .014-.031 2.08 2.08 0 0 1 .057-.128c.048-.111.1-.219.16-.325s.117-.208.177-.311q.043-.077.094-.154l.1-.148c.066-.1.134-.2.205-.293s.145-.188.219-.279.131-.16.2-.237c.017-.02.034-.04.054-.06.071-.08.145-.157.219-.231.026-.026.048-.051.074-.074a6.822 6.822 0 0 1 .598-.533c.028-.026.06-.048.088-.071.114-.091.231-.18.351-.262.1-.068.2-.134.3-.2q.094-.064.188-.12c.066-.043.134-.083.2-.12l.2-.114c.066-.037.128-.071.194-.1.088-.048.177-.091.265-.131s.16-.08.242-.114c.148-.068.3-.131.45-.188.1-.04.194-.077.291-.108a8.656 8.656 0 0 1 1.066-.3c.06-.014.12-.028.18-.04s.111-.023.165-.031a1.442 1.442 0 0 1 .154-.026 10.837 10.837 0 0 1 .482-.068 1.056 1.056 0 0 1 .131-.011c.1-.011.2-.02.3-.023a6.3 6.3 0 0 1 2.306.262c.168.054.328.111.479.168.066.023.128.046.191.071.125.048.242.1.353.145.037.014.074.031.111.048s.071.031.105.048a5.377 5.377 0 0 1 .929.53c.063.046.12.091.171.134a.934.934 0 0 1 .077.068l.063.057a1.3 1.3 0 0 1 .4.655.193.193 0 0 1 .009.054.684.684 0 0 1 .009.105.763.763 0 0 1-.1.379.86.86 0 0 1-.12.168 1.156 1.156 0 0 1-.16.151c-.242.194-.761.485-1.262.8l-.214.14a6.254 6.254 0 0 0-.496.354c-.046.034-.088.071-.128.105s-.08.071-.117.105a.88.88 0 0 0-.1.105.973.973 0 0 0-.148.2.588.588 0 0 0-.046.1.373.373 0 0 0-.023.123.242.242 0 0 0 .009.066.2.2 0 0 0 .023.066.348.348 0 0 0 .057.08 1.637 1.637 0 0 0 .935.339c.182.028.467.06.784.117.063.011.128.023.194.037.04.006.08.014.12.023s.06.011.091.02a.1.1 0 0 1 .029.006c.074.017.148.034.222.054a.075.075 0 0 1 .031.009c.051.014.1.029.154.046a.065.065 0 0 1 .031.009c.037.011.074.023.108.037.068.023.137.048.2.077a2.1 2.1 0 0 1 .339.177.3.3 0 0 1 .048.034.188.188 0 0 1 .048.034.469.469 0 0 1 .071.06.494.494 0 0 1 .077.077.6.6 0 0 1 .054.066.5.5 0 0 1 .051.083.57.57 0 0 1 .054.12.656.656 0 0 1 .02.08.888.888 0 0 1 .011.228" transform="translate(-124.876 -238.167)" style="fill:#efdaca"/>
                    <path data-name="패스 16447" d="M233.8 276.756a.15.15 0 0 1 0 .037.144.144 0 0 1-.006.037.49.49 0 0 1-.011.068.688.688 0 0 1-.154.331.323.323 0 0 1-.057.051.437.437 0 0 1-.168.08.091.091 0 0 1-.04.009.524.524 0 0 1-.094.009 2.637 2.637 0 0 1-1.579-1.015s-3.679-3.329-7.649-3.463a12.725 12.725 0 0 1-.809-.051c-.06-.006-.117-.011-.171-.02a3.081 3.081 0 0 1-.311-.051c-.028-.006-.057-.011-.085-.02a.791.791 0 0 1-.1-.026c-.034-.011-.063-.02-.088-.031a.383.383 0 0 1-.068-.031.251.251 0 0 1-.071-.057.094.094 0 0 1 .011-.137.181.181 0 0 1 .043-.037.086.086 0 0 1 .02-.014.143.143 0 0 1 .034-.023 1.126 1.126 0 0 1 .194-.091l.048-.017c.06-.023.128-.046.2-.066l.177-.043.157-.034a5.765 5.765 0 0 1 .627-.1l.151-.017c.225-.026.465-.043.71-.051.063 0 .125-.006.191-.006a8.568 8.568 0 0 1 1.624.111c2.716.473 3.123.744 2.174-.955a1.392 1.392 0 0 1-.194-1.1.8.8 0 0 1 .054-.123.715.715 0 0 1 .077-.105.672.672 0 0 1 .094-.086.871.871 0 0 1 .18-.085 1.148 1.148 0 0 1 .142-.026 1.277 1.277 0 0 1 .18 0 .786.786 0 0 1 .108.017 1.412 1.412 0 0 1 .234.068 1.266 1.266 0 0 1 .242.111c.04.023.068.037.1.057s.088.054.134.085a3.383 3.383 0 0 1 .373.287 6.634 6.634 0 0 1 .96 1.04c.08.1.157.208.237.322l.12.171c.08.12.162.242.242.37.031.048.063.1.091.148s.063.1.094.154c.063.1.125.208.188.319.128.228.248.447.359.655s.211.413.3.607.177.379.251.553c.057.137.111.268.157.4.02.048.037.1.054.145.054.145.1.285.14.419.02.071.04.14.057.208a3 3 0 0 1 .12 1.012" transform="translate(-158.959 -192.77)" style="fill:#efdaca"/>
                    <path data-name="패스 16448" d="M186.46 55.616c-.744-1.5-3.938-4.144-2.106-3.6a12.885 12.885 0 0 1 2.921 1.22 34.365 34.365 0 0 0-1.966-8.963c-1.565-3.665.2-6.25 0-6.72s-4.212-.408-3.26-1.157a4.6 4.6 0 0 1 2.784-.544A58.581 58.581 0 0 0 183.066 29c-.952-2.648-1.493-5.161-1.562-4.62s-.881 1.26-.881 1.26c-.1-3.768-1.835-19.046-4.178-23.833s-12.018.607-21.559 8.45-12.169 16.786-12.169 16.786a20.5 20.5 0 0 1 3 .738 7.778 7.778 0 0 0-3.485 1.419 8.714 8.714 0 0 1 8.45 1.228 24.851 24.851 0 0 1 6.518 7.33 9.128 9.128 0 0 0-5.9-1.73s2.647.308 7.333 4.89 7.435 11.2 9.778 18.436 5.227 9.778 3.121 9.652-6.042-4.426-3.326-.963A16.46 16.46 0 0 0 173.9 72.8a15.429 15.429 0 0 1-1.827 6.378c-1.69 2.853.057 4.825-.892 3.941s-3.189-5.164-2.308-2.445a39.722 39.722 0 0 0 3.195 6.723c.268.408-5.979-2.784-11.479-12.428s-11.476-11.544-14.676-11.339-1.414-.14-3.383-2.106-3.6.2-3.531-1.764 1.559-3.87.408-3.035a7.279 7.279 0 0 0-1.867 3.035 17.309 17.309 0 0 0-2.75-2.343c-1.528-1.02-6.113-.613-6.113-.613s-4.583-.408-6.11.613a17.309 17.309 0 0 0-2.75 2.343 7.279 7.279 0 0 0-1.867-3.035c-1.151-.835.339 1.063.408 3.035s-1.559-.205-3.531 1.764-.185 2.308-3.383 2.106-9.179 1.7-14.68 11.337S85.02 87.8 85.288 87.395a39.724 39.724 0 0 0 3.195-6.723c.881-2.719-1.359 1.559-2.308 2.445s.8-1.089-.895-3.941a15.452 15.452 0 0 1-1.825-6.376 16.439 16.439 0 0 0 5.7-4.756c2.719-3.463-1.22.835-3.323.963s.778-2.422 3.121-9.652 5.095-13.855 9.78-18.438 7.333-4.89 7.333-4.89a9.128 9.128 0 0 0-5.9 1.73 24.843 24.843 0 0 1 6.517-7.33 8.823 8.823 0 0 1 5.688-1.8l.214.014a.382.382 0 0 1 .057 0l.108.009c.077.006.154.011.228.023l.234.026a8.18 8.18 0 0 1 1.65.4l.057.02h.009l.151.06.037.014a.5.5 0 0 1-.043-.031.418.418 0 0 0-.037-.026c-.029-.02-.063-.046-.105-.074l-.1-.068c-.034-.022-.046-.031-.071-.046a9.913 9.913 0 0 0-.336-.205l-.1-.057c-.034-.02-.068-.037-.105-.057s-.071-.04-.108-.057a8.156 8.156 0 0 0-.801-.368 6.91 6.91 0 0 0-.661-.225 5.926 5.926 0 0 0-.658-.149c-.114-.018-.228-.037-.342-.048a20.5 20.5 0 0 1 3-.738s-2.628-8.94-12.169-16.786-19.23-13.24-21.572-8.453-4.072 20.066-4.175 23.833c0 0-.815-.712-.881-1.26s-.61 1.972-1.565 4.62a58.947 58.947 0 0 0-1.764 6.857 4.6 4.6 0 0 1 2.784.544c.952.75-3.055.678-3.26 1.157s1.565 3.055 0 6.72a34.364 34.364 0 0 0-1.966 8.963A12.886 12.886 0 0 1 73 52.02c1.832-.547-1.362 2.1-2.106 3.6S73.746 64.6 73.068 69a80.43 80.43 0 0 1-2.038 9.02 11.789 11.789 0 0 1 4.754-2.92c2.514-.613-1.559 1.425-2.921 4.212s.883 4.617.883 5.837a20.032 20.032 0 0 0 .5 2.907c.436 1.975.995 4.155.995 4.155a44.06 44.06 0 0 1 4.209-4.788c1.493-1.254-2.514 3.839-2.579 6.079s2.915 3.463 2.648 6.589 2.306 6.857 2.306 6.857.815-4.412 2.445-6.384c1.012-1.223.271 1.508-.191 4.617a10.288 10.288 0 0 0 2.109 2.271 3.717 3.717 0 0 1 1.57 2.588 4.647 4.647 0 0 0 3.668-1.163c1.476-1.416 3.331-5.774 3.924-7.23l.009-.02c.017-.046.034-.085.051-.128a2.81 2.81 0 0 0 .051-.125c.009-.017.014-.037.02-.051a.392.392 0 0 1 .017-.046.632.632 0 0 1 .029-.068c0-.006.005-.014.008-.02v-.006a.01.01 0 0 1 0-.006.009.009 0 0 0 0-.006c.04-.091.077-.182.12-.271.165-.373.339-.724.521-1.054.134-.242.268-.476.408-.7a14.485 14.485 0 0 1 1.094-1.528c.114-.14.228-.271.333-.393s.211-.234.308-.336a9.209 9.209 0 0 1 .8-.767 8.922 8.922 0 0 0-2.519 1.664 3.406 3.406 0 0 0-.351.413s-.006 0-.006.006.011-.077.046-.225a.068.068 0 0 1 .006-.023c.009-.043.02-.094.034-.151a.358.358 0 0 1 .02-.074c.009-.043.023-.091.037-.143l.031-.12a7.31 7.31 0 0 1 .083-.265c.014-.048.029-.1.048-.148a15.332 15.332 0 0 1 .599-1.508c.2-.439.447-.926.744-1.453s.647-1.1 1.057-1.7q.368-.547.807-1.129l.085-.108a17.127 17.127 0 0 1 .807-.991q.449-.517.9-.975a17.774 17.774 0 0 1 6.084-4.107.885.885 0 0 0 .319-.18.181.181 0 0 0 .031-.037.094.094 0 0 0 .014-.091.218.218 0 0 0-.023-.031c-.194-.194-1.345-.151-2.856.747-1.884 1.12-2.428 1.217-1.391-.681a21.004 21.004 0 0 1 .45-.789l.134-.225c.205-.342.416-.655.63-.943.043-.06.085-.114.128-.171.128-.168.256-.325.388-.476a6.503 6.503 0 0 1 .387-.424 7.492 7.492 0 0 1 2.306-1.679c-3.374-1.063-6.355-3.394-7.207-4.728-1.089-1.7-2.579-1.661.712-5.6s4.819-4.38 9.065-4.312c3.1.048 5.021 3.411 5.831 5.221a15.082 15.082 0 0 1 3.029-1.351c2.189-.636 2.328-1.513 2.733-1.1a2.312 2.312 0 0 1 .254.351c.085.137.16.271.228.4a5.284 5.284 0 0 1 .4 1.029c.026.094.046.177.063.254l.029.151c0 .017.006.031.009.046a.456.456 0 0 1 .011.077l.009.083a.009.009 0 0 1 0-.006.164.164 0 0 1 .011-.02.17.17 0 0 1 .011-.023l.029-.071c.012-.028.011-.031.017-.048.014-.048.034-.108.054-.18s.04-.157.06-.254.04-.208.057-.333c.006-.031.009-.063.014-.1l.026-.208c.009-.074.014-.154.02-.234l.026-.4c.006-.188.011-.393.011-.618 0-.088 0-.165.006-.237a.9.9 0 0 1 .009-.128 1.145 1.145 0 0 1 .02-.162.393.393 0 0 1 .02-.091.3.3 0 0 1 .02-.054.145.145 0 0 1 .031-.063c.251-.342.949.881 2.063.245a19.723 19.723 0 0 0 2.1-1.727 1.652 1.652 0 0 1 .228-.128 1.244 1.244 0 0 1 .519-.111c1.02 0 1.428 1.151 2.853 1.966 1.057.6 1.738-.467 2.023-.288l.02.02c.083.08.125.3.125.761a5.616 5.616 0 0 0 .342 2.494 4.913 4.913 0 0 1 .75-2.038c.675-1.083.408 0 2.987.75a15.082 15.082 0 0 1 3.029 1.351c.807-1.81 2.73-5.172 5.831-5.221 4.246-.068 5.774.37 9.065 4.312s1.8 3.9.712 5.6c-.852 1.334-3.83 3.665-7.2 4.728a7.389 7.389 0 0 1 2.174 1.547c.046.043.088.085.131.131l.128.137c.085.091.174.188.259.288a11.515 11.515 0 0 1 1.143 1.59l.262.439.225.4c.134.239.245.45.336.633a3.757 3.757 0 0 1 .239.59c0 .011.006.02.009.029a.455.455 0 0 1 .014.06.584.584 0 0 1 .014.191.155.155 0 0 1-.011.043.136.136 0 0 1-.037.066c-.174.18-.809-.125-1.858-.75-1.5-.892-2.653-.94-2.856-.747-.046.043-.04.1.023.16a.9.9 0 0 0 .319.18 17.8 17.8 0 0 1 6.084 4.107c.1.1.2.205.3.311a20.116 20.116 0 0 1 1.493 1.764c3.121 4.144 3.511 6.942 3.511 6.942a7.686 7.686 0 0 0-2.8-2.038c-.026-.014-.048-.023-.066-.031l-.017-.006c.023.02.068.06.134.114.046.046.1.1.168.157s.143.134.225.217.151.151.234.239l.262.282c.046.051.091.105.14.16.1.108.2.225.3.351.048.063.1.128.154.194a14.584 14.584 0 0 1 1.966 3.329s.02.054.06.151c.006.014.011.028.02.046a.041.041 0 0 0 .006.017.725.725 0 0 1 .031.068c.011.028.023.057.031.085s.023.06.037.091l.009.02c.593 1.456 2.448 5.814 3.924 7.23a4.647 4.647 0 0 0 3.668 1.163 3.72 3.72 0 0 1 1.567-2.588 10.115 10.115 0 0 0 2.112-2.271c-.462-3.109-1.2-5.842-.191-4.62 1.63 1.972 2.445 6.384 2.445 6.384s2.579-3.736 2.306-6.857 2.716-4.349 2.648-6.589-4.072-7.333-2.579-6.079a44.059 44.059 0 0 1 4.209 4.788s.559-2.177.992-4.152a19.748 19.748 0 0 0 .5-2.907c0-1.22 2.24-3.055.883-5.837s-5.435-4.825-2.921-4.212a11.789 11.789 0 0 1 4.754 2.921A80.42 80.42 0 0 1 184.289 69c-.678-4.406 2.918-11.892 2.172-13.389M83.341 44.04a.271.271 0 0 1-.028-.048.429.429 0 0 1-.031-.063.828.828 0 0 1-.04-.108 4.676 4.676 0 0 1-.165-.866 56.07 56.07 0 0 1 .026-7.313A7.368 7.368 0 0 1 83.187 34v-.02c0-.04.006-.083.006-.12v-.014q.013-.2.026-.359v-.011c0-.094.009-.18.017-.259v-.057a.639.639 0 0 0 .009-.068v-.031a.231.231 0 0 0 0-.043.2.2 0 0 1 0-.043v-.028c0-.017.006-.034.006-.048v-.023a.462.462 0 0 0 0-.06.3.3 0 0 0 .006-.048c.066-1.231.123-2.941.123-5.264 0-.262 0-.524.006-.787l.017-.687v-.1c.006-.185.014-.37.023-.556.011-.271.026-.544.043-.815.009-.145.017-.288.029-.43 0-.054.006-.105.011-.157.009-.125.017-.251.029-.373q.047-.616.111-1.223c.023-.239.048-.479.077-.715s.057-.473.088-.707c.017-.14.037-.279.057-.419l.051-.37c.037-.254.077-.507.12-.758.025-.171.054-.339.082-.507.011-.06.02-.12.031-.177.029-.162.057-.322.088-.482a39.272 39.272 0 0 1 .63-2.808c.068-.259.14-.51.214-.755.131-.447.268-.872.41-1.265l.085-.231.085-.222.085-.217c.057-.14.117-.276.174-.408.031-.074.066-.142.1-.211a9.27 9.27 0 0 1 .171-.345 6.833 6.833 0 0 1 .365-.624 1.7 1.7 0 0 1 .083-.12 3.108 3.108 0 0 1 .194-.254c.031-.037.063-.071.094-.105a1.841 1.841 0 0 1 .365-.319.927.927 0 0 1 .1-.06 1.167 1.167 0 0 1 .2-.083 1 1 0 0 1 .2-.031h.14a6.063 6.063 0 0 1 .627.034c.137.014.276.031.416.051.111.014.222.034.333.054a17.46 17.46 0 0 1 1.573.359c.154.043.308.085.459.131.074.02.148.043.222.066.148.046.291.088.43.134.071.023.14.043.208.068s.131.04.2.066.128.04.191.063c.125.043.242.083.353.123s.214.074.308.108q.073.026.137.051l.234.085.177.066.108.04c.068.026.14.051.211.08.054.023.108.043.165.068l.168.074c.057.026.142.063.217.1a8.37 8.37 0 0 1 .384.196 9.487 9.487 0 0 1 1.533 1.038 8.775 8.775 0 0 1 .805.769l.123.137a4.99 4.99 0 0 1 .442.573c.091.151.12.251.1.311a.314.314 0 0 1-.017.031.064.064 0 0 1-.02.017.35.35 0 0 1-.222.02 2.331 2.331 0 0 1-.376-.085c-.145-.037-.3-.091-.476-.145a8.084 8.084 0 0 0-1.223-.322 1.52 1.52 0 0 0-.16-.02 1.35 1.35 0 0 0-.262 0H95.3a.6.6 0 0 0-.1.011 7.11 7.11 0 0 0-.393.085c-.191.043-.4.1-.633.16a13.942 13.942 0 0 0-1.374.419c-.043.014-.085.031-.125.046-.08.028-.157.057-.228.088a2.669 2.669 0 0 0-.368.171 1.026 1.026 0 0 0-.1.06.317.317 0 0 0-.128.128.055.055 0 0 0-.009.028.067.067 0 0 0 .029.06.334.334 0 0 0 .162.071 1.925 1.925 0 0 0 .325.043c.046 0 .094.009.142.014.1.011.2.028.311.048l.165.034c.054.011.111.023.168.04a1.428 1.428 0 0 1 .174.046c.057.014.117.031.177.048s.12.034.183.054c.119.037.242.077.365.123.063.02.123.043.185.066.123.046.245.091.365.142a10.09 10.09 0 0 1 1.459.721c.046.026.088.054.128.08s.08.054.117.08a2.5 2.5 0 0 1 .2.154.921.921 0 0 1 .262.316.262.262 0 0 1 .011.037.161.161 0 0 1-.026.14.192.192 0 0 1-.043.04.131.131 0 0 1-.057.037.025.025 0 0 1-.017.009.6.6 0 0 1-.157.048 1.4 1.4 0 0 1-.254.034c-.214.014-.456.034-.721.06s-.544.057-.832.091c-.146.017-.294.037-.442.054a5.46 5.46 0 0 1-.219.028l-.445.06-.219.031-.3.043c-.085.011-.168.026-.248.037-.031.006-.063.009-.091.014-.051.009-.1.014-.151.023l-.048.009c-.063.009-.123.02-.182.028-.322.051-.61.1-.841.148-.04.009-.08.014-.117.023a1.945 1.945 0 0 0-.465.125c-.009.006-.011.011-.011.014v.006a.081.081 0 0 0 .043.014 2.186 2.186 0 0 0 .393.006 5.578 5.578 0 0 1 1.969.433 18.069 18.069 0 0 1 1.716.752c.45.222.866.447 1.211.638q.171.094.316.18c.39.222.63.37.63.37a8.872 8.872 0 0 0-4.161.271 9.417 9.417 0 0 0-1.045.371c-.085.037-.171.074-.256.114q-.081.034-.162.077a7.53 7.53 0 0 0-.359.182l-.094.051c-.085.051-.171.1-.254.151-.157.1-.311.2-.456.308-1.966 1.453-3.123 2.619 1.089.921.2-.08.4-.151.6-.214.137-.04.274-.08.41-.111s.276-.066.413-.091.259-.048.39-.066a.326.326 0 0 1 .051-.009q.171-.026.342-.043l.051-.006c.256-.023.513-.04.769-.046h.3a16.688 16.688 0 0 1 6.224 1.4.05.05 0 0 0 .014 0s-.618.017-1.57.071c-.083.006-.168.009-.259.014l-.53.034c-.057 0-.114.009-.174.011s-.134.011-.2.014c-.1.009-.194.014-.294.023s-.231.02-.35.028c-.337.028-.687.06-1.043.1l-.721.077c-.3.034-.61.074-.915.114s-.607.088-.909.134-.6.1-.883.157-.567.117-.838.18c-.12.028-.239.06-.356.091l-.046.011-.228.068-.162.051-.105.034-.091.031c-.031.011-.06.02-.088.031l-.048.017c-.111.04-.219.083-.325.125-.088.034-.177.071-.262.111s-.171.074-.253.114l-.243.12-.12.06c-.04.02-.077.04-.114.063l-.04.02c-.011.006-.028.014-.04.023l-.077.043s-.009 0-.012.006c-.137.077-.271.157-.4.237l-.16.1a1.808 1.808 0 0 0-.125.083l-.12.083c-.08.054-.157.111-.231.165s-.145.111-.214.165-.137.108-.2.16-.1.083-.148.125c-.023.017-.042.034-.066.054l-.029.026-.009.009c-.071.068-.14.128-.2.188-.04.037-.077.071-.111.105l-.1.1-.091.094c-.031.031-.057.06-.083.088l-.182.2s0 .006-.006.009c-.046.057-.08.1-.1.123l-.014.023a2.79 2.79 0 0 1 .143-.085l.034-.02.04-.023a5.8 5.8 0 0 1 .248-.128c.034-.017.071-.034.108-.054s.08-.034.12-.054a.261.261 0 0 0 .04-.02c.028-.011.06-.026.091-.04s.091-.04.143-.06.1-.043.151-.063l.143-.057a3.49 3.49 0 0 1 .194-.071c.091-.031.185-.066.285-.1a1.815 1.815 0 0 1 .188-.06 10.783 10.783 0 0 1 .955-.254l.2-.043c.066-.014.131-.028.2-.04s.137-.026.208-.037c.091-.017.185-.031.279-.046l.228-.034.282-.034.188-.02c.063-.009.125-.014.191-.02.156-.014.313-.026.476-.031a1.243 1.243 0 0 1 .145-.009c.091-.006.185-.009.279-.011h.416a17 17 0 0 1 1.981.12c.108.014.214.026.316.037.205.026.4.046.593.068s.37.04.544.057.336.037.5.051l.447.043.4.034c.125.011.245.02.359.028.168.014.319.026.459.034l.254.017.4.023a.188.188 0 0 0 .04 0c.037 0 .071 0 .1.006a.4.4 0 0 0 .057 0 1.091 1.091 0 0 1 .182.023s-.011.009-.029.011a.229.229 0 0 1-.051.011c-.111.026-.342.066-.647.14-.043.009-.088.02-.14.028h-.006q-.2.038-.479.077c-.048.009-.1.014-.148.02-.353.048-.789.1-1.277.165l-.171.023a50.41 50.41 0 0 0-2.884.447h-.006c-.268.054-.541.108-.809.168a17.83 17.83 0 0 0-2.34.664 9.474 9.474 0 0 0-1.012.442l-.154.08q-.15.085-.29.171c-.046.029-.091.06-.137.088s-.088.06-.131.091-.085.063-.125.094a3.315 3.315 0 0 0-.282.242c-.02.017-.037.034-.057.054a2.786 2.786 0 0 0-.2.219 11.057 11.057 0 0 0-2.445 4.506c-.017.066-.023.108-.011.125.023.048.151-.071.439-.3.074-.057.157-.123.251-.2l.205-.151c.074-.054.151-.111.236-.165l.274-.18c.191-.12.4-.251.644-.388q.18-.1.376-.205c.134-.068.274-.14.422-.211l.282-.134c.194-.088.4-.18.613-.271l.333-.134c.054-.023.108-.043.16-.066.105-.04.205-.083.3-.123l.282-.114c.137-.057.262-.108.385-.162a.085.085 0 0 0 .028-.011c.151-.063.291-.123.422-.182s.268-.117.388-.171a5.187 5.187 0 0 0 .26-.114l.308-.137a.538.538 0 0 0 .071-.031l.14-.06a.454.454 0 0 0 .066-.028l.131-.054.137-.057c.131-.051.256-.1.384-.137a6.628 6.628 0 0 1 .949-.231 19.38 19.38 0 0 1 .94-.14c.083-.011.171-.02.265-.031l.14-.017c.453-.051.63-.028.593.068 0 .009-.006.014-.009.023a.039.039 0 0 0-.009.011.245.245 0 0 1-.046.051.916.916 0 0 1-.083.071c-.051.04-.111.083-.182.131-.023.017-.048.031-.074.048a5.668 5.668 0 0 1-.168.108c-.031.02-.063.037-.1.057-.063.04-.131.083-.205.125l-.111.066c-.077.046-.157.094-.243.142l-.4.234c-.094.054-.191.111-.288.171-.052.028-.1.06-.151.088-.074.046-.154.091-.231.14s-.157.1-.239.145c-.054.034-.111.066-.165.1-.139.085-.279.174-.422.262s-.291.185-.439.282c-.06.037-.12.077-.18.117-.18.117-.359.239-.544.365l-.37.259-.37.268c-.125.091-.248.185-.373.279l-.185.142c-.125.1-.248.2-.37.3s-.248.2-.368.3-.245.208-.365.313l-.18.162c-.117.108-.237.219-.351.331-.08.077-.16.154-.237.234a14.486 14.486 0 0 0-.891.98c-.211.254-.41.516-.6.784-1.929 2.764-2.961 4.617-3.559 5.218-.023.023-.046.046-.066.063-.182.168-.322.2-.43.074a.166.166 0 0 1-.031-.043m90.939-1.089-.028.219c-.008.068-.02.134-.031.2-.014.091-.031.177-.048.254s-.037.142-.057.2a.71.71 0 0 1-.031.083.784.784 0 0 1-.037.083.225.225 0 0 1-.031.051.408.408 0 0 0-.031.043c-.108.123-.248.094-.43-.074a51.074 51.074 0 0 1-3.106-4.526c-.054-.083-.111-.162-.168-.248-.111-.165-.231-.333-.351-.507a11.934 11.934 0 0 0-.841-1.069c-.123-.14-.251-.279-.379-.416-.088-.094-.18-.185-.274-.279-.077-.08-.157-.157-.237-.234-.117-.111-.234-.222-.353-.331-.06-.057-.12-.108-.18-.162-.359-.319-.73-.624-1.1-.915s-.75-.561-1.117-.821c-.063-.046-.123-.085-.185-.128-.123-.083-.245-.165-.365-.248a.4.4 0 0 0-.046-.028q-.406-.269-.8-.513a.371.371 0 0 0-.043-.028l-.336-.208c-.165-.1-.325-.2-.482-.294-.362-.217-.7-.413-.989-.584-.085-.048-.165-.1-.242-.142a6.574 6.574 0 0 1-.921-.607.246.246 0 0 1-.046-.051.039.039 0 0 0-.009-.011c0-.009-.009-.014-.009-.023-.037-.1.14-.123.593-.068l.14.017c.094.011.182.02.265.031.3.037.553.074.778.111.057.009.111.017.162.029a6.951 6.951 0 0 1 .935.225c.134.043.265.091.4.142.105.043.217.088.333.14.043.02.091.04.137.06l.638.282c.238.105.5.222.809.353a.215.215 0 0 1 .031.011 61.354 61.354 0 0 0 .966.399c.051.023.105.043.16.066l.333.134c.217.091.419.182.616.271.408.188.767.373 1.083.55.239.137.453.268.644.388l.057.034c.077.048.148.1.217.145q.252.171.445.316l.251.2c.288.231.416.351.439.3.011-.017.006-.057-.011-.125a11.077 11.077 0 0 0-2.445-4.508 2.753 2.753 0 0 0-.2-.217.944.944 0 0 0-.057-.054 2.925 2.925 0 0 0-.282-.242l-.125-.094c-.042-.031-.085-.063-.131-.091l-.137-.088q-.141-.085-.291-.171a2.482 2.482 0 0 0-.154-.08 9.473 9.473 0 0 0-1.012-.442 17.83 17.83 0 0 0-2.34-.664c-.268-.06-.541-.114-.809-.168h-.006a49.938 49.938 0 0 0-2.884-.447 2.003 2.003 0 0 0-.171-.023c-.487-.063-.923-.117-1.277-.165-.051-.009-.1-.014-.148-.02q-.282-.038-.479-.077h-.006c-.051-.009-.1-.02-.14-.028-.308-.074-.536-.114-.647-.14l-.051-.011c-.017 0-.028-.009-.028-.011a2.953 2.953 0 0 1 .382-.034c.06 0 .128-.009.2-.011.151-.009.336-.02.553-.037a.163.163 0 0 1 .037 0c.048 0 .1-.009.151-.011s.108-.009.165-.011c.125-.009.259-.02.4-.034.048 0 .1-.009.148-.011.134-.011.276-.023.425-.04s.308-.028.47-.046c.248-.023.513-.051.8-.083.191-.02.388-.043.593-.068.1-.011.208-.023.316-.037a16 16 0 0 1 2.183-.117h.305c.085 0 .165.006.248.011a.446.446 0 0 1 .088.006c.231.011.456.028.673.051.239.023.47.051.693.088.094.014.185.028.276.046.066.009.128.02.191.034.145.026.282.054.416.085a1.245 1.245 0 0 1 .148.034.083.083 0 0 1 .026.006c.085.02.168.04.251.063a2.107 2.107 0 0 1 .239.066c.063.017.123.031.182.051.031.009.063.017.094.028.071.02.14.043.205.066.165.051.316.105.456.16.057.023.114.043.165.066s.1.04.151.063l.142.06c.08.034.151.066.217.1l.117.057c.114.057.208.105.282.148.023.011.046.026.066.037a.561.561 0 0 1 .06.034c.017.009.031.02.046.026l.037.026a.1.1 0 0 0-.014-.023c-.014-.014-.034-.04-.057-.068a.721.721 0 0 0-.051-.063l-.108-.123a4.731 4.731 0 0 0-.245-.259l-.051-.051a4.613 4.613 0 0 0-.262-.251c-.031-.031-.066-.06-.1-.091a7.822 7.822 0 0 0-.254-.217c-.063-.054-.131-.105-.2-.16s-.14-.111-.214-.165-.182-.134-.279-.2c-.063-.043-.128-.088-.2-.131s-.14-.088-.208-.134c-.091-.057-.188-.114-.285-.168s-.165-.094-.251-.14-.148-.08-.222-.117-.154-.077-.234-.114-.165-.077-.251-.114-.145-.063-.222-.094-.182-.074-.276-.108l-.271-.1a.482.482 0 0 0-.077-.029 4.214 4.214 0 0 0-.208-.066.214.214 0 0 0-.046-.014l-.3-.085a13.505 13.505 0 0 0-.319-.08q-.406-.094-.838-.18c-.288-.054-.584-.105-.883-.157s-.6-.091-.909-.134c-.55-.074-1.1-.137-1.636-.191l-.527-.051c-.174-.017-.345-.031-.513-.046-.12-.009-.237-.02-.351-.028s-.2-.014-.291-.023c-.066 0-.131-.009-.194-.014s-.123-.009-.182-.011l-.527-.034a8.759 8.759 0 0 0-.265-.014c-.952-.054-1.57-.071-1.57-.071a.05.05 0 0 0 .014 0 16.688 16.688 0 0 1 6.224-1.4h.3c.256.006.513.023.769.046a.314.314 0 0 1 .051.006q.171.017.342.043a7.868 7.868 0 0 1 1.87.49c4.212 1.7 3.055.533 1.089-.921a6.612 6.612 0 0 0-.456-.308c-.1-.06-.2-.12-.3-.177a13.836 13.836 0 0 0-.4-.208q-.081-.043-.162-.077c-.2-.091-.4-.174-.6-.251a12.224 12.224 0 0 0-.7-.234 8.845 8.845 0 0 0-4.164-.271s.134-.083.368-.219c.114-.068.254-.148.413-.239.108-.06.222-.125.345-.191a23.558 23.558 0 0 1 2.206-1.077c.16-.068.322-.131.479-.191a5.755 5.755 0 0 1 2.035-.456 2.186 2.186 0 0 0 .393-.006c.031-.006.046-.011.046-.02s0-.009-.011-.014a5.82 5.82 0 0 0-1.1-.242c-.06-.011-.123-.023-.188-.031l-.137-.023c-.06-.009-.12-.02-.182-.028l-.048-.009c-.048-.009-.1-.014-.151-.023l-.091-.014-.248-.037-.3-.043-.157-.017a50.28 50.28 0 0 0-1.938-.234 22.51 22.51 0 0 0-.721-.06 1.4 1.4 0 0 1-.254-.034.6.6 0 0 1-.157-.048l-.017-.009a.132.132 0 0 1-.057-.037.191.191 0 0 1-.043-.04.17.17 0 0 1-.026-.14.266.266 0 0 1 .011-.037 1.52 1.52 0 0 1 .581-.55c.04-.026.083-.054.128-.08a10.091 10.091 0 0 1 1.459-.721c.12-.051.242-.1.365-.142l.185-.066a7.467 7.467 0 0 1 .724-.223 1.427 1.427 0 0 1 .174-.046c.114-.028.225-.054.333-.074a4.3 4.3 0 0 1 .454-.062c.365-.026.516-.088.516-.171a.1.1 0 0 0-.028-.066 7.386 7.386 0 0 0-2.3-.878 11.649 11.649 0 0 0-.519-.131c-.04-.009-.077-.017-.114-.028a6.239 6.239 0 0 0-.4-.085.594.594 0 0 0-.1-.011 2.085 2.085 0 0 0-.59.051c-.063.011-.125.026-.191.043l-.16.04a7.18 7.18 0 0 0-.18.048l-.265.08a6.686 6.686 0 0 0-.262.083 5.166 5.166 0 0 1-.852.231.424.424 0 0 1-.2-.009c-.128-.048-.088-.225.217-.621a7.533 7.533 0 0 1 .693-.775 7.57 7.57 0 0 1 .5-.453 9.743 9.743 0 0 1 1.026-.744c.256-.163.507-.3.749-.422l.185-.091.088-.04a1.611 1.611 0 0 1 .194-.085s.006-.006.009-.006c.074-.034.148-.063.217-.088s.142-.057.211-.08l.111-.04c.048-.017.105-.04.174-.066l.37-.137c.143-.051.3-.108.479-.168.117-.04.242-.083.373-.125.066-.026.131-.046.2-.066a24.307 24.307 0 0 1 2.5-.684 12.334 12.334 0 0 1 1.143-.179 6.062 6.062 0 0 1 .627-.034h.14a.942.942 0 0 1 .2.031 1.094 1.094 0 0 1 .2.083.923.923 0 0 1 .1.06 1.961 1.961 0 0 1 .313.262c.026.028.054.057.083.091s.068.077.1.117l.1.128a3.581 3.581 0 0 1 .2.3c.031.048.063.1.091.148l.1.168c.034.057.077.137.114.211.06.111.117.228.174.351.188.4.373.858.553 1.362.06.168.12.339.177.519a33.194 33.194 0 0 1 .94 3.671c.037.182.074.368.108.559.031.16.06.319.088.482.011.057.023.117.031.177.04.222.077.445.111.673.031.185.06.373.088.564.009.066.017.131.029.2l.077.57a.317.317 0 0 1 .006.048c.031.234.06.47.088.707s.054.476.077.715a.284.284 0 0 1 .006.046c.023.225.046.45.066.675.014.168.029.333.04.5a46.48 46.48 0 0 1 .135 2.331v.1l.017.687c0 .262.006.522.006.784 0 2.323.057 4.035.123 5.264a.3.3 0 0 0 .006.048.531.531 0 0 0 0 .063v.096a.111.111 0 0 1 .006.046.216.216 0 0 0 0 .04v.034c0 .02.006.043.009.068v.057c.009.077.011.162.017.256v.011c.009.111.017.228.023.359v.017c0 .037.006.077.009.117V34a7.368 7.368 0 0 1 .085 1.636 56.018 56.018 0 0 1 .026 7.313" transform="translate(-50.109)" style="fill:#efdaca"/>
                    <path data-name="패스 16449" d="M333.229 233.9c-1.981.482-3.366 2.833-4.067 4.332a5.551 5.551 0 0 0 10.972-.265c-1.3-2.5-4.369-4.677-6.905-4.067m1.4 7.945a3.666 3.666 0 0 1 0-7.333c.063 0 .125 0 .188.006s.125.006.185.014a2.971 2.971 0 0 1 .325.048c.031.006.066.011.1.02s.091.02.134.031.108.028.162.046a4.517 4.517 0 0 1 .499.194 3.375 3.375 0 0 1 .493.288c.04.026.074.051.111.08a3.08 3.08 0 0 1 .334.282c.052.051.085.083.125.125s.094.1.14.154c.031.037.063.074.091.114s.08.1.117.157.063.091.094.14l.054.088c.04.066.077.134.114.205a.719.719 0 0 1 .051.105 1.116 1.116 0 0 1 .048.105c.029.066.054.131.08.2s.048.142.068.214v.006a.917.917 0 0 1 .026.094c.02.068.037.137.051.208a3.669 3.669 0 0 1-3.594 4.4" transform="translate(-235.356 -167.168)" style="fill:#4c280b"/>
                    <path data-name="패스 16450" d="M335.467 239.974a3.667 3.667 0 1 0 3.667-3.667 3.667 3.667 0 0 0-3.667 3.667" transform="translate(-239.864 -168.963)" style="fill:#683512"/>
                    <path data-name="패스 16451" d="M260.535 320.875a2.469 2.469 0 0 1 0 .291c0 .031 0 .06-.006.091-.009.091-.02.182-.037.276l-.017.083a3.747 3.747 0 0 1-.17.567c-.031.083-.054.137-.086.208l-.1.217c-.08.162-.157.319-.237.47a.049.049 0 0 0-.006.014 10.822 10.822 0 0 1-.581.986c-.068.1-.137.185-.2.265l-.117.131-.105.108a1.36 1.36 0 0 1-.105.088.688.688 0 0 1-.105.071.947.947 0 0 1-.1.051.47.47 0 0 1-.1.031.354.354 0 0 1-.094.011.256.256 0 0 1-.066-.006.3.3 0 0 1-.066-.014.458.458 0 0 1-.128-.066.241.241 0 0 1-.034-.023.324.324 0 0 1-.048-.043.758.758 0 0 1-.066-.068 1.125 1.125 0 0 1-.125-.177c-.613-1.017-1.887-1.528-2.548-.969-.02.017-.04.037-.063.06a1.637 1.637 0 0 0-.291.393.465.465 0 0 0-.054.1 1.898 1.898 0 0 0-.063.128 2.511 2.511 0 0 0-.148.419 2.184 2.184 0 0 0-.057.909.963.963 0 0 0 .02.1.579.579 0 0 0 .029.1.7.7 0 0 0 .04.108.579.579 0 0 0 .04.086.644.644 0 0 0 .068.12.9.9 0 0 0 .12.16c.028.031.057.063.088.091l.074.066.063.043a1 1 0 0 0 .108.071 1.442 1.442 0 0 0 .188.094.61.61 0 0 0 .1.04.974.974 0 0 0 .108.037c.043.014.091.029.14.04a3.105 3.105 0 0 0 .732.08c.086 0 .174 0 .259-.009.068 0 .137-.009.208-.014h.034c.066-.006.131-.014.194-.023s.154-.02.225-.031.148-.02.219-.034c.214-.034.413-.074.587-.1.1-.017.191-.034.274-.043a1.594 1.594 0 0 1 .214-.017.641.641 0 0 1 .077 0 .219.219 0 0 1 .043.006.118.118 0 0 1 .034.011.09.09 0 0 1 .029.014.056.056 0 0 1 .026.026.083.083 0 0 1 .014.04.048.048 0 0 1 0 .029v.02a.27.27 0 0 1-.011.037 1.24 1.24 0 0 1-.234.345c-.02.026-.043.051-.068.08l-.026.031-.14.148c-.031.034-.063.066-.1.1s-.068.071-.108.108c-.111.111-.239.234-.382.37-2.65 2.508-7.4 2.915-7.4 2.915s-4.748-.408-7.4-2.915c-.3-.282-.527-.513-.7-.7q-.068-.073-.12-.137c-.02-.023-.04-.046-.054-.066a.619.619 0 0 1-.04-.051 1.022 1.022 0 0 1-.1-.142c-.011-.017-.02-.037-.028-.051-.046-.094-.043-.157 0-.188a.117.117 0 0 1 .031-.02.152.152 0 0 1 .043-.011l.034-.006h.017a.443.443 0 0 1 .108 0h.051c.074.006.157.017.251.031q.068.009.145.026c.257.043.567.105.9.151.105.017.217.029.328.04.08.006.165.014.248.017s.168.009.251.009a3.113 3.113 0 0 0 .735-.08 2.02 2.02 0 0 0 .288-.091c.026-.009.054-.023.08-.034a.865.865 0 0 0 .162-.083 1.152 1.152 0 0 0 .117-.074c.037-.026.071-.054.105-.083a.441.441 0 0 0 .054-.051.9.9 0 0 0 .111-.125.258.258 0 0 0 .048-.066 1.132 1.132 0 0 0 .12-.214.713.713 0 0 0 .043-.108.1.1 0 0 0 .011-.031.639.639 0 0 0 .028-.105c.009-.031.014-.066.02-.1a.864.864 0 0 0 .017-.12c.006-.06.009-.117.009-.177s0-.114-.009-.171-.014-.145-.026-.217a2.473 2.473 0 0 0-.06-.251c-.017-.063-.037-.123-.06-.182l-.068-.177a1.434 1.434 0 0 0-.074-.148 2.143 2.143 0 0 0-.182-.302 1.324 1.324 0 0 0-.1-.12.5.5 0 0 0-.066-.068c-.023-.023-.043-.043-.063-.06a.808.808 0 0 0-.2-.128.412.412 0 0 0-.051-.023.971.971 0 0 0-.128-.043.666.666 0 0 0-.108-.023.32.32 0 0 0-.054-.006 1.028 1.028 0 0 0-.134-.009 1.464 1.464 0 0 0-.345.043.6.6 0 0 0-.117.031c-.034.009-.071.023-.105.034s-.063.023-.1.037a1.861 1.861 0 0 0-.239.117 1.134 1.134 0 0 0-.111.066l-.074.048a1.433 1.433 0 0 0-.1.074 1.24 1.24 0 0 0-.1.08 2.161 2.161 0 0 0-.191.174c-.071.074-.14.154-.205.234l-.094.128-.043.065a.233.233 0 0 0-.023.034.236.236 0 0 0-.023.034c-.014.026-.031.051-.046.074a.726.726 0 0 1-.322.288.164.164 0 0 1-.048.017.334.334 0 0 1-.057.011.27.27 0 0 1-.083 0 .26.26 0 0 1-.066-.009.379.379 0 0 1-.1-.029.4.4 0 0 1-.071-.034 2.477 2.477 0 0 1-.8-.878 8.419 8.419 0 0 1-.228-.379 12.78 12.78 0 0 1-.467-.9 4.729 4.729 0 0 1-.185-.425 2.764 2.764 0 0 1-.117-.359.478.478 0 0 1-.026-.091c-.017-.063-.029-.123-.04-.182s-.017-.091-.023-.134-.011-.06-.014-.088v-.009a.063.063 0 0 1 0-.023v-.055c0-.02 0-.037-.006-.057 0-.051-.006-.105-.006-.157 0-.051 0-.1.006-.154a.079.079 0 0 1 0-.026.5.5 0 0 1 .009-.094c0-.034.009-.066.011-.1a2.314 2.314 0 0 1 .08-.365 1.257 1.257 0 0 1 .043-.137 1.331 1.331 0 0 1 .051-.137c.037-.091.077-.182.123-.274a3.99 3.99 0 0 1 .208-.368c.034-.054.068-.108.108-.165a3.957 3.957 0 0 1 .242-.336c.043-.06.088-.117.134-.174.063-.083.131-.165.208-.251s.145-.174.225-.262l.194-.217c.066-.074.111-.117.171-.171a2.515 2.515 0 0 1 .268-.228.529.529 0 0 1 .08-.06.2.2 0 0 1 .04-.029 1.227 1.227 0 0 1 .125-.086c.04-.026.08-.051.12-.074a1.582 1.582 0 0 1 .137-.08 4.572 4.572 0 0 1 .459-.225c.068-.031.14-.06.211-.086s.128-.051.194-.074.134-.048.205-.068.131-.043.2-.06.137-.04.208-.057.111-.031.168-.043c.1-.026.208-.048.313-.071.143-.031.285-.06.43-.083.091-.017.185-.031.279-.046.177-.029.359-.054.541-.074a.106.106 0 0 0 .031 0c.194-.023.39-.043.59-.057s.4-.031.6-.043c.4-.026.807-.04 1.214-.048.61-.014 1.22-.017 1.813-.017h1.2c.339 0 .681.011 1.023.023.1 0 .191.006.285.011.339.011.673.031 1 .06.162.014.325.029.487.046.1.008.2.02.294.031a.382.382 0 0 1 .08.009 13.429 13.429 0 0 1 .97.154 10 10 0 0 0 .271.054 8.242 8.242 0 0 1 .581.154c.063.02.128.037.188.057.083.026.162.054.242.083a2.312 2.312 0 0 1 .234.088c.154.063.3.128.445.2.063.031.123.063.182.1a3.724 3.724 0 0 1 .37.237c.034.023.068.048.1.074a2.906 2.906 0 0 1 .285.242c.054.051.105.1.154.157.265.291.5.564.707.829.04.048.077.1.111.148l.1.131c.043.063.086.123.123.182a4.418 4.418 0 0 1 .234.39c.031.06.06.117.088.177s.048.105.068.157a.863.863 0 0 1 .04.1c.009.026.02.051.026.074a2.612 2.612 0 0 1 .117.456c.006.034.011.068.014.1l.009.08a.7.7 0 0 1 .006.08" transform="translate(-171.927 -226.081)" style="fill:#1e1e1e"/>
                    <path data-name="패스 16452" d="M333.861 239.6c-.852 1.334-3.83 3.665-7.2 4.728a2.767 2.767 0 0 0-.769-.245l-.057-.009-.046-.014a.105.105 0 0 1-.04-.023.061.061 0 0 1-.017-.074c0-.009.009-.017.011-.029l.02-.029a.206.206 0 0 1 .026-.031.049.049 0 0 1 .011-.014.162.162 0 0 1 .031-.031c.029-.026.06-.051.094-.08s.04-.031.063-.046l.026-.017c.023-.017.046-.034.068-.048.182-.123.4-.245.559-.328l.074-.04c.017-.009.034-.017.048-.026a.281.281 0 0 1 .031-.014.158.158 0 0 1 .043-.023s.006-.006.009 0 .006 0 .006 0v-.046a.9.9 0 0 0-.009-.105 1.079 1.079 0 0 0-.017-.111q-.013-.06-.034-.137a2.167 2.167 0 0 0-.071-.222 2.359 2.359 0 0 0-.111-.259 4.409 4.409 0 0 0-.7-.986c6.25-.675 6.905-5.078 6.905-5.078a5.956 5.956 0 0 0-.476-1.231c-1.3-2.5-4.369-4.677-6.905-4.067-1.981.482-3.366 2.833-4.067 4.332-.331.718-.51 1.24-.521 1.271l-.151-.108c-.029-.02-.06-.046-.1-.068l-.182-.128-.145-.1c-.051-.034-.108-.071-.165-.111-.239-.16-.527-.348-.849-.547l-.234-.143c-.239-.145-.5-.3-.761-.445.806-1.81 2.73-5.173 5.831-5.221 4.246-.068 5.774.37 9.065 4.312s1.8 3.9.712 5.6" transform="translate(-227.555 -164.223)" style="fill:#e2cbbc"/>
                    <path data-name="패스 16453" d="M336.134 249.661s-.655 4.4-6.905 5.078c-.034-.037-.068-.074-.105-.111l-.114-.114a2.21 2.21 0 0 0-.12-.114l-.128-.117a8.4 8.4 0 0 0-.875-.67 3.29 3.29 0 0 0-.151-.1 4.766 4.766 0 0 0-.322-.2c-.057-.034-.114-.068-.174-.1s-.117-.068-.177-.1c-.182-.1-.376-.205-.579-.308a20.587 20.587 0 0 0-3.354-1.089.866.866 0 0 1-.137-.028.1.1 0 0 1-.046-.017c-.006 0-.014-.006-.017-.011a.022.022 0 0 1-.011-.011.019.019 0 0 1-.011-.014c-.011-.02-.006-.043.02-.066a.136.136 0 0 1 .028-.029.4.4 0 0 1 .063-.043q.034-.021.077-.043a3.55 3.55 0 0 1 .5-.2c.037-.014.074-.029.114-.04a19.041 19.041 0 0 1 1.262-.37.031.031 0 0 1 .014 0 .01.01 0 0 1 .009 0l-.408-.422-.114-.12-.311-.322c.011-.031.191-.553.522-1.271a5.551 5.551 0 0 0 10.972-.265 5.958 5.958 0 0 1 .476 1.231" transform="translate(-230.88 -177.631)" style="fill:#141313"/>
                    <path data-name="패스 16454" d="M390.632 68.508c-.33 2.7-.941.664-4.351-4.225s-11.151-7.488-8.352-7.163 2.294.489 5.757 1.866 4.225 2.8 4.074 2.212a11.083 11.083 0 0 0-2.444-4.506c-1.939-2.392-9.273-2.75-10.646-3.076s-1.169.021 3.923-.59 7.961 1.3 7.961 1.3a9.588 9.588 0 0 0-5.2-3.166 53.5 53.5 0 0 0-8.686-.953.031.031 0 0 0 .012 0c.281-.13 5.467-2.461 9.562-.811 4.213 1.7 3.056.534 1.088-.921a9.4 9.4 0 0 0-6.791-1.524s3.94-2.445 5.842-2.375-2.852-.68-4.889-.815 2.021-2.171 3.862-2.31-1.76-1.153-2.844-1.357-3.736 1.426-2.583-.07a8.914 8.914 0 0 1 3.87-2.782c.407-.147 4.009-1.561 6.111-1.5s4.416 8.963 4.416 17.315c0 2.322.057 4.033.122 5.264a.428.428 0 0 0 0 .049.358.358 0 0 0 0 .061v.098a.155.155 0 0 1 0 .045.146.146 0 0 0 0 .041v.033a.465.465 0 0 0 .008.069v.057c.008.078.012.163.017.257v.012l.024.359v.016a1.176 1.176 0 0 0 .008.118c.024.461.057 1.031.086 1.658a56.254 56.254 0 0 1 .025 7.313" transform="translate(-266.461 -25.556)" style="fill:#d1948c"/>
                    <path data-name="패스 16455" d="M314.361 149.286c-2.477-.917-2.172 1.12-.949 3.87s-3.056-3.157-2.139 0 1.222 4.763-3.667.754-7.26-4.522-5.414-5.133-2.253-1.732 0-2.241 3.41-1.9-2.363-3.667-8.213.676-5.769-1.768 10.389 0 11.949 1.019-1.083-1.781-2.62-2.07 2.575-.224 4.217.375a14.822 14.822 0 0 1 8.963 7.741c3.259 6.417.269 2.037-2.208 1.12" transform="translate(-209.583 -100.018)" style="fill:#efdaca"/>
                    <path data-name="패스 16456" d="M338.317 344.489a.4.4 0 0 1-.023.1c-.04.1-.114.114-.234.017l-.046-.04a.885.885 0 0 1-.068-.074.572.572 0 0 1-.063-.077.038.038 0 0 1-.017-.02.34.34 0 0 1-.048-.06c-.031-.043-.066-.088-.1-.142a.782.782 0 0 1-.054-.08q-.086-.124-.18-.282a8.772 8.772 0 0 1-.245-.416c-.046-.077-.088-.157-.137-.242q-.244-.445-.547-1.043c-.054-.108-.108-.214-.165-.319s-.117-.219-.177-.325-.1-.191-.157-.282a16.902 16.902 0 0 0-.772-1.24c-.085-.128-.174-.251-.262-.373a15.34 15.34 0 0 0-.533-.69c-.165-.205-.333-.4-.5-.579a10.838 10.838 0 0 0-.579-.588 10.735 10.735 0 0 0-.547-.482c-.091-.074-.182-.148-.274-.217a8.039 8.039 0 0 0-.761-.522c-.083-.051-.168-.1-.251-.148a2.458 2.458 0 0 0-.191-.105 6.443 6.443 0 0 0-.425-.211c-.088-.043-.177-.08-.265-.117q-.235-.1-.462-.171a2.726 2.726 0 0 0-.194-.063 6.2 6.2 0 0 0-1.091-.234.85.85 0 0 0-.1-.011.85.85 0 0 0-.12-.011.926.926 0 0 0-.125-.009h-.006a.032.032 0 0 0-.023 0 5.335 5.335 0 0 0-1.522.108c-.066.014-.123.029-.177.043a2.039 2.039 0 0 0-.217.063c-.023.006-.04.014-.06.02a.48.48 0 0 0-.077.031c-.017.009-.034.014-.048.023a.246.246 0 0 0-.137.123.058.058 0 0 0-.008.031.093.093 0 0 0 .02.057.068.068 0 0 0 .017.026.376.376 0 0 0 .1.083.817.817 0 0 0 .151.088c.06.031.128.06.2.094.04.017.083.034.123.048q.124.051.265.1c.16.06.336.123.522.188l.191.068.447.165c.114.046.231.091.348.14s.239.1.359.154a.1.1 0 0 1 .026.011c.111.048.219.1.328.154a.7.7 0 0 1 .08.04c.043.02.085.043.128.066s.114.06.168.091.111.063.165.1c.085.051.165.1.245.16.06.04.117.083.171.125a2.889 2.889 0 0 1 .262.222c.091.088.177.174.256.259.04.043.08.085.117.128s.074.083.108.125.068.08.1.122a3.581 3.581 0 0 1 .251.356c.023.037.046.074.066.114a2.188 2.188 0 0 1 .108.217 1.212 1.212 0 0 1 .054.151.906.906 0 0 1 .037.145.037.037 0 0 1 0 .017.143.143 0 0 1 .006.034.7.7 0 0 1 .009.217v.006a.7.7 0 0 1-.034.142.52.52 0 0 1-.068.131.185.185 0 0 1-.046.06.454.454 0 0 1-.077.071.43.43 0 0 1-.074.051.57.57 0 0 1-.071.04l-.08.034a.8.8 0 0 1-.088.029 1.286 1.286 0 0 1-.2.046 1.119 1.119 0 0 1-.111.014 3.956 3.956 0 0 1-1.023-.066 3.446 3.446 0 0 0-.7-.071h-.054a.223.223 0 0 0-.063.009.233.233 0 0 0-.131.057.144.144 0 0 0-.02.023.089.089 0 0 0-.014.029l-.009.028a.222.222 0 0 0 .009.12 1.852 1.852 0 0 0 .265.507l.054.083.165.245c.125.185.268.393.422.627a18.016 18.016 0 0 1 .804 1.326c.068.128.14.259.208.4.171.339.342.707.5 1.1.034.08.066.165.1.251.023.051.04.1.06.157.029.071.054.142.08.217.034.1.066.194.1.3.222.658.427 1.394.607 2.126.043.171.083.339.12.507.06.251.114.5.165.747s.1.487.137.721c.014.077.029.151.04.228.026.151.048.3.071.439.031.208.057.4.077.587a3.982 3.982 0 0 1 .017 1.211c-.009.023-.014.046-.023.063a.321.321 0 0 1-.026.046.066.066 0 0 1-.034.029.087.087 0 0 1-.08 0 .2.2 0 0 1-.048-.031.207.207 0 0 1-.029-.023.109.109 0 0 1-.026-.026.4.4 0 0 1-.031-.034c-.009-.011-.02-.023-.031-.04a1.63 1.63 0 0 1-.1-.148c-.011-.02-.026-.04-.037-.06-.051-.086-.105-.188-.165-.3l-.046-.091a10.038 10.038 0 0 1-.2-.43l-.108-.254c-.037-.089-.077-.182-.117-.282l-.108-.271c-.006-.011-.011-.026-.017-.04-.031-.08-.063-.162-.1-.251s-.08-.208-.12-.316-.083-.219-.125-.336c-.068-.185-.14-.373-.211-.559a24.67 24.67 0 0 0-.607-1.432c-.063-.129-.114-.254-.177-.379a7.532 7.532 0 0 0-.117-.239c-.029-.06-.06-.12-.091-.18q-.1-.2-.205-.393c-.051-.1-.108-.2-.165-.3a7.58 7.58 0 0 0-.219-.379 15.033 15.033 0 0 0-.265-.439c-.131-.205-.268-.41-.408-.61-.071-.1-.142-.2-.217-.3l-.123-.165a.086.086 0 0 1-.014-.02c-.074-.094-.148-.188-.222-.279a10.49 10.49 0 0 0-.285-.336q-.111-.128-.231-.248a.271.271 0 0 0-.054-.06 8.88 8.88 0 0 0-.217-.217 6.649 6.649 0 0 0-1.342-1.026c-.037-.023-.074-.043-.111-.063a5.69 5.69 0 0 0-.704-.333c-.066-.026-.137-.054-.208-.08-1.015-.368-2.271-.844-2.106-1.73a.476.476 0 0 1 .026-.091.565.565 0 0 1 .066-.14.9.9 0 0 1 .237-.254 1.621 1.621 0 0 1 .336-.2.745.745 0 0 1 .1-.043 1.384 1.384 0 0 1 .151-.06c.051-.02.1-.037.157-.054.071-.023.145-.043.217-.063s.148-.037.222-.054.145-.031.219-.046.145-.029.214-.04c.316-.057.6-.088.784-.117q.175-.026.316-.06l.1-.026a.445.445 0 0 0 .088-.026l.08-.026a.536.536 0 0 0 .071-.028.58.58 0 0 0 .311-.214.327.327 0 0 0 .011-.342.264.264 0 0 0-.02-.04.009.009 0 0 0 0-.006.854.854 0 0 0-.06-.094 8.911 8.911 0 0 0-2.029-1.459l-.054-.034a3.932 3.932 0 0 1-.328-.225c-.02-.017-.043-.034-.063-.054l-.02-.02a1.11 1.11 0 0 1-.1-.1.61.61 0 0 1-.08-.111.27.27 0 0 1-.029-.048.408.408 0 0 1-.034-.071.551.551 0 0 1-.023-.063.361.361 0 0 1-.02-.08.44.44 0 0 1-.011-.06.593.593 0 0 1 0-.174c0-.029.009-.057.014-.088a.037.037 0 0 1 0-.017c.006-.014.009-.031.014-.046a.487.487 0 0 1 .02-.06 1.18 1.18 0 0 1 .037-.083.578.578 0 0 1 .037-.071 1.366 1.366 0 0 1 .219-.291.7.7 0 0 1 .066-.066.121.121 0 0 1 .017-.02.423.423 0 0 1 .051-.046.076.076 0 0 1 .017-.014c.029-.029.06-.054.091-.08a.988.988 0 0 1 .1-.08 1.114 1.114 0 0 1 .111-.08.6.6 0 0 1 .088-.06 1.127 1.127 0 0 1 .1-.063c.031-.02.066-.04.1-.06l.134-.077c.137-.077.291-.154.456-.231.051-.023.105-.048.162-.071s.125-.054.191-.08.131-.054.2-.08.137-.054.211-.08.145-.054.222-.08.154-.054.234-.08a6.294 6.294 0 0 1 2.306-.262c.08 0 .162.009.242.017s.165.014.248.026a.005.005 0 0 1 .009 0c.074.009.145.017.217.028s.128.017.194.031a1.443 1.443 0 0 1 .154.026c.054.009.108.02.165.031s.12.026.18.04a8.654 8.654 0 0 1 1.066.3c.1.031.194.068.291.108.125.048.248.1.37.154a.031.031 0 0 1 .02.009c.123.051.242.108.362.165s.211.105.313.162c.066.034.131.071.194.108l.217.125c.219.131.43.271.638.425a9.407 9.407 0 0 1 .57.448 7.16 7.16 0 0 1 .7.681 6.58 6.58 0 0 1 .396.473c.065.088.123.162.18.245s.12.174.177.262.111.182.165.274c.105.182.2.373.294.57.043.1.086.2.125.3.057.142.111.285.168.433s.111.3.165.447.111.3.162.453.108.3.16.459c.234.693.45 1.385.627 2.021.04.134.074.265.108.393a12.978 12.978 0 0 1 .359 1.7 2.28 2.28 0 0 1 .017.465" transform="translate(-230.957 -238.167)" style="fill:#efdaca"/>
                    <path data-name="패스 16457" d="M300.234 272.532a.075.075 0 0 1-.009.06.131.131 0 0 1-.02.029.374.374 0 0 1-.105.068.248.248 0 0 1-.048.02l-.048.017a.929.929 0 0 1-.114.031c-.043.011-.088.023-.137.031-.026 0-.051.009-.08.014l-.177.026c-.085.011-.177.02-.276.029q-.3.03-.71.043c-.123 0-.248.011-.371.023-.1.006-.191.017-.288.029l-.068.009a6.033 6.033 0 0 0-.336.051.581.581 0 0 0-.1.017 4.759 4.759 0 0 0-.285.054c-.057.014-.117.026-.177.04s-.117.026-.177.043c-.117.028-.231.06-.348.094-.071.02-.14.043-.211.066-.157.048-.314.1-.467.157-.111.04-.222.083-.331.125s-.217.088-.325.134c-.083.034-.162.071-.245.108s-.191.086-.285.134-.174.08-.259.125c-.47.237-.909.487-1.3.732q-.12.073-.231.145-.175.111-.333.222l-.185.128a14.123 14.123 0 0 0-1.325 1.026l-.057.063a5.887 5.887 0 0 1-.382.362l-.1.088a1.538 1.538 0 0 1-.131.1 2.787 2.787 0 0 1-.373.239 1.53 1.53 0 0 1-.123.06.122.122 0 0 1-.028.011.606.606 0 0 1-.083.031.984.984 0 0 1-.162.043.724.724 0 0 1-.077.011.508.508 0 0 1-.362-.094.349.349 0 0 1-.048-.043l-.009-.009a.537.537 0 0 1-.057-.077.5.5 0 0 1-.057-.117.517.517 0 0 1-.023-.071.96.96 0 0 1-.023-.1 1.177 1.177 0 0 1-.014-.108 1.6 1.6 0 0 1 0-.288c0-.046.006-.091.011-.137s.011-.1.02-.145.014-.1.026-.157.017-.091.029-.14a5.587 5.587 0 0 1 .165-.579 10.15 10.15 0 0 1 .4-1.006c.08-.185.174-.379.276-.581s.211-.413.331-.633c.031-.054.06-.108.091-.165l.046-.083a.334.334 0 0 1 .026-.043.307.307 0 0 1 .023-.043c.037-.063.071-.125.111-.188s.054-.094.083-.14a1.586 1.586 0 0 1 .083-.137c.04-.068.08-.134.123-.2l.123-.188c.083-.122.162-.239.242-.351s.14-.194.208-.285l.011-.014c.046-.06.091-.12.14-.177s.091-.114.137-.165.066-.077.1-.114.063-.071.1-.108l.188-.2a1.52 1.52 0 0 1 .12-.117c.04-.037.077-.071.117-.105s.066-.06.1-.085c.048-.043.1-.083.148-.12a.158.158 0 0 1 .026-.02c.04-.028.077-.057.117-.083a2.163 2.163 0 0 1 .271-.165 1 1 0 0 1 .123-.063 1.25 1.25 0 0 1 .117-.048 1.22 1.22 0 0 1 .123-.04c.037-.011.074-.02.111-.029h.006a.786.786 0 0 1 .108-.017.877.877 0 0 1 .148 0 .151.151 0 0 1 .037 0 .042.042 0 0 1 .02 0 .221.221 0 0 1 .043.006l.051.011a.041.041 0 0 1 .02.006.673.673 0 0 1 .177.083.563.563 0 0 1 .1.086.905.905 0 0 1 .077.105.8.8 0 0 1 .054.123.882.882 0 0 1 .046.294c0 .037 0 .074-.006.114a1.22 1.22 0 0 1-.029.168.729.729 0 0 1-.026.1l-.031.105c-.026.068-.057.14-.091.211-.017.037-.037.071-.057.108-.949 1.7-.542 1.428 2.174.955a8.437 8.437 0 0 1 1.425-.114c.134 0 .268 0 .4.009.225.009.442.023.65.046l.168.017.185.026a1.536 1.536 0 0 1 .165.026c.048.006.094.014.14.023l.134.026a.966.966 0 0 1 .1.02c.06.011.117.026.174.04.04.011.08.023.117.031s.091.029.134.043a.982.982 0 0 1 .39.2.23.23 0 0 1 .026.04.041.041 0 0 1 .006.017" transform="translate(-206.456 -192.77)" style="fill:#efdaca"/>
                    <path data-name="패스 16458" d="M340.536 243.6a2.222 2.222 0 1 1 2.222 2.222 2.222 2.222 0 0 1-2.222-2.222" transform="translate(-243.488 -172.587)" style="fill:#141313"/>
                    <path data-name="패스 16459" d="M351.622 240.76a1.409 1.409 0 1 1 1.409 1.409 1.409 1.409 0 0 1-1.409-1.409" transform="translate(-251.415 -171.14)" style="fill:#f7e7dc"/>
                    <path data-name="패스 16460" d="M199.716 243.6a2.222 2.222 0 1 0-2.222 2.222 2.222 2.222 0 0 0 2.222-2.222" transform="translate(-139.622 -172.587)" style="fill:#141313"/>
                    <path data-name="패스 16461" d="M192.711 240.76a1.409 1.409 0 1 0-1.409 1.409 1.409 1.409 0 0 0 1.409-1.409" transform="translate(-135.776 -171.14)" style="fill:#f7e7dc"/>
                    <path data-name="패스 16462" d="M212.428 274.8a4.647 4.647 0 0 1-3.668-1.163c-1.476-1.416-3.331-5.774-3.924-7.23l-.009-.02c-.014-.031-.026-.063-.037-.091-.026-.06-.046-.111-.063-.154a.041.041 0 0 1-.006-.017c-.009-.017-.014-.031-.02-.046l-.06-.151a14.584 14.584 0 0 0-1.966-3.329 9.97 9.97 0 0 1-.154-.194c-.1-.125-.2-.242-.3-.351l-.14-.16c-.094-.1-.18-.2-.262-.282s-.162-.168-.234-.239-.16-.154-.225-.217-.123-.111-.168-.157c-.066-.054-.111-.094-.134-.114a.058.058 0 0 1 .017.006.431.431 0 0 1 .066.031 7.686 7.686 0 0 1 2.8 2.038s-.39-2.8-3.511-6.942a20.115 20.115 0 0 0-1.493-1.764l-.3-.311a17.8 17.8 0 0 0-6.084-4.107.9.9 0 0 1-.319-.18c-.063-.06-.068-.117-.023-.16.2-.194 1.351-.145 2.856.747 1.049.624 1.684.929 1.858.75a.136.136 0 0 0 .037-.066.156.156 0 0 0 .011-.043.585.585 0 0 0-.014-.191.458.458 0 0 0-.014-.06c0-.009-.006-.017-.009-.028a3.753 3.753 0 0 0-.239-.59 13.56 13.56 0 0 0-.336-.633l-.225-.4-.262-.439a11.514 11.514 0 0 0-1.143-1.59c-.085-.1-.174-.2-.259-.288l-.128-.137a3.237 3.237 0 0 0-.131-.131 7.389 7.389 0 0 0-2.174-1.547 2.767 2.767 0 0 0-.769-.245l-.057-.009a.172.172 0 0 1-.046-.014.1.1 0 0 1-.04-.023.061.061 0 0 1-.017-.074.06.06 0 0 1 .011-.029l.02-.028a.206.206 0 0 1 .026-.031.049.049 0 0 1 .011-.014.162.162 0 0 1 .031-.031c.028-.026.06-.051.094-.08s.04-.031.063-.046l.026-.017c.023-.017.046-.034.068-.048.182-.123.4-.245.559-.328l.074-.04.048-.026a.277.277 0 0 1 .031-.014.16.16 0 0 1 .043-.023s.006-.006.009 0 .006 0 .006 0v-.046a.892.892 0 0 0-.009-.105 1.069 1.069 0 0 0-.017-.111q-.013-.06-.034-.137a2.163 2.163 0 0 0-.071-.222 4.79 4.79 0 0 0-.111-.259 4.411 4.411 0 0 0-.7-.986c-.034-.037-.068-.074-.105-.111l-.114-.114a2.21 2.21 0 0 0-.12-.114l-.128-.117a8.394 8.394 0 0 0-.875-.67 3.29 3.29 0 0 0-.151-.1 4.766 4.766 0 0 0-.322-.2c-.057-.034-.114-.068-.174-.1s-.117-.068-.177-.1c-.182-.1-.376-.205-.579-.308a20.588 20.588 0 0 0-3.354-1.089.864.864 0 0 1-.137-.028.1.1 0 0 1-.046-.017c-.006 0-.014-.006-.017-.011a.022.022 0 0 1-.011-.011.019.019 0 0 1-.011-.014c-.011-.02-.006-.043.02-.066a.135.135 0 0 1 .028-.028.4.4 0 0 1 .063-.043q.034-.021.077-.043a3.557 3.557 0 0 1 .5-.2c.037-.014.074-.029.114-.04a19.041 19.041 0 0 1 1.262-.37.031.031 0 0 1 .014 0 .01.01 0 0 1 .009 0l-.4-.422-.114-.12-.311-.322-.151-.108-.1-.068-.182-.128-.145-.1c-.051-.034-.108-.071-.165-.111-.239-.16-.527-.348-.849-.547l-.234-.142c-.239-.145-.5-.3-.761-.445a15.082 15.082 0 0 0-3.029-1.351c-2.579-.75-2.311-1.832-2.987-.75a4.913 4.913 0 0 0-.75 2.038 5.616 5.616 0 0 1-.342-2.494c0-.459-.043-.681-.125-.761l-.02-.02c-.285-.18-.966.892-2.023.288-1.425-.815-1.832-1.966-2.853-1.966a1.244 1.244 0 0 0-.519.111 1.651 1.651 0 0 0-.228.128 19.721 19.721 0 0 1-2.1 1.727c-1.114.636-1.813-.587-2.063-.245a.258.258 0 0 0-.031.063.3.3 0 0 0-.02.054.393.393 0 0 0-.02.091 1.151 1.151 0 0 0-.02.162.907.907 0 0 0-.009.128v.237c0 .225-.006.43-.014.618l-.026.4-.02.234c-.006.074-.017.143-.026.208-.006.034-.009.066-.014.1-.017.125-.034.237-.057.333s-.04.182-.06.254-.04.131-.054.18l-.017.048-.028.071a.167.167 0 0 0-.011.023.118.118 0 0 1-.011.026v-.006a.009.009 0 0 0 0 .006l-.009-.083c0-.023-.009-.046-.011-.077 0-.014-.006-.028-.009-.046-.009-.046-.017-.1-.028-.151a4.904 4.904 0 0 0-.063-.254 5.284 5.284 0 0 0-.4-1.029 7.194 7.194 0 0 0-.228-.4 2.31 2.31 0 0 0-.254-.351c-.4-.413-.544.465-2.733 1.1a15.082 15.082 0 0 0-3.029 1.351 26.708 26.708 0 0 0-2.588 1.656l-.829.866a.028.028 0 0 1 .011 0 .031.031 0 0 1 .014 0c.137.034.741.194 1.262.37.04.011.077.026.114.04.057.017.108.037.16.057s.085.031.125.048a2.391 2.391 0 0 1 .234.105.454.454 0 0 1 .054.031.4.4 0 0 1 .051.034.212.212 0 0 1 .037.031.087.087 0 0 1 .02.028.046.046 0 0 1 .009.026c0 .046-.068.08-.228.1a20.589 20.589 0 0 0-3.354 1.089l-.248.128c-.083.042-.157.083-.234.125l-.225.125a10.374 10.374 0 0 0-1.288.863q-.15.124-.282.239t-.248.231l-.114.114c-.037.037-.071.074-.105.111a2.852 2.852 0 0 0-.94 1.864s1.642.815.96.883a2.768 2.768 0 0 0-.769.245 7.491 7.491 0 0 0-2.306 1.679 9.877 9.877 0 0 0-.259.276c-.043.048-.085.1-.128.148-.131.151-.259.308-.388.476-.043.057-.085.111-.128.171-.211.288-.422.6-.627.943-.046.077-.091.154-.137.225-.088.148-.168.288-.245.419s-.142.254-.205.37c-1.037 1.9-.493 1.8 1.391.681 1.51-.9 2.662-.94 2.856-.747a.219.219 0 0 1 .023.031.058.058 0 0 1 0 .057.1.1 0 0 1-.017.034.18.18 0 0 1-.031.037.885.885 0 0 1-.319.18 17.774 17.774 0 0 0-6.084 4.107q-.453.457-.9.975c-.1.114-.2.234-.3.353-.171.205-.339.416-.507.638-.029.034-.054.071-.083.108a25.411 25.411 0 0 0-1.866 2.829 20.119 20.119 0 0 0-.744 1.453c-.182.4-.328.755-.445 1.069a16.3 16.3 0 0 0-.154.439c-.02.051-.034.1-.048.148-.031.1-.06.185-.083.265-.011.043-.023.083-.031.12s-.029.1-.037.142a.358.358 0 0 0-.02.074c-.014.057-.023.105-.034.151a.067.067 0 0 0-.006.023c-.023.12-.037.194-.04.217a3.4 3.4 0 0 1 .351-.413 8.917 8.917 0 0 1 2.534-1.656 9.2 9.2 0 0 0-.8.767c-.1.1-.2.214-.308.336s-.219.254-.333.393a14.488 14.488 0 0 0-1.094 1.528c-.137.219-.271.45-.408.7-.182.331-.356.681-.522 1.054-.043.088-.08.18-.12.271a.009.009 0 0 1 0 .006v.006a.009.009 0 0 1 0 .006l-.009.02a.688.688 0 0 0-.029.068.393.393 0 0 0-.017.046c-.006.014-.011.034-.02.051-.014.037-.031.08-.051.125-.009.029-.02.054-.031.086a.287.287 0 0 0-.02.043l-.009.02c-.593 1.456-2.448 5.814-3.924 7.23a4.647 4.647 0 0 1-3.668 1.163 4.268 4.268 0 0 1-.607-.094 9.045 9.045 0 0 0 4.845 2.707c.063.014.123.031.182.043a11.785 11.785 0 0 0 2.095.322 4.415 4.415 0 0 0 2.414-.353 4.92 4.92 0 0 1-2.331 1.619 3.742 3.742 0 0 1-.863.16c-.818.054-.288.3.932.636 1.753.479 4.933 1.131 7.569 1.636 4.355.832 6.5-.838 6.612-.923a4.923 4.923 0 0 1-1.5 1.778c-.735.539 2.573.992 6.29-.45a14.027 14.027 0 0 0 1.481-.676 13.326 13.326 0 0 0 3.24-2.365c.077-.08.154-.157.228-.237a9.739 9.739 0 0 1 4.226-2.753c4.48-1.223 6.11-3.363 6.11-3.363s1.63 2.14 6.11 3.363a7.4 7.4 0 0 1 1.992.9q.269.171.53.359a12.157 12.157 0 0 1 1.473 1.265 7.4 7.4 0 0 1 .217.217c0 .006.009.009.011.011l.06.063c.023.023.043.046.066.066a1.057 1.057 0 0 0 .077.083 13.2 13.2 0 0 0 3.266 2.391c.259.137.522.262.781.379.237.105.467.2.7.294 3.716 1.442 7.025.989 6.29.45a4.924 4.924 0 0 1-1.5-1.778c.108.085 2.257 1.755 6.612.923 2.636-.5 5.817-1.157 7.569-1.636 1.217-.333 1.747-.581.929-.636a3.746 3.746 0 0 1-.861-.16 4.92 4.92 0 0 1-2.331-1.619 4.415 4.415 0 0 0 2.414.353 11.96 11.96 0 0 0 2.089-.319l.185-.046a9.045 9.045 0 0 0 4.845-2.707 4.267 4.267 0 0 1-.607.094m-54.407-8.088a1.193 1.193 0 0 1-.026.14c-.009.023-.014.046-.023.066a.453.453 0 0 1-.028.066.951.951 0 0 1-.12.188.74.74 0 0 1-.077.088c-.026.029-.057.057-.088.085a1.38 1.38 0 0 1-.12.1.059.059 0 0 1-.017.011 2.038 2.038 0 0 1-.117.083c-.08.054-.165.1-.254.151-.046.026-.091.048-.137.071a5.67 5.67 0 0 1-.271.125c-.034.017-.071.031-.105.046-.057.026-.117.048-.174.071-.125.051-.254.1-.379.145-.063.023-.123.043-.182.066a7.5 7.5 0 0 0-3.511 2.827q-.436.594-.815 1.223a14.37 14.37 0 0 0-.368.636c-.06.108-.117.217-.174.325-.023.04-.043.083-.063.123q-.1.2-.2.393c-.074.148-.148.3-.217.45-.083.174-.16.351-.237.53l-.162.382c-.105.256-.208.51-.3.767l-.017.043-.128.345c-.123.333-.237.633-.342.9a.166.166 0 0 1-.014.04c-.04.094-.074.185-.108.271q-.03.077-.06.145c-.037.094-.077.182-.114.268a7.762 7.762 0 0 1-.5 1.009c-.017.026-.031.051-.048.074-.379.556-.479.083-.388-.881.006-.074.014-.148.023-.228.014-.125.028-.254.048-.39.054-.41.134-.866.228-1.351.031-.162.066-.325.1-.49a30.491 30.491 0 0 1 .712-2.747c.046-.151.094-.3.145-.447s.1-.279.145-.413c.023-.068.048-.134.074-.2.031-.085.063-.171.1-.251.108-.268.222-.522.339-.764.046-.094.088-.185.134-.276s.091-.18.137-.265l.208-.382c.208-.368.41-.7.6-.992.063-.1.125-.191.185-.282.028-.043.057-.088.088-.131.057-.085.114-.165.165-.245.131-.194.248-.362.339-.507.029-.046.057-.088.077-.128a1.939 1.939 0 0 0 .1-.18c.011-.026.023-.051.031-.074a.436.436 0 0 0 .02-.068.1.1 0 0 0 .009-.037c.031-.242-.237-.285-.995-.151a4.72 4.72 0 0 1-.579.068q-.1.009-.2.009a1.528 1.528 0 0 1-.8-.174.431.431 0 0 1-.074-.051.459.459 0 0 1-.077-.071.186.186 0 0 1-.046-.06.468.468 0 0 1-.04-.063.49.49 0 0 1-.028-.068.52.52 0 0 1-.02-.071.723.723 0 0 1-.014-.077.953.953 0 0 1 .037-.359 1.015 1.015 0 0 1 .031-.1.694.694 0 0 1 .034-.088 2.2 2.2 0 0 1 .222-.413 1.252 1.252 0 0 1 .074-.111l.063-.088q.077-.107.171-.214c.034-.043.071-.085.108-.125s.077-.086.117-.128.083-.088.125-.128.086-.088.131-.131a2.9 2.9 0 0 1 .262-.222 2.21 2.21 0 0 1 .171-.125c.088-.063.18-.123.274-.177.043-.026.085-.051.128-.074s.108-.063.165-.091.111-.06.168-.085.114-.057.171-.083c.028-.014.054-.029.083-.04.083-.04.168-.077.251-.111.111-.048.222-.1.333-.14.7-.282 1.379-.5 1.821-.684q.115-.047.205-.094a.271.271 0 0 0 .063-.034.145.145 0 0 0 .046-.026.247.247 0 0 0 .046-.028.528.528 0 0 0 .1-.083.147.147 0 0 0 .034-.083.065.065 0 0 0-.009-.031v-.011a.09.09 0 0 0-.026-.034.066.066 0 0 0-.02-.02l-.026-.02a.281.281 0 0 0-.066-.037c-.014-.009-.028-.014-.046-.023a.482.482 0 0 0-.077-.031c-.02-.006-.037-.014-.06-.02a2.035 2.035 0 0 0-.217-.063c-.054-.014-.114-.029-.177-.043s-.151-.031-.228-.046c-.028-.006-.06-.009-.091-.014a5.843 5.843 0 0 0-1.932.04c-.054.009-.108.02-.162.031a6.305 6.305 0 0 0-.7.188 4.525 4.525 0 0 0-.262.091 7.53 7.53 0 0 0-1.277.613c-.06.034-.117.068-.177.108a2.093 2.093 0 0 0-.18.114 7.605 7.605 0 0 0-.522.37 10.268 10.268 0 0 0-.821.699c-.06.057-.123.114-.182.177-.023.02-.048.046-.071.068a.124.124 0 0 0-.017.02l-.054.054a2.202 2.202 0 0 0-.134.14c-.063.066-.125.131-.185.2s-.125.137-.185.208q-.227.256-.445.539a.1.1 0 0 0-.023.029c-.154.194-.3.4-.45.607q-.184.256-.359.53-.359.547-.7 1.177c-.063.105-.12.211-.171.319s-.117.217-.174.328c-.014.029-.028.057-.04.086s-.014.028-.023.04c-.02.043-.043.086-.063.125l-.123.234-.154.291c-.177.328-.331.6-.467.832l-.114.185-.105.162-.1.143-.046.063q-.047.064-.085.111c-.029.034-.054.066-.077.091l-.068.074-.034.029a.628.628 0 0 1-.051.04.188.188 0 0 1-.1.037.076.076 0 0 1-.034-.009.059.059 0 0 1-.029-.017.107.107 0 0 1-.026-.04l-.017-.048-.009-.034a.219.219 0 0 1-.006-.043.462.462 0 0 1-.006-.091 1.143 1.143 0 0 1 0-.137.75.75 0 0 1 .009-.108c0-.037.006-.074.011-.111V270.597c0-.037.009-.074.014-.114s.011-.091.02-.14c.017-.094.034-.2.057-.3l.034-.165a3.48 3.48 0 0 1 .037-.171l.009-.043c.023-.105.048-.214.08-.328.014-.066.031-.131.048-.2l.051-.2c.034-.134.074-.271.114-.413l.06-.214c.083-.288.171-.587.268-.889.046-.151.094-.3.145-.456.014-.04.026-.08.04-.117s.023-.077.037-.114.026-.077.04-.117c.037-.114.077-.231.117-.345.026-.077.051-.154.08-.228a35.642 35.642 0 0 1 .496-1.334c.029-.072.046-.111.074-.168v-.006a.106.106 0 0 1 .014-.031c.017-.043.037-.085.057-.128.048-.111.1-.219.16-.325s.117-.208.177-.311q.043-.077.094-.154l.1-.148a5.686 5.686 0 0 1 .424-.573 6.15 6.15 0 0 1 .2-.237c.017-.02.034-.04.054-.06.071-.08.145-.157.219-.231.026-.026.048-.051.074-.074a6.57 6.57 0 0 1 .598-.533c.028-.026.06-.048.088-.071.114-.091.231-.18.351-.262.1-.068.2-.134.3-.2q.094-.064.188-.12c.066-.043.134-.083.2-.12l.2-.114c.066-.037.128-.071.194-.1.088-.048.177-.091.265-.131s.16-.08.242-.114c.148-.068.3-.131.45-.188.1-.04.194-.077.291-.108a8.661 8.661 0 0 1 1.066-.3c.06-.014.12-.028.18-.04s.111-.023.165-.031a1.451 1.451 0 0 1 .154-.026 10.837 10.837 0 0 1 .482-.068 1.062 1.062 0 0 1 .131-.011c.1-.011.2-.02.3-.023a6.294 6.294 0 0 1 2.306.262c.168.054.328.111.479.168.066.023.128.046.191.071.125.048.242.1.353.145.037.014.074.031.111.048s.071.031.105.048a5.372 5.372 0 0 1 .929.53c.063.046.12.091.171.134a.929.929 0 0 1 .077.068l.063.057a1.305 1.305 0 0 1 .4.655.194.194 0 0 1 .009.054.686.686 0 0 1 .009.105.763.763 0 0 1-.1.379.861.861 0 0 1-.12.168 1.156 1.156 0 0 1-.16.151c-.242.194-.761.484-1.262.8l-.214.14a7.505 7.505 0 0 0-.208.14c-.1.071-.2.142-.288.214-.046.034-.088.071-.128.105s-.08.071-.117.105a.884.884 0 0 0-.1.105.971.971 0 0 0-.148.2.587.587 0 0 0-.046.1.372.372 0 0 0-.023.123.243.243 0 0 0 .009.066.2.2 0 0 0 .023.066.347.347 0 0 0 .057.08 1.637 1.637 0 0 0 .935.339c.182.029.467.06.784.117.063.011.128.023.194.037.04.006.08.014.12.023s.06.011.091.02a.1.1 0 0 1 .029.006c.074.017.148.034.222.054a.074.074 0 0 1 .031.009c.051.014.1.029.154.046a.065.065 0 0 1 .031.009c.037.011.074.023.108.037.068.023.137.048.2.077a2.113 2.113 0 0 1 .339.177.3.3 0 0 1 .048.034.186.186 0 0 1 .048.034.467.467 0 0 1 .071.06.491.491 0 0 1 .077.077.6.6 0 0 1 .054.066.5.5 0 0 1 .051.083.569.569 0 0 1 .054.12.654.654 0 0 1 .02.08.887.887 0 0 1 .011.228m0-21.827a12.023 12.023 0 0 1-.809-.051c-.06-.006-.117-.011-.171-.02a3.054 3.054 0 0 1-.311-.051c-.029-.006-.057-.011-.085-.02a.8.8 0 0 1-.1-.026c-.034-.011-.063-.02-.088-.031a.378.378 0 0 1-.068-.031.25.25 0 0 1-.071-.057.059.059 0 0 1-.017-.028.075.075 0 0 1-.009-.031.121.121 0 0 1 .037-.077.183.183 0 0 1 .043-.037.087.087 0 0 1 .02-.014.144.144 0 0 1 .034-.023 1.13 1.13 0 0 1 .194-.091l.048-.017c.06-.023.128-.046.2-.066l.177-.043.157-.034a5.759 5.759 0 0 1 .627-.1l.151-.017c.225-.026.465-.043.71-.051.063 0 .125-.006.191-.006a8.57 8.57 0 0 1 1.624.111c2.716.473 3.123.744 2.174-.955a1.392 1.392 0 0 1-.194-1.1.8.8 0 0 1 .054-.123.716.716 0 0 1 .077-.105.67.67 0 0 1 .094-.085.869.869 0 0 1 .18-.086 1.145 1.145 0 0 1 .142-.026 1.27 1.27 0 0 1 .18 0 .772.772 0 0 1 .108.017 1.409 1.409 0 0 1 .234.068 1.266 1.266 0 0 1 .242.111c.04.023.068.037.1.057s.088.054.134.085a3.383 3.383 0 0 1 .373.287 6.634 6.634 0 0 1 .96 1.04c.08.1.157.208.237.322l.12.171c.08.12.162.242.242.37.031.048.063.1.091.148s.063.1.094.154c.063.1.125.208.188.319.128.228.248.447.359.655s.211.413.3.607.177.379.251.553c.057.137.111.268.157.4.02.048.037.1.054.145.054.145.1.285.14.419.02.071.04.14.057.208a3 3 0 0 1 .12 1.012.152.152 0 0 1 0 .037.145.145 0 0 1-.006.037.49.49 0 0 1-.011.068.687.687 0 0 1-.154.331.32.32 0 0 1-.057.051.438.438 0 0 1-.168.08.091.091 0 0 1-.04.009.527.527 0 0 1-.094.009 2.637 2.637 0 0 1-1.579-1.015s-3.679-3.329-7.649-3.463m23.526 14.956c0 .031 0 .06-.006.091-.009.091-.02.182-.037.276l-.017.083a3.747 3.747 0 0 1-.17.567c-.031.083-.054.137-.085.208s-.066.142-.1.217c-.08.162-.157.319-.237.47a.048.048 0 0 0-.006.014 10.822 10.822 0 0 1-.581.986c-.068.1-.137.185-.2.265l-.117.131-.105.108a1.36 1.36 0 0 1-.105.088.686.686 0 0 1-.105.071 1.1 1.1 0 0 1-.1.051.471.471 0 0 1-.1.031.354.354 0 0 1-.094.011.255.255 0 0 1-.066-.006.3.3 0 0 1-.066-.014.456.456 0 0 1-.128-.066.241.241 0 0 1-.034-.023.326.326 0 0 1-.048-.043.757.757 0 0 1-.066-.068 1.129 1.129 0 0 1-.125-.177c-.613-1.017-1.887-1.528-2.548-.969-.02.017-.04.037-.063.06a1.638 1.638 0 0 0-.291.393.464.464 0 0 0-.054.1 1.898 1.898 0 0 0-.063.128 2.511 2.511 0 0 0-.148.419 2.185 2.185 0 0 0-.057.909.967.967 0 0 0 .02.1.577.577 0 0 0 .029.1.7.7 0 0 0 .04.108.573.573 0 0 0 .04.085.641.641 0 0 0 .068.12.9.9 0 0 0 .12.16c.029.031.057.063.088.091l.074.066.063.043a1.01 1.01 0 0 0 .108.071 1.441 1.441 0 0 0 .188.094.609.609 0 0 0 .1.04.961.961 0 0 0 .108.037c.043.014.091.029.14.04a3.1 3.1 0 0 0 .732.08c.085 0 .174 0 .259-.009.068 0 .137-.009.208-.014h.034c.066-.006.131-.014.194-.023s.154-.02.225-.031.148-.02.219-.034c.214-.034.413-.074.587-.1.1-.017.191-.034.274-.043a1.6 1.6 0 0 1 .214-.017.641.641 0 0 1 .077 0 .223.223 0 0 1 .043.006.121.121 0 0 1 .034.011.09.09 0 0 1 .029.014.056.056 0 0 1 .026.026.083.083 0 0 1 .014.04.049.049 0 0 1 0 .029v.02a.265.265 0 0 1-.011.037 1.241 1.241 0 0 1-.234.345c-.02.026-.043.051-.068.08l-.026.031-.14.148-.1.1c-.034.034-.068.071-.108.108-.111.111-.239.234-.382.37-2.65 2.508-7.4 2.915-7.4 2.915s-4.748-.408-7.4-2.915c-.3-.282-.527-.513-.7-.7q-.068-.073-.12-.137c-.02-.023-.04-.046-.054-.066a.627.627 0 0 1-.04-.051 1.023 1.023 0 0 1-.1-.143c-.011-.017-.02-.037-.029-.051-.046-.094-.043-.157 0-.188a.119.119 0 0 1 .031-.02.155.155 0 0 1 .043-.011l.034-.006h.017a.446.446 0 0 1 .108 0h.051c.074.006.157.017.251.031q.068.009.145.026c.257.043.567.105.9.151.105.017.217.028.328.04.08.006.165.014.248.017s.168.009.251.009a3.111 3.111 0 0 0 .735-.08 2 2 0 0 0 .288-.091c.026-.009.054-.023.08-.034a.868.868 0 0 0 .162-.083 1.169 1.169 0 0 0 .117-.074c.037-.026.071-.054.105-.083a.446.446 0 0 0 .054-.051.9.9 0 0 0 .111-.125.259.259 0 0 0 .048-.066 1.131 1.131 0 0 0 .12-.214.711.711 0 0 0 .043-.108.1.1 0 0 0 .011-.031.637.637 0 0 0 .029-.105c.009-.031.014-.066.02-.1a.869.869 0 0 0 .017-.12c.006-.06.009-.117.009-.177s0-.114-.009-.171-.014-.145-.026-.217a2.469 2.469 0 0 0-.06-.251c-.017-.063-.037-.123-.06-.182l-.068-.177a1.434 1.434 0 0 0-.074-.148 2.143 2.143 0 0 0-.182-.302 1.324 1.324 0 0 0-.1-.12.5.5 0 0 0-.066-.068c-.023-.023-.043-.043-.063-.06a.806.806 0 0 0-.2-.128.4.4 0 0 0-.051-.023.966.966 0 0 0-.128-.043.663.663 0 0 0-.108-.023.314.314 0 0 0-.054-.006 1.017 1.017 0 0 0-.134-.009 1.464 1.464 0 0 0-.345.043.592.592 0 0 0-.117.031c-.034.009-.071.023-.105.034s-.063.023-.1.037a1.84 1.84 0 0 0-.239.117 1.12 1.12 0 0 0-.111.066l-.074.048a1.433 1.433 0 0 0-.1.074 1.232 1.232 0 0 0-.1.08 2.163 2.163 0 0 0-.191.174c-.071.074-.14.154-.205.234l-.094.128-.043.066a79.865 79.865 0 0 0-.046.068c-.014.026-.031.051-.046.074a.727.727 0 0 1-.322.288.165.165 0 0 1-.048.017.337.337 0 0 1-.057.011.268.268 0 0 1-.083 0 .259.259 0 0 1-.066-.009.379.379 0 0 1-.1-.029.408.408 0 0 1-.071-.034 2.477 2.477 0 0 1-.8-.878 8.419 8.419 0 0 1-.228-.379 12.78 12.78 0 0 1-.467-.9 4.729 4.729 0 0 1-.185-.425 2.761 2.761 0 0 1-.117-.359.477.477 0 0 1-.026-.091c-.017-.063-.028-.123-.04-.182s-.017-.091-.023-.134-.011-.06-.014-.088V260a.063.063 0 0 1 0-.023v-.054c0-.02 0-.037-.006-.057 0-.051-.006-.105-.006-.157 0-.051 0-.1.006-.154a.079.079 0 0 1 0-.026.5.5 0 0 1 .009-.094c0-.034.009-.066.011-.1a2.318 2.318 0 0 1 .08-.365 1.265 1.265 0 0 1 .043-.137 1.329 1.329 0 0 1 .051-.137c.037-.091.077-.182.123-.274a3.989 3.989 0 0 1 .208-.368c.034-.054.068-.108.108-.165a3.94 3.94 0 0 1 .242-.336c.043-.06.088-.117.134-.174.063-.083.131-.165.208-.251s.145-.174.225-.262l.194-.217c.066-.075.111-.117.171-.171a2.514 2.514 0 0 1 .268-.228.53.53 0 0 1 .08-.06.2.2 0 0 1 .04-.029 1.218 1.218 0 0 1 .125-.085c.04-.026.08-.051.12-.074a1.571 1.571 0 0 1 .137-.08 4.58 4.58 0 0 1 .459-.225c.068-.031.14-.06.211-.085s.128-.051.194-.074.134-.048.205-.068.131-.043.2-.06.137-.04.208-.057.111-.031.168-.043c.1-.026.208-.048.313-.071.143-.031.285-.06.43-.083.091-.017.185-.031.279-.046.177-.029.359-.054.541-.074a.107.107 0 0 0 .031 0c.194-.023.39-.043.59-.057s.4-.031.6-.043c.4-.026.807-.04 1.214-.048.61-.014 1.22-.017 1.812-.017h1.2c.339 0 .681.011 1.023.023.1 0 .191.006.285.011.339.011.673.031 1 .06.162.014.325.028.487.046.1.009.2.02.294.031a.38.38 0 0 1 .08.009 13.429 13.429 0 0 1 .97.154c.083.017.18.037.271.054a8.242 8.242 0 0 1 .581.154c.063.02.128.037.188.057.083.026.162.054.242.083a2.322 2.322 0 0 1 .234.088c.154.063.3.128.445.2.063.031.123.063.182.1a3.73 3.73 0 0 1 .371.237c.034.023.068.048.1.074a2.907 2.907 0 0 1 .285.242c.054.051.105.1.154.157.265.291.5.564.707.829.04.048.077.1.111.148l.1.131c.043.063.085.123.123.182a4.4 4.4 0 0 1 .234.39c.031.06.06.117.088.177s.048.105.068.157a.87.87 0 0 1 .04.1c.009.026.02.051.026.074a2.614 2.614 0 0 1 .117.456c.006.034.011.068.014.1l.009.08a.7.7 0 0 1 .006.08 2.47 2.47 0 0 1 0 .291m2.787-14.9-.068.009a6.033 6.033 0 0 0-.336.051.577.577 0 0 0-.1.017 4.759 4.759 0 0 0-.285.054c-.057.014-.117.026-.177.04s-.117.026-.177.043c-.117.028-.231.06-.348.094-.071.02-.14.043-.211.066-.157.048-.314.1-.467.157-.111.04-.222.083-.331.125s-.217.088-.325.134c-.083.034-.162.071-.245.108s-.191.085-.285.134-.174.08-.259.125c-.47.237-.909.487-1.3.732q-.12.073-.231.145-.175.111-.333.222l-.185.128a14.128 14.128 0 0 0-1.325 1.026l-.057.063a6.174 6.174 0 0 1-.382.362l-.1.088a1.538 1.538 0 0 1-.131.1 2.785 2.785 0 0 1-.373.239 1.53 1.53 0 0 1-.123.06.12.12 0 0 1-.029.011.6.6 0 0 1-.083.031.983.983 0 0 1-.162.043.711.711 0 0 1-.077.011.508.508 0 0 1-.362-.094.352.352 0 0 1-.048-.043l-.009-.009a.535.535 0 0 1-.057-.077.494.494 0 0 1-.057-.117.522.522 0 0 1-.023-.071.962.962 0 0 1-.023-.1 1.177 1.177 0 0 1-.014-.108 1.593 1.593 0 0 1 0-.288c0-.046.006-.091.011-.137s.011-.1.02-.145.014-.1.026-.157.017-.091.029-.14a5.592 5.592 0 0 1 .165-.578 9.22 9.22 0 0 1 .174-.476 13.373 13.373 0 0 1 .498-1.108c.102-.202.211-.413.331-.633.031-.054.06-.108.091-.165l.046-.083a.339.339 0 0 1 .026-.043.308.308 0 0 1 .023-.043c.037-.063.071-.125.111-.188s.054-.094.083-.14a1.584 1.584 0 0 1 .083-.137c.04-.068.08-.134.123-.2l.123-.188a16.05 16.05 0 0 1 .45-.636l.011-.014c.046-.06.091-.12.14-.177s.091-.114.137-.165.066-.077.1-.114.063-.071.1-.108l.188-.2a1.525 1.525 0 0 1 .12-.117c.04-.037.077-.071.117-.105s.066-.06.1-.085c.048-.043.1-.083.148-.12a.157.157 0 0 1 .026-.02c.04-.028.077-.057.117-.083a2.161 2.161 0 0 1 .271-.165 1 1 0 0 1 .123-.063c.04-.02.08-.034.117-.048a1.225 1.225 0 0 1 .123-.04c.037-.011.074-.02.111-.028h.006a.771.771 0 0 1 .108-.017.872.872 0 0 1 .148 0 .15.15 0 0 1 .037 0 .042.042 0 0 1 .02 0 .219.219 0 0 1 .043.006l.051.011a.041.041 0 0 1 .02.006.672.672 0 0 1 .177.083.562.562 0 0 1 .1.085.909.909 0 0 1 .077.105.8.8 0 0 1 .054.123.881.881 0 0 1 .046.294c0 .037 0 .074-.006.114a1.224 1.224 0 0 1-.028.168.737.737 0 0 1-.026.1l-.031.105c-.026.068-.057.14-.091.211-.017.037-.037.071-.057.108-.949 1.7-.541 1.428 2.174.955a8.432 8.432 0 0 1 1.425-.114c.134 0 .268 0 .4.009.225.009.442.023.65.046l.168.017.185.026a1.527 1.527 0 0 1 .165.026c.048.006.094.014.14.023l.134.026a.966.966 0 0 1 .1.02c.06.011.117.026.174.04.04.011.08.023.117.031s.091.028.134.043a.981.981 0 0 1 .39.2.227.227 0 0 1 .026.04.04.04 0 0 1 .006.017.075.075 0 0 1-.009.06.133.133 0 0 1-.02.028.374.374 0 0 1-.105.068.247.247 0 0 1-.048.02l-.048.017a.926.926 0 0 1-.114.031c-.043.011-.088.023-.137.031-.026 0-.051.009-.08.014l-.177.026c-.085.011-.177.02-.276.028q-.3.03-.71.043c-.123 0-.248.011-.37.023-.1.006-.191.017-.288.029m15.94 26.148a.4.4 0 0 1-.023.1c-.04.1-.114.114-.234.017l-.046-.04a.881.881 0 0 1-.068-.074.566.566 0 0 1-.063-.077.038.038 0 0 1-.017-.02.341.341 0 0 1-.048-.06c-.031-.043-.066-.088-.1-.143a.787.787 0 0 1-.054-.08q-.086-.124-.18-.282a8.772 8.772 0 0 1-.245-.416c-.046-.077-.088-.157-.137-.242q-.244-.445-.547-1.043c-.054-.108-.108-.214-.165-.319s-.117-.219-.177-.325-.1-.191-.157-.282a17.287 17.287 0 0 0-.772-1.24c-.085-.128-.174-.251-.262-.373a15.34 15.34 0 0 0-.533-.689c-.165-.205-.333-.4-.5-.579a10.838 10.838 0 0 0-.397-.411c-.063-.063-.123-.12-.182-.177a10.735 10.735 0 0 0-.547-.482c-.091-.074-.182-.148-.274-.217a8.041 8.041 0 0 0-.761-.522c-.083-.051-.168-.1-.251-.148a2.458 2.458 0 0 0-.191-.105 6.698 6.698 0 0 0-.425-.211c-.088-.043-.177-.08-.265-.117q-.235-.1-.462-.171c-.066-.023-.131-.046-.194-.063a6.2 6.2 0 0 0-1.092-.234.85.85 0 0 0-.1-.011.85.85 0 0 0-.12-.011.926.926 0 0 0-.125-.009h-.006a.031.031 0 0 0-.023 0 5.333 5.333 0 0 0-1.522.108 2.901 2.901 0 0 0-.177.043 2.034 2.034 0 0 0-.217.063c-.023.006-.04.014-.06.02a.482.482 0 0 0-.077.031c-.017.009-.034.014-.048.023a.245.245 0 0 0-.137.122.058.058 0 0 0-.009.031.092.092 0 0 0 .02.057.067.067 0 0 0 .017.026.376.376 0 0 0 .1.083.816.816 0 0 0 .151.088c.06.031.128.06.2.094.04.017.083.034.123.048q.124.051.265.1c.16.06.336.123.522.188l.191.068.447.165c.114.046.231.091.348.14s.239.1.359.154a.1.1 0 0 1 .026.011c.111.048.219.1.328.154a.7.7 0 0 1 .08.04c.043.02.085.043.128.066s.114.06.168.091.111.063.165.1c.085.051.165.1.245.16.06.04.117.083.171.125a2.905 2.905 0 0 1 .262.222c.091.088.177.174.257.259.04.043.08.085.117.128s.074.083.108.125.068.08.1.123a3.571 3.571 0 0 1 .251.356c.023.037.046.074.066.114a2.187 2.187 0 0 1 .108.217 1.216 1.216 0 0 1 .054.151.91.91 0 0 1 .037.145.036.036 0 0 1 0 .017.145.145 0 0 1 .006.034.7.7 0 0 1 .009.217v.006a.694.694 0 0 1-.034.143.52.52 0 0 1-.068.131.186.186 0 0 1-.046.06.458.458 0 0 1-.077.071.431.431 0 0 1-.074.051.579.579 0 0 1-.071.04l-.08.034a.8.8 0 0 1-.088.029 1.282 1.282 0 0 1-.2.046 1.119 1.119 0 0 1-.111.014 3.956 3.956 0 0 1-1.023-.066 3.442 3.442 0 0 0-.7-.071h-.054a.223.223 0 0 0-.063.009.233.233 0 0 0-.131.057.144.144 0 0 0-.02.023.09.09 0 0 0-.014.029c0 .009-.006.02-.009.029a.221.221 0 0 0 .009.12 1.853 1.853 0 0 0 .265.507l.054.083.165.245c.125.185.268.393.422.627a18.016 18.016 0 0 1 .804 1.326c.068.128.14.259.208.4.171.339.342.707.5 1.1.034.08.066.165.1.251.023.051.04.1.06.157.028.071.054.142.08.217.034.1.066.194.1.3.222.658.427 1.394.607 2.126.043.171.083.339.12.507.06.251.114.5.165.747s.1.487.137.721c.014.077.028.151.04.228.026.151.048.3.071.439.031.208.057.4.077.587a3.982 3.982 0 0 1 .017 1.211c-.009.023-.014.046-.023.063a.33.33 0 0 1-.026.046.067.067 0 0 1-.034.029.087.087 0 0 1-.08 0 .2.2 0 0 1-.048-.031.2.2 0 0 1-.029-.023.109.109 0 0 1-.026-.026.407.407 0 0 1-.031-.034c-.009-.011-.02-.023-.031-.04a1.615 1.615 0 0 1-.1-.148c-.011-.02-.026-.04-.037-.06-.051-.085-.105-.188-.165-.3l-.046-.091a10.038 10.038 0 0 1-.2-.43l-.108-.254c-.037-.089-.077-.182-.117-.282l-.108-.271c-.006-.011-.011-.026-.017-.04-.031-.08-.063-.162-.1-.251s-.08-.208-.12-.316-.083-.219-.125-.336c-.068-.185-.14-.373-.211-.559a24.67 24.67 0 0 0-.607-1.432c-.063-.129-.114-.254-.177-.379a7.532 7.532 0 0 0-.117-.239c-.028-.06-.06-.12-.091-.18q-.1-.2-.205-.393c-.051-.1-.108-.2-.165-.3a7.58 7.58 0 0 0-.219-.379 13.108 13.108 0 0 0-.673-1.049c-.071-.1-.142-.2-.217-.3l-.123-.165a.086.086 0 0 1-.014-.02c-.074-.094-.148-.188-.222-.279a10.49 10.49 0 0 0-.285-.336q-.111-.128-.231-.248a.271.271 0 0 0-.054-.06 8.88 8.88 0 0 0-.217-.217 6.648 6.648 0 0 0-1.342-1.026c-.037-.023-.074-.043-.111-.063a5.69 5.69 0 0 0-.704-.333c-.066-.026-.137-.054-.208-.08-1.015-.368-2.271-.844-2.106-1.73a.48.48 0 0 1 .026-.091.565.565 0 0 1 .066-.14.9.9 0 0 1 .237-.254 1.621 1.621 0 0 1 .336-.2.753.753 0 0 1 .1-.043 1.4 1.4 0 0 1 .151-.06c.051-.02.1-.037.157-.054.071-.023.145-.043.217-.063s.148-.037.222-.054.145-.031.219-.046.145-.028.214-.04c.316-.057.6-.088.784-.117q.175-.026.316-.06l.1-.026a.451.451 0 0 0 .088-.026l.08-.026a.533.533 0 0 0 .071-.029.578.578 0 0 0 .311-.214.327.327 0 0 0 .011-.342.263.263 0 0 0-.02-.04.009.009 0 0 0 0-.006.858.858 0 0 0-.06-.094 8.912 8.912 0 0 0-2.027-1.479l-.054-.034a3.906 3.906 0 0 1-.328-.225c-.02-.017-.043-.034-.063-.054l-.02-.02a1.117 1.117 0 0 1-.1-.1.611.611 0 0 1-.08-.111.272.272 0 0 1-.029-.048.409.409 0 0 1-.034-.071.562.562 0 0 1-.023-.063.365.365 0 0 1-.02-.08.44.44 0 0 1-.011-.06.592.592 0 0 1 0-.174c0-.029.009-.057.014-.088a.036.036 0 0 1 0-.017c.006-.014.009-.031.014-.046a.491.491 0 0 1 .02-.06c.011-.029.023-.054.037-.083a.579.579 0 0 1 .037-.071 1.367 1.367 0 0 1 .219-.291.709.709 0 0 1 .066-.066.121.121 0 0 1 .017-.02.416.416 0 0 1 .051-.046.077.077 0 0 1 .017-.014c.029-.029.06-.054.091-.08a.979.979 0 0 1 .1-.08 1.108 1.108 0 0 1 .111-.08.606.606 0 0 1 .088-.06 1.142 1.142 0 0 1 .1-.063c.031-.02.066-.04.1-.06l.134-.077c.137-.077.291-.154.456-.231.051-.023.105-.048.162-.071s.125-.054.191-.08.131-.054.2-.08.137-.054.211-.08.145-.054.222-.08.154-.054.234-.08a6.294 6.294 0 0 1 2.306-.262c.08 0 .162.009.242.017s.165.014.248.026a.005.005 0 0 1 .009 0c.074.009.145.017.217.029s.128.017.194.031a1.45 1.45 0 0 1 .154.026c.054.009.108.02.165.031s.12.026.18.04a8.659 8.659 0 0 1 1.066.3c.1.031.194.068.291.108.125.048.248.1.37.154a.031.031 0 0 1 .02.009c.123.051.242.108.362.165s.211.105.313.162c.066.034.131.071.194.108l.217.125c.219.131.43.271.638.425a9.407 9.407 0 0 1 .57.448 7.159 7.159 0 0 1 .7.681 5.692 5.692 0 0 1 .396.474c.065.089.123.162.18.245s.12.174.177.262.111.182.165.274c.105.182.2.373.294.57.043.1.085.2.125.3.057.143.111.285.168.433s.111.3.165.447.111.3.162.453.108.3.16.459c.234.693.45 1.385.627 2.021.04.134.074.265.108.393a12.988 12.988 0 0 1 .359 1.7 2.278 2.278 0 0 1 .017.465" transform="translate(-92.939 -164.757)" style="fill:#f7e7dc"/>
                    <path data-name="패스 16463" d="M87.181 367.767a1.2 1.2 0 0 1-.4.331 14.667 14.667 0 0 1-4.09 1.066c-.142-8.6 4.246-16.928 3.092-10.41-1.325 7.489 1.291 8.957 1.4 9.014" transform="translate(-59.124 -254.846)" style="fill:#ceb7aa"/>
                    <path data-name="패스 16464" d="M34.549 368.21a1.533 1.533 0 0 0-1.679-.251 14.762 14.762 0 0 1-3.958.5c1.69-7.649 7.364-15.15 5.241-9.729-2.59 6.609.151 9.259.4 9.479" transform="translate(-20.673 -255.178)" style="fill:#ceb7aa"/>
                    <path data-name="패스 16465" d="M42.07 331.559c-2.776 2.75-7.347 1.941-11.134 1.208-2.972-.576-2.844-1.02-2.876-.989-.105-.057-2.722-1.525-1.4-9.014 1.154-6.518-3.235 1.81-3.092 10.411a20.59 20.59 0 0 1-6.669.131 6.719 6.719 0 0 1-3.007-1.4l-.017-.014c-.245-.219-2.987-2.87-.4-9.479 2.123-5.42-3.551 2.08-5.241 9.729-3.329.02-7.5-.878-8.154-4.816-1-6.056 6.911-14.89 12.326-18.29 3.756-2.36 8.917-2.348 11.727-2.117.436 1.975.995 4.155.995 4.155a44.063 44.063 0 0 1 4.209-4.788c1.493-1.254-2.514 3.839-2.579 6.079s2.915 3.463 2.648 6.589 2.306 6.857 2.306 6.857.815-4.412 2.445-6.384c1.012-1.223.271 1.508-.191 4.617a10.3 10.3 0 0 0 2.109 2.271 3.717 3.717 0 0 1 1.57 2.588 4.256 4.256 0 0 1-.607-.094 9.044 9.044 0 0 0 4.844 2.707c.063.014.123.031.183.043" transform="translate(0 -218.857)" style="fill:#e2cbbc"/>
                    <path data-name="패스 16466" d="M445.746 327.324c-.65 3.938-4.825 4.836-8.153 4.816-1.69-7.649-7.364-15.15-5.241-9.729 2.591 6.609-.151 9.259-.4 9.479l-.017.014a6.72 6.72 0 0 1-3.007 1.4 20.59 20.59 0 0 1-6.669-.131c.142-8.6-4.246-16.928-3.092-10.411 1.325 7.489-1.291 8.957-1.4 9.014-.031-.031.1.413-2.876.989-3.787.732-8.359 1.542-11.134-1.206l.185-.046a9.046 9.046 0 0 0 4.845-2.707 4.265 4.265 0 0 1-.607.094 3.72 3.72 0 0 1 1.567-2.588 10.114 10.114 0 0 0 2.112-2.271c-.462-3.109-1.2-5.842-.191-4.62 1.63 1.972 2.445 6.384 2.445 6.384s2.579-3.736 2.306-6.857 2.716-4.349 2.648-6.589-4.072-7.333-2.579-6.079a44.061 44.061 0 0 1 4.209 4.788s.559-2.177.992-4.152c2.81-.231 7.971-.242 11.727 2.117 5.415 3.4 13.323 12.234 12.326 18.29" transform="translate(-288.696 -218.857)" style="fill:#e2cbbc"/>
                    <path data-name="패스 16467" d="M457.42 369.163a14.667 14.667 0 0 1-4.09-1.066 1.2 1.2 0 0 1-.4-.331c.105-.057 2.722-1.525 1.4-9.014-1.154-6.518 3.235 1.81 3.092 10.41" transform="translate(-323.852 -254.846)" style="fill:#ceb7aa"/>
                    <path data-name="패스 16468" d="M508.146 368.461a14.766 14.766 0 0 1-3.958-.5 1.533 1.533 0 0 0-1.679.251c.245-.219 2.987-2.87.4-9.479-2.123-5.42 3.551 2.08 5.241 9.729" transform="translate(-359.249 -255.178)" style="fill:#ceb7aa"/>
                </g>
            </g>
        </g>
        <g data-name="그룹 19287">
            <path data-name="패스 15999" d="M1.337 0a1.212 1.212 0 0 0-1.2 1.084c-.948 8.879 3.512 13.569 3.7 13.765a1.213 1.213 0 0 0 1.741-1.691c-.164-.172-3.851-4.135-3.031-11.815A1.213 1.213 0 0 0 1.467.007C1.423 0 1.379 0 1.337 0" transform="rotate(173 132.97 264.88)" style="fill:#5b4e43"/>
            <path data-name="패스 16000" d="M.5 14.521a1.213 1.213 0 0 0 1.612-.169C8.1 7.723 7.242 1.308 7.2 1.038a1.213 1.213 0 0 0-2.4.346c.031.235.687 5.609-4.489 11.343A1.213 1.213 0 0 0 .4 14.439a1.129 1.129 0 0 0 .1.082" transform="rotate(162 41.605 288.535)" style="fill:#5b4e43"/>
            <path data-name="패스 16001" d="M.5 14.521a1.213 1.213 0 0 0 1.612-.169C8.1 7.723 7.242 1.308 7.2 1.038a1.213 1.213 0 0 0-2.4.346c.031.235.687 5.609-4.489 11.343A1.212 1.212 0 0 0 .4 14.439a1.121 1.121 0 0 0 .1.082" transform="rotate(162 37.888 286.325)" style="fill:#5b4e43"/>
            <path data-name="패스 16002" d="M1.337 0a1.212 1.212 0 0 0-1.2 1.084c-.948 8.879 3.512 13.569 3.7 13.765a1.213 1.213 0 0 0 1.741-1.69c-.164-.172-3.851-4.136-3.031-11.816A1.212 1.212 0 0 0 1.467.007 1.156 1.156 0 0 0 1.337 0" transform="rotate(173 137.25 264.901)" style="fill:#5b4e43"/>
        </g>
    </g>
</svg>
