<svg xmlns="http://www.w3.org/2000/svg" width="200" height="266" viewBox="0 0 200 266">
    <defs>
        <clipPath id="j7j0n0ea2a">
            <path data-name="사각형 21567" transform="translate(5)" style="fill:none" d="M0 0h200v266H0z"/>
        </clipPath>
    </defs>
    <g data-name="그룹 19109" style="clip-path:url(#j7j0n0ea2a)" transform="translate(-5)">
        <ellipse data-name="타원 165" cx="69.05" cy="12.103" rx="69.05" ry="12.103" transform="translate(32.659 230.846)" style="fill:#e5eaf2"/>
        <path data-name="패스 16003" d="M386.7 89.7c-1.029 6.268-4.729 13.664-11.942 14.4-10.282 1.045-11.84-12.715-2.286-14.937 13.3-3.093 16.613 14.7 15.169 24.246-2.468 16.314-18.877 23.452-18.117 23.178 13.215-4.767 22.24-20.578 19.7-34.28-1.075-5.806-4.254-11.539-10.044-13.784-4.581-1.776-9.954-.876-12.893 3.26a8.285 8.285 0 0 0 2.529 12.309c4.509 2.6 10.06.97 13.611-2.475 10.776-10.454 4.707-26.984-1.945-39.21-.382-.7 7.764 17.855 6.215 27.3" transform="translate(-184.657 -31.918)" style="fill:#878787"/>
        <path data-name="패스 16004" d="m351.025 21.307-.34.063c-.238.035-.367-.01-.606-.327a11.132 11.132 0 0 0-4.979-.582c-1.824.473-3.206 1.372-4.065 4.222l-.962-.283c.849-2.82 2.235-4.236 4.772-4.9a10.876 10.876 0 0 1 4.41.257c-1.278-2.05-3.936-6.2-6.093-6.654-2.96-.629-4.892 2.232-4.91 2.26l-.84-.545c.093-.142 2.338-3.457 5.961-2.687 2.676.568 5.533 5.166 6.905 7.376.182.292.367.59.5.786a.891.891 0 0 1 .16.121.583.583 0 0 1 .174.574z" transform="translate(-170.896 3.863)" style="fill:#6d5a4b"/>
        <path data-name="패스 16005" d="M368.3 15.074s-3.54-7.3-3.033-9.592S367.467.1 369.587 0s12.7 7.585 13.1 9.587-4.972 4.634-4.972 4.634 4.689-1.124 5.314 1.164-8.6 3.133-8.6 3.133z" transform="translate(-184.981 10.012)" style="fill:#f4d314"/>
        <path data-name="패스 16006" d="M365 28.665a3.2 3.2 0 0 1-1.926 4.127 3.258 3.258 0 0 1-4.171-1.905 3.205 3.205 0 0 1 1.926-4.127A3.259 3.259 0 0 1 365 28.665" transform="translate(-181.681 -3.578)" style="fill:#a9764c"/>
        <path data-name="패스 16007" d="M370.687 30.066a2.824 2.824 0 0 1 2.072-.755c1.181.125 7.5 8.266 6.886 9.052s-5.2-3.288-6.532-3.524-2.961-.52-3.158-1.413.732-3.36.732-3.36" transform="translate(-187.364 -4.98)" style="fill:#6d5a4b"/>
        <g data-name="그룹 19295">
            <path data-name="패스 16008" d="M308.578 102.981s-.17-3.365.584-3.493 1.844 3.11 1.844 3.11z" transform="translate(-151.7 -56.268)" style="fill:#1e1e1e"/>
            <path data-name="패스 16009" d="M292.837 129.435s-2.993-1.608-2.71-2.312 3.643.061 3.643.061z" transform="translate(-141.92 -70.893)" style="fill:#1e1e1e"/>
            <path data-name="패스 16010" d="M327.7 99.421s1.419-3.063 2.148-2.832.185 3.6.185 3.6z" transform="translate(-161.841 -54.713)" style="fill:#1e1e1e"/>
            <path data-name="패스 16011" d="M341.623 110.561s2.215-2.559 2.8-2.191-.937 3.394-.937 3.394z" transform="translate(-169.221 -61.002)" style="fill:#1e1e1e"/>
            <path data-name="패스 16012" d="M207.534 421.1s8.53 23.209 8.707 27.078-13.5 14.594-13.5 14.594l1.066 2.11h8s4.8-2.813 7.285-2.285 6.042 4.4 6.575 6.857-2.132 4.22-2.132 4.22H187.1l-4.684-4.923s7.7-6.857 1.13-21.364z" transform="translate(-84.845 -228.307)" style="fill:#303030"/>
            <path data-name="패스 16013" d="m182.415 512.427 4.684 4.923h36.428s2.665-1.759 2.133-4.22-4.087-6.33-6.575-6.857-7.285 2.286-7.285 2.286h-8l-1.066-2.11a11.813 11.813 0 0 1-7.435 1.843c-2.739-.35-6.792-3.6-9.119-5.54-.243 6.528-3.768 9.675-3.768 9.675" transform="translate(-84.845 -271.984)" style="fill:#fff"/>
            <path data-name="패스 16014" d="M259.733 182.036c13.112-21.451 23.279-29.539 23.989-32.88s-.888-28.836-.888-28.836c1.777-2.989 4.976-12.484 3.554-13.714s-3.554 1.231-4.8.176.355-4.22-2.31-5.275-3.38 5.539-4.665 5.539-2.309-4.331-4.556-4.014-2.569 7.625-3.532 9.214-4.169.268-4.49 2.492 8.022 3.862 8.022 7.675-9.633 20.436-9.633 20.436l-15.44-5.649-11.017 17.583z" transform="translate(-112.167 -57.289)" style="fill:#3d3d3d"/>
            <path data-name="패스 16015" d="M181.352 196.909s10.662 12.484 13.15 17.583 8.529 18.638 8.529 18.638-6.4 39.209-8.174 43.078-13.505 26.726-15.638 30.067-23.127 38.638-30.919 25.144c-.711-1.231-21.324-30.77-21.324-30.77l21.5-75.255L165 201.832z" transform="translate(-55.464 -108.383)" style="fill:#3d3d3d"/>
            <path data-name="패스 16016" d="m136.749 408.246-8.577 1.262-1.2 4.189s20.613 29.539 21.324 30.77c3.573 6.187 9.922 2.117 15.956-4.429 1.365-1.481-.769-13.591-3.144-17.651-6.035-10.314-24.361-14.142-24.361-14.142" transform="translate(-55.463 -221.431)" style="fill:#303030"/>
            <path data-name="패스 16017" d="M318.027 106.591c-1.421-1.231-3.554 1.231-4.8.176s.356-4.22-2.31-5.275-3.611 4.789-4.9 4.789-2.078-3.582-4.326-3.264-2.569 7.625-3.532 9.214-4.169.268-4.491 2.492 8.022 3.862 8.022 7.675c0 1.312 5.49 2.089 9.228 1.047a6.69 6.69 0 0 0 3.547-3.14c1.777-2.989 4.976-12.484 3.554-13.715" transform="translate(-143.805 -57.274)" style="fill:#fff"/>
            <path data-name="패스 16018" d="M312.243 127.983c-1.094-1.238 1.964-5.83 5.238-5.614s5.456 4.319 5.456 5.614-9.166 1.727-10.694 0" transform="translate(-153.531 -68.506)" style="fill:#e8c3ba"/>
            <path data-name="패스 16019" d="M0 489.063c0 4.8 10.348 2.756 19.125-.081a29.622 29.622 0 0 1-2.115-8.61C8.35 483.188 0 484.224 0 489.063" transform="translate(11.83 -260.013)" style="fill:#fff"/>
            <path data-name="패스 16020" d="M64.35 416.62s-7.859 17.032-16.65 23.98a36.748 36.748 0 0 1-11.505 5.667 29.622 29.622 0 0 0 2.115 8.61 86.241 86.241 0 0 0 10.228-3.963c8.351-4.081 23.365-20.964 23.365-20.964z" transform="translate(-7.35 -225.91)" style="fill:#303030"/>
            <path data-name="패스 16021" d="M115.355 192.307s1.812 23.993 3.144 28.457-10.484 32.355-13.861 39.807-14.749 25.914-15.1 28.2 7.462 20.923 12.08 33.055a14.332 14.332 0 0 1-5.153 9.847l12.435 19.516h15.637s3.2-5.978 0-9.495-7.641.176-7.641.176l-3.372-3.87s19.192-8.088 22.39-12.484 2.31-17.761-.888-23.914-18.125-13.89-18.125-13.89 29.8-47.184 30.718-60.006.906-17.485-.489-29.667l-18.856-15.122z" transform="translate(-35.615 -100.9)" style="fill:#3d3d3d"/>
            <path data-name="패스 16022" d="M116.123 495.682c-3.387-3.48-6.677-14.093-6.677-14.093a14.329 14.329 0 0 1-5.153 9.847l12.439 19.517h15.637s3.2-5.979 0-9.5-7.64.176-7.64.176l-3.377-3.869s-1.842 1.4-5.228-2.084" transform="translate(-43.442 -260.663)" style="fill:#fff"/>
            <path data-name="패스 16023" d="M218.058 188.091s4.226 6.249 2.433 32.081c0 0-18.784-17.671-35.486-19.3z" transform="translate(-86.218 -103.666)" style="fill:#f9f7f4"/>
            <path data-name="패스 16024" d="M208.964 90.817s17.009-12.77 17.734-12.243.415 14.762.415 15.289-4.442 9.847-4.442 9.847z" transform="translate(-98.915 -45.075)" style="fill:#e8c3ba"/>
            <path data-name="패스 16025" d="M226.551 78.6c-1.864.5-17.587 12.238-17.587 12.238l4.591 4.318L226.7 78.593z" transform="translate(-98.915 -45.093)" style="fill:#343535"/>
            <path data-name="패스 16026" d="M146.128 99.571a49.959 49.959 0 0 1 17.982-3.5s10.275 1.589 17.661 13.98c0 0 6.743 3.177 8.028 6.673s-1.606 14.615-1.606 14.615l-4.689 6.989s-11.689 6.682-17.928 9.143c0 0-18.856.7-30.228-2.462 0 0-11.018-23.209-11.018-24.616s6.4-31.649 8.174-32 13.625 11.174 13.625 11.174" transform="translate(-54.061 -50.333)" style="fill:#3d3d3d"/>
            <path data-name="패스 16027" d="M134.786 106.957c1.947-3.276 11.342-7.386 11.342-7.386S134.28 88.045 132.5 88.4s-8.174 30.594-8.174 32a28.58 28.58 0 0 0 1.724 4.445l7.517-6.878s-.732-7.732 1.216-11.008" transform="translate(-54.061 -50.333)" style="fill:#343535"/>
            <path data-name="패스 16028" d="M138.714 88.332s-2.665 20.139-2.665 22.554 3.732 7.015 3.732 7.015 4.681-14.253 12.558-18.394c0 0-10.6-12.229-13.625-11.174" transform="translate(-60.272 -50.268)" style="fill:#e8c3ba"/>
            <path data-name="패스 16029" d="M235.582 153.637c-.634-1.958-3.593-4.1-4.761-5.131s-6.241-4.385-8.159-4.016c-1.659.319-8.939 11.2-9.027 12.581s8.52 8.567 10 8.961 11.155-4.209 11.155-4.209 1.425-6.228.792-8.185" transform="translate(-101.391 -80.327)" style="fill:#fff"/>
            <path data-name="패스 16030" d="m229.575 153.646 7.973-1.663s-.1 4.258-1.733 4.916-6.24-3.253-6.24-3.253" transform="translate(-109.839 -84.351)" style="fill:#e79b8a"/>
            <path data-name="패스 16031" d="m230.833 175.118-.8-.7 5.987-6.739 3.848 3.534-.725.774-3.046-2.8z" transform="translate(-110.08 -92.749)" style="fill:#e79b8a"/>
            <path data-name="패스 16032" d="M242.182 164.038h-1.066l-.533-4.58h1.067z" transform="translate(-115.672 -88.349)" style="fill:#e79b8a"/>
            <path data-name="패스 16033" d="M200.361 143.792a7.2 7.2 0 1 1-7.2-7.121 7.159 7.159 0 0 1 7.2 7.121" transform="translate(-86.728 -76.16)" style="fill:#64bfd8"/>
            <path data-name="패스 16034" d="M202.608 143.907a5.331 5.331 0 1 1-5.331-5.275 5.3 5.3 0 0 1 5.331 5.275" transform="translate(-89.897 -77.209)" style="fill:#2f261d"/>
            <path data-name="패스 16035" d="M240.845 132.415c1.381 2.009 1.571 4.263.424 5.034s-3.2-.231-4.577-2.24-1.571-4.263-.424-5.034 3.2.231 4.577 2.24" transform="translate(-112.989 -72.546)" style="fill:#64bfd8"/>
            <path data-name="패스 16036" d="M242.161 132.7c1.023 1.488 1.164 3.157.314 3.729s-2.367-.171-3.39-1.659-1.164-3.158-.314-3.729 2.367.172 3.39 1.659" transform="translate(-114.418 -73.044)" style="fill:#2f261d"/>
            <path data-name="패스 16037" d="m196.358 153.432-2.843 4.316 3.649.776z" transform="translate(-90.728 -85.126)" style="fill:#fff"/>
            <path data-name="패스 16038" d="m243.163 138.632-.729 2.4 1.441.44z" transform="translate(-116.653 -77.209)" style="fill:#fff"/>
            <path data-name="패스 16039" d="M174.728 233.021s-14.364 11.465-18.356 10.6-6.97-16.991-7.364-20.137 11.389-33.35 14.737-35.325 14.12 3.6 14.78 5.545-2.792 7.675-2.792 7.675-5.4 3.15-8.383 1.782c0 0 4.851 15.812 9.471 20.414a22.236 22.236 0 0 1-2.092 9.446" transform="translate(-67.134 -103.479)" style="fill:#494949"/>
            <path data-name="패스 16040" d="M189.316 201.379s3.452-5.731 2.791-7.675-11.433-7.519-14.78-5.545c-.64.377-1.589 1.787-2.7 3.842 2.112.949 3.119 2.331 4.392 4.757a26.65 26.65 0 0 1 1.914 6.4c2.987 1.368 8.383-1.782 8.383-1.782" transform="translate(-80.717 -103.479)" style="fill:#fff"/>
        </g>
    </g>
</svg>
