<svg xmlns="http://www.w3.org/2000/svg" width="230" height="196" viewBox="0 0 230 196">
    <defs>
        <clipPath id="gze85ijcva">
            <path data-name="사각형 21566" style="fill:none" d="M0 0h210.248v184.495H0z"/>
        </clipPath>
    </defs>
    <g transform="translate(-24 -435)">
        <ellipse data-name="타원 162" cx="105.869" cy="21" rx="105.869" ry="21" transform="translate(42.262 589)" style="fill:#e5eaf2"/>
        <g data-name="그룹 19108">
            <g data-name="그룹 19107" transform="translate(24 435)" style="clip-path:url(#gze85ijcva)">
                <path data-name="패스 15979" d="M253.268 253.548c-5.426-.91-16.126-10.917-16.126-10.917l-12.359 19.332h41.628c.706-2.305 1.375-4.61 1.971-6.916-7.17-.71-13.359-1.2-15.114-1.5" transform="translate(-85.673 -91.575)" style="fill:#262626"/>
                <path data-name="패스 15980" d="M314.776 265.32c-5.674-1.137-13.692-2.046-20.757-2.746-.6 2.305-1.265 4.61-1.971 6.916h29.51s-.41-2.893-6.782-4.169" transform="translate(-111.31 -99.102)" style="fill:#fff"/>
                <path data-name="패스 15981" d="m139.366 98.945-54.86 19.833L105.3 211.3h39.935c.969-20.511 6.074-40.832 13.791-59.774z" transform="translate(-32.208 -37.345)" style="fill:#3d3d3d"/>
                <path data-name="패스 15982" d="M111.052 245.351h39.935c.969-20.512 3.541-34.178-2.007-56.176 0 0-5.91 35.5-18.062 35.5s-21.675-20.566-21.675-20.566l-9.656 15.075z" transform="translate(-37.957 -71.399)" style="fill:#303030"/>
                <path data-name="패스 15983" d="M221.532 209.205c-5.727-8.339-22.306-18.346-22.306-18.346l-2.792-7.465c-7.718 18.943-12.823 39.263-13.792 59.775h34.67s9.947-25.624 4.22-33.963" transform="translate(-69.612 -69.218)" style="fill:#303030"/>
                <path data-name="패스 15984" d="M80.9 142.051s-4.823 34.872-4.22 39.725 11.756 42.454 11.756 42.454a19.081 19.081 0 0 0-3.334 4.332c-.993 1.88-.434 5.338 1.038 6.989 3.333 3.74 18.67 3.487 20.512-1.466s-.13-21.076-6.158-30.779v-16.982l-9.646-44.273z" transform="translate(-29.206 -53.614)" style="fill:#3d3d3d"/>
                <path data-name="패스 15985" d="M175.794 106.007s20.049 48.064 20.046 58.525c0 9.118-10.2 46.093-10.2 46.093a19.106 19.106 0 0 1 3.335 4.333c.992 1.88.433 5.337-1.038 6.988-3.333 3.74-18.67 3.488-20.512-1.466s-1.076-21.075 4.953-30.779c0 0-.135-5.7 1.555-26.08 2.311-27.89-8.082-57.614-8.082-57.614z" transform="translate(-63.21 -40.01)" style="fill:#3d3d3d"/>
                <path data-name="패스 15986" d="M93.1 142.051h-9.948s-.244 1.771-.616 4.559a46.783 46.783 0 0 0 12.314 3.476z" transform="translate(-31.458 -53.614)" style="fill:#303030"/>
                <path data-name="패스 15987" d="M175.794 106.007h-9.947l5.129 19.409a137.292 137.292 0 0 0 7.269-13.425c-1.495-3.692-2.451-5.984-2.451-5.984" transform="translate(-63.21 -40.01)" style="fill:#303030"/>
                <path data-name="패스 15988" d="M215.217 276.279h14.77c3.165 0 4.521-1.819 4.973-5.458s-3.365-7.712-10.248-7.733c-7.31-.022-12.372 10.159-12.372 10.159a13.193 13.193 0 0 0 2.876 3.032" transform="translate(-80.931 -99.296)" style="fill:#3d3d3d"/>
                <path data-name="패스 15989" d="m94.035 130.9 38.875 27.32 9.665-47.494-.537-7.9-50.705 21.93z" transform="translate(-34.81 -38.812)" style="fill:#f9f7f4"/>
                <path data-name="패스 15990" d="M131.221 16.645S144.4-.279 148.113 0s10.16 19.909 8.988 27.9l-13.468 1.6z" transform="translate(-50.013 -.001)" style="fill:#e8c3ba"/>
                <path data-name="패스 15991" d="M147.84 0c-3.712-.283-17.334 17.66-17.334 17.66l8.511 7.34c1.366-5.905 4.71-18.954 8.824-25" transform="translate(-49.741 -.001)" style="fill:#303030"/>
                <path data-name="패스 15992" d="M54.155 60.54s-22.481.656-24.387 3.872S40.1 84.23 47.272 87.866l9.053-10.158z" transform="translate(-11.27 -22.85)" style="fill:#e8c3ba"/>
                <path data-name="패스 15993" d="M29.89 64.413c1.91-3.213 24.387-3.872 24.387-3.872l1.012 11c-5.586-2.275-18.117-7.036-25.4-7.132" transform="translate(-11.392 -22.85)" style="fill:#303030"/>
                <path data-name="패스 15994" d="M128.366 38.706c1.391 1.358 13.31 21.784 11.862 28.348s-16.063 23.077-16.063 23.077-3.2 9.187-8.1 11.744-14.208-.1-14.208-.1-21.835 2.518-28-.07S57.944 77.557 57.64 75.631c-3.666-7.107-1.06-27.981 23.766-40.943s43.294-3.089 46.96 4.018" transform="translate(-21.458 -10.709)" style="fill:#3d3d3d"/>
                <path data-name="패스 15995" d="M148.462 95.462s-1.245-2.083-1.061-3.375 10.025-16.026 10.025-16.026v3.532s-8.358 11.282-8.646 12.372a20.747 20.747 0 0 0-.318 3.5" transform="translate(-56.173 -28.708)" style="fill:#262626"/>
                <path data-name="패스 15996" d="M108.972 119.189s-.977-2.223-2.132-2.816-18.667-.856-18.667-.856l2.74 1.911s13.982-.382 15.033.009a20.521 20.521 0 0 1 3.026 1.751" transform="translate(-33.606 -43.599)" style="fill:#262626"/>
                <path data-name="패스 15997" d="m143.265 131.294-2.3-4.455-1.07.558 2.3 4.455-4.609 6.455 5.637-5.779 7.942-1.311z" transform="translate(-52.439 -47.873)" style="fill:#262626"/>
                <path data-name="패스 15998" d="m137.1 121.265-4.348 2.27s2.66 4.334 6.673 2.239 2.018-6.774 2.018-6.774z" transform="translate(-50.595 -44.912)" style="fill:#e79b8a"/>
                <path data-name="패스 15999" d="M15.023 64.727a1.208 1.208 0 0 1-1.2-1.084c-.942-8.879 3.491-13.569 3.68-13.765a1.2 1.2 0 0 1 1.706-.021 1.219 1.219 0 0 1 .025 1.712c-.163.172-3.828 4.135-3.013 11.815a1.211 1.211 0 0 1-1.071 1.335c-.043 0-.087.007-.129.007" transform="translate(-5.219 -18.688)" style="fill:#5b4e43"/>
                <path data-name="패스 16000" d="M197.638 52.6a1.2 1.2 0 0 1 1.6.169c5.947 6.629 5.1 13.044 5.059 13.314a1.206 1.206 0 1 1-2.386-.346c.031-.235.683-5.609-4.462-11.343a1.218 1.218 0 0 1 .087-1.713 1.122 1.122 0 0 1 .1-.082" transform="translate(-75.137 -19.765)" style="fill:#5b4e43"/>
                <path data-name="패스 16001" d="M208.19 43.823a1.2 1.2 0 0 1 1.6.169c5.947 6.629 5.1 13.044 5.059 13.314a1.206 1.206 0 1 1-2.387-.346c.031-.235.683-5.609-4.462-11.343a1.217 1.217 0 0 1 .087-1.713 1.115 1.115 0 0 1 .1-.082" transform="translate(-79.159 -16.453)" style="fill:#5b4e43"/>
                <path data-name="패스 16002" d="M1.329 65.628a1.208 1.208 0 0 1-1.2-1.084c-.942-8.879 3.491-13.569 3.68-13.765a1.2 1.2 0 0 1 1.706-.021 1.218 1.218 0 0 1 .025 1.711c-.163.172-3.828 4.136-3.013 11.816a1.211 1.211 0 0 1-1.069 1.335 1.142 1.142 0 0 1-.129.007" transform="translate(0 -19.028)" style="fill:#5b4e43"/>
            </g>
        </g>
    </g>
</svg>
