<svg xmlns="http://www.w3.org/2000/svg" width="200" height="266" viewBox="0 0 200 266">
    <defs>
        <clipPath id="iapetff4ta">
            <path data-name="사각형 21628" style="fill:none" d="M0 0h168.164v242.043H0z"/>
        </clipPath>
    </defs>
    <path data-name="사각형 21652" style="fill:transparent" d="M0 0h200v266H0z"/>
    <g data-name="그룹 19288" transform="translate(0 -367.415)">
        <ellipse data-name="타원 162" cx="72.5" cy="12.707" rx="72.5" ry="12.707" transform="translate(23.87 608)" style="fill:#e5eaf2"/>
        <g data-name="그룹 19251">
            <g data-name="마스크 그룹 31" style="clip-path:url(#iapetff4ta)" transform="translate(8 385.198)">
                <path data-name="패스 16375" d="M466.676 82.065c1.137-1.143 1.208-1.375.83.173s1.4 4.784 1.006 2.851a10.673 10.673 0 0 1 .578-4.654c-.7.418-.036.052-1.313-.059a.542.542 0 0 0-.072 0c-1.235 1.339-1.8 2.472-1.029 1.692" transform="translate(-352.638 -60.779)" style="fill:#e2cbbc"/>
                <path data-name="패스 16376" d="M517.257 68.77c.392 1.114 2.41.666 5.474 2.247a11.985 11.985 0 0 1 2 1.3 5.263 5.263 0 0 0-.578-4.079c-1.176-1.972-2.554-3.615-4.572-3.337a11.224 11.224 0 0 0-1.584.32s-1.123 2.436-.735 3.55" transform="translate(-391.094 -49.055)" style="fill:#1e1e1e"/>
                <path data-name="패스 16377" d="M430.641 91.837a.059.059 0 0 1 0 .016c0 .01-.007.026-.013.046l-.023.085a5.21 5.21 0 0 1-.281.718 1.012 1.012 0 0 1-.059.121 5.681 5.681 0 0 1-.3.532c-.056.091-.117.186-.189.284s-.157.216-.245.323a.235.235 0 0 1-.031.038 6.026 6.026 0 0 1-.484.535 5.676 5.676 0 0 1-.588.5c-.092.069-.186.14-.287.209a6.58 6.58 0 0 1-.206.134 6.567 6.567 0 0 1-.754.405c.271.637.549 1.323.82 2.071 1.385 3.87 1.5 5 1.551 2.221s1.345-6.777 2.482-7.488 1.042-.794.222-1.515-2.306-5.457.9-7.939c-1.7.519-2.391-.359-2.391-.359a2.1 2.1 0 0 0-1.342 1.1c-1.529 2.42-.343 3.893-2.136 2.913-1.411-.767-2.159 0-2.368 1.443a6.617 6.617 0 0 1 2.975.8h.007l.144.078c.15.085.307.18.457.284a5.312 5.312 0 0 1 2.142 2.443" transform="translate(-321.326 -62.592)" style="fill:#ceb7aa"/>
                <path data-name="패스 16378" d="M269.9 40.817c2.835 2.322 6.509 4.957 9.059 5.66a2.183 2.183 0 0 1 1.819 2.172 10.8 10.8 0 0 0 .122-1.749s1.058.843 2.25 1.721a3.25 3.25 0 0 0 .614.353c1.163.523 2.61.526 2.734.709.15.219.542 3.475.767 2.73s.209-3.155.725-1.5a7.083 7.083 0 0 1-.007 3.508s-.34 1.068-1.218 3.037-.493 2.218-1.284 1.267-.731-.728-1.316.81-1.137.712-2.518-.931-1.5-4.229-2.126-3.325-2.27-2.769-2.845-2.5-1.561-3.429-4.99-8.246c-2.4-3.364-3.779-4.455-3.841-4.905a4.32 4.32 0 0 1 2.054 1.2m10.879 7.841c-.007.056-.02.108-.029.163-.065.33.026.183.029-.163" transform="translate(-202.548 -29.963)" style="fill:#f7e7dc"/>
                <path data-name="패스 16379" d="M307.85 16.515a2.183 2.183 0 0 1 1.819 2.172 10.78 10.78 0 0 0 .121-1.747s1.058.843 2.25 1.721a3.257 3.257 0 0 0 .614.353 32.33 32.33 0 0 1 7.443-7.56l.14-.088c-1.058-1.12-2.528-2.371-3.109-2.279-.895.144-1.029-2.433-1.711-1.751s-.117.327-2.051-1.561-6.159-9.343-7.106-3.7 1.591 14.438 1.591 14.438" transform="translate(-231.438)" style="fill:#ceb7aa"/>
                <path data-name="패스 16380" d="M471 112.6c.412-1.391.562-1.172 1.378 1.261s3.233 6.055 2.286 3.38a21.022 21.022 0 0 1-.911-7.427c.137-.888.464 1.127 2.4 4.281s3.04 3.792 1.47 1.293-1.443-6.577-1.443-6.577c0-.3.663-4.213-.647-3.4s-2.92 3.168-3.152 2.025.013-1.574-1.414 1.065-.379 5.49.036 4.1" transform="translate(-355.601 -79.629)" style="fill:#e2cbbc"/>
                <path data-name="패스 16381" d="M424.671 106.463c0 .088.01.176.02.261a.888.888 0 0 0 .01.095 1.1 1.1 0 0 0 .013.111c.007.039.01.075.016.111q.025.162.059.323c.02.095.046.189.069.284v.013c.059.226.127.454.209.686.042.121.085.238.131.359a.92.92 0 0 1 .033.088c.026.059.049.121.075.183.059.154.127.307.193.464s.137.314.209.474v.007l.523 1.13c.238.516.49 1.065.745 1.656a6.628 6.628 0 0 0 .755-.4l.01-.01a.04.04 0 0 1 .007-.01.48.48 0 0 0 .078-.091c.059-.075.137-.183.232-.32.033-.052.069-.1.1-.163a6.445 6.445 0 0 0 .346-.65 4.36 4.36 0 0 0 .114-.258 5.707 5.707 0 0 0 .2-.591c.026-.091.049-.186.072-.284a.012.012 0 0 1 0-.01c.02-.1.039-.206.055-.31a4.241 4.241 0 0 0 .042-.869c0-.046-.006-.088-.01-.134l-.01-.095a1.264 1.264 0 0 0-.02-.15 3.855 3.855 0 0 0-.144-.611c-.02-.059-.039-.121-.062-.18s-.042-.108-.065-.16a4.37 4.37 0 0 0-.771-1.2c-.046-.052-.095-.1-.144-.157a.27.27 0 0 0-.042-.046.627.627 0 0 0-.046-.046 6.617 6.617 0 0 0-2.975-.8 6.715 6.715 0 0 0-.052 1.306" transform="translate(-321.133 -79.52)" style="fill:#683512"/>
                <path data-name="패스 16382" d="M437.16 114.774a6.111 6.111 0 0 0 2.706-3.53 5.3 5.3 0 0 0-2.143-2.444 5.736 5.736 0 0 0-.608-.367c2.832 2.845.257 6.141.046 6.342" transform="translate(-330.55 -81.997)" style="fill:#4c280b"/>
                <path data-name="패스 16383" d="M295.858 131.426c.065.15.1 2.531.314 5.895 1.525 1.558 2.933 3.341 3.71 3 1.375-.588 1.127 1.251 3.459 4.242s1.274 1.378-.3-1.891 1.629-5.16-.029-4.736-3.877-.846-3.08-1.166-2.681-.65-1.205-1.061.32.023-2.168-3.279q-.323-.436-.7-1.009" transform="translate(-223.731 -99.386)" style="fill:#e2cbbc"/>
                <path data-name="패스 16384" d="M407.065 77.137c1.137 4.549 1.4 8.031 1.473 4.157s-.431-5.339.3-5.3-.5-1.986.327-2.28.571-3.609 2.72-4.2 1.659-1.11 1.316-1.5 1.336-.761.2-1.489c-.209-.137-2.547-1.774-4.294-.957s.121 3.658-.154 4.357-1.934-.33-1.848 1.711-1.176.95-.039 5.493" transform="translate(-307.466 -49.417)" style="fill:#f7e7dc"/>
                <path data-name="패스 16385" d="M425.208 115.292a.224.224 0 0 0 .056.042 1.472 1.472 0 0 0 .434.255 1.547 1.547 0 0 0 1.159.007 1.364 1.364 0 0 0 .519-.369 1.594 1.594 0 0 0-2.387-2.1 1.235 1.235 0 0 0-.144.2 1.558 1.558 0 0 0 .363 1.963" transform="translate(-321.118 -85.189)" style="fill:#1e1e1e"/>
                <path data-name="패스 16386" d="M427.068 123.686a.967.967 0 0 0 .728.248.8.8 0 0 0 .519-.255.835.835 0 0 0 .118-.869 1.055 1.055 0 0 0-.271-.369.912.912 0 0 0-1.1-.121.544.544 0 0 0-.147.128 1.106 1.106 0 0 0-.075.1.906.906 0 0 0 .229 1.14" transform="translate(-322.694 -92.4)" style="fill:#fff"/>
                <path data-name="패스 16387" d="M425.208 117.394a1.558 1.558 0 0 1-.363-1.963c.059.225.127.454.209.686.042.121.085.238.131.359a.926.926 0 0 1 .033.088c.026.059.049.121.075.183.059.153.128.307.193.464s.137.314.209.473v.007l.523 1.13a.968.968 0 0 1-.728-.248.907.907 0 0 1-.228-1.14.224.224 0 0 1-.056-.042" transform="translate(-321.118 -87.29)" style="fill:#efdaca"/>
                <path data-name="패스 16388" d="M.448 153.311c1.649.9 2.919 2.041 1.858-.082s-2.286-8.164-1.714-9.96c.186-.581.252-.787.4-.568.238 5.114 3.566 9.9 2.456 10.15-1.2.271 0 .216 7.24 6.094s12.789 7.567 13.116 8 2.724.98 2.724 2.4 1.959 2.394 8.38 2.394 6.532.327 9.909-1.414 4.9-4.138 5.66-2.939 1.088-3.592 2.286-2.831.434-.546 1.525-7.838 10.124-28.194 11.146-33.531 7.25-15.892 8.991-16.875 1.744-10.447 2.12-10.559-1.355-3.374-.7-3.266 0 0-.98-4.572-1.8-16.548-1.8-16.548c-.3-2.521-.5-4.964-.624-7.031 1.525 1.558 2.933 3.341 3.71 3 1.375-.588 1.127 1.251 3.459 4.242s1.274 1.378-.3-1.891 1.629-5.16-.029-4.736-3.876-.846-3.08-1.166-2.681-.65-1.205-1.061.32.023-2.169-3.279q-.323-.436-.7-1.009v-.007c-2.547-3.965-6.313-12.485-7.077-17.3-.559-3.507-.608-5.095.248-5.078.062.451 1.443 1.541 3.841 4.905 3.429 4.817 4.412 8.511 4.99 8.246s2.221 3.41 2.845 2.5.745 1.682 2.126 3.325 1.933 2.472 2.518.931.526-1.763 1.316-.81.408.7 1.284-1.267 1.218-3.037 1.218-3.037a7.084 7.084 0 0 0 .006-3.507c-.516-1.653-.5.761-.725 1.5s-.617-2.512-.767-2.73c-.124-.183-1.571-.186-2.734-.709a32.325 32.325 0 0 1 7.443-7.561l.14-.088c4.275-2.734 6.208-2.456 6.208-2.456A21.493 21.493 0 0 0 92.039 38c-1.274 1.447 1.793-1.163 4-2.214s1.829-1.3 1.323.052 2.257-1.4 1.783.307 2.681.454 5.692.536c2.707.072 6.215 1.822 6.9 2.178-.291-.121-1.137-.3-2.857.522-2.208 1.052-.49 4.448.823 6.46.894 1.368.532.6-.271.735a2.1 2.1 0 0 0-1.343 1.1c-1.528 2.42-.343 3.893-2.136 2.913-1.411-.767-2.159 0-2.368 1.443a6.716 6.716 0 0 0-.052 1.306c0 .088.01.176.02.261 0 .033.007.062.01.095a1.041 1.041 0 0 0 .013.111l.016.111q.025.162.059.323c.019.095.045.189.068.284v.013a1.559 1.559 0 0 0 .363 1.963.228.228 0 0 0 .055.042.907.907 0 0 0 .229 1.14.967.967 0 0 0 .728.248c.238.516.49 1.065.745 1.656.271.637.549 1.323.82 2.071 1.385 3.87 1.5 5 1.551 2.221s1.345-6.777 2.482-7.488 1.042-.794.222-1.515-2.306-5.457.9-7.939a6.837 6.837 0 0 1 3.24-.944c-1.235 1.339-1.8 2.472-1.029 1.692 1.136-1.143 1.208-1.375.829.173s1.4 4.785 1.006 2.851a10.675 10.675 0 0 1 .578-4.654c.127-.075.3-.18.539-.314 1.538-.872 5.964-2.884 7.74-2.861a6.019 6.019 0 0 0 2.169-.317s-1.123 2.436-.735 3.55 2.41.666 5.474 2.247a12 12 0 0 1 2 1.3 16.411 16.411 0 0 1 4.965 7.042c1.424 3.733 1.068 5.3 1.068 5.3a6.384 6.384 0 0 0-1.63-2.717c-1-.712 2.152 2.319 1.46 5.735s-1.639 5.751-1.672 6.666a8.432 8.432 0 0 0 .487 3.566c.539 1.333-.833.235-1.911-2.368-.444-1.065-.6-1.577-.64-1.679a9.581 9.581 0 0 1 .186 1.737 4.811 4.811 0 0 1-.807 2.988 3.053 3.053 0 0 0-.17-2.59c-.748-1.29.33 1.6-.878 2.975s-.4-.134-2.208.373a14.407 14.407 0 0 1-3.09.536 4.5 4.5 0 0 0 .621-1.725c.124-.963-.291.816-1.208 1.721s-2.08.265-3.827 1.378a14.429 14.429 0 0 0-1.963 1.355 8.028 8.028 0 0 0-.817-2.087c-.673-1.277-.846 1.737-.63 2.955.121.7.046.4-.771.314a4.57 4.57 0 0 0-1.182.039 9.51 9.51 0 0 0-2.041.585 19.913 19.913 0 0 1-6.885 1.548s-1.554.271-.656 1.169 3.429 5.771 2.831 9.582-1.091 3.971-.6 3.808.764 3.214 1.306 2.342 1.744 3.484 2.939 4.843.928 1.143 1.417.327c.356-.594 2.914 1.137 4.272 2.116.245.444.5.9.748 1.359 1 1.835 2.015 3.746 2.818 5.562a17.092 17.092 0 0 1-7.567-1.146c-6.532-2.394.526 1.525 3.828 3.1a15.972 15.972 0 0 0 4.908 1.163 34.321 34.321 0 0 1 8.138 1.613c4.951 1.852 12.845 2.884 16.055 5.17s5.01 4.409 8.655 6.2a23.085 23.085 0 0 1 2.714 1.6c2.962 2.015 5.843 4.807 6.215 6.675.49 2.45-2.07 4.736-5.281 5.931a12 12 0 0 1-1.225.385c-.565-5.088-5.222-7.407-3.511-4.915 1.878 2.734.082 4.491 0 4.912 0 0-2.179 2.178-6.695 2.286s-7.022-.6-8.22-1.8 1.417 3.811 1.417 3.811a12.3 12.3 0 0 1-5.173-3.756c-1.741-2.5 1.143 2.828.545 3.318s-3.047-1.2-4.68-4.246 1.251 3.919 1.143 4.683-2.724.271-5.01.327a8.72 8.72 0 0 1-3.4-.454 4.288 4.288 0 0 1-1.44-.908c-1.088-1.035-2.341-3.158-4.19-5.608s2.665 5.01 2.776 5.934-2.831-1.47-5.281-2.832 1.505 2.234 1.541 2.724-3.883-.98-5.95-.49a25.118 25.118 0 0 1-7.348.924c-2.72-.163-3.537-2.557-5.17-5.007s1.143 4.027 1.032 4.409-3.7-2.668-5.659-6.316.108 2.668 0 3.321-3.812-3.158-5.062-5.389-1.47-3.537-1.852-2.449-2.23-2.884-3.971-5.934-.055 5.715 3.21 11.1 1.47 6.532 3.266 5.389 4.409 6.042 5.226 4.9 7.185 6.858 6.695 11.431 1.306 6.368-1.307 5.225-1.45 5.388-2.358 4.245-.663 4.327-5.48 9.063-7.267 13.717-7.512 10.859.9-7.43-.408-4.409a23.268 23.268 0 0 0-1.633 6.7c0 .245-2.368-1.306-3.674-4.736s.816 6.124 1.8 7.756.9.98.163 1.225 3.8 9.053 4.239 10.588l.01.039a27.4 27.4 0 0 0 2.364 6.518c1.388 2.368-1.225-.571-.653.9a23.415 23.415 0 0 0 2.2 3.756 4.25 4.25 0 0 1-1.878-.408c-1.224-.49-.49-.326-.979 3.021s-4.083 10.042-3.919 8.491-1.225 3.837-1.715 1.96-1.061 1.061-5.144 3.756-5.8 5.062-6.042 3.1-1.388 2.286-1.959 1.143 0 0-.9 3.756-.108 9.282 2.939 9.389 6.042 3.485 7.73 6.205-1.2 5.225-5.826 5.336c-.643.016-1.225.007-1.741-.023-.216-4.249-3.759-8.331-2.995-5.692a4.3 4.3 0 0 1-1.088 4.68 3.711 3.711 0 0 1-3.047 1.47c-2.234.108-9.745.163-12.139-3.047a29.016 29.016 0 0 0-5.823-5.99 1.835 1.835 0 0 1-.49-.679c-.921-2.038-.4-6.816-.872-6.342-.545.545 0-4.624-.98-3.429s-.434.49.056-1.577-.927-2.286-.764-3.975 1.525-3.1.111-2.5-1.525 1.2-.872-.928 7.077-6.421 3.321-5.441-5.388 3.7-5.173 2.665 4.9-5.879 3.1-4.516a12.288 12.288 0 0 0-2.776 2.939s-.216-.98-.49-2.342-1.306-1.633-.653-2.557 2.561-2.015 1.418-2.123-1.8.49-1.581 0 3.811-3.811 3.214-3.7a10.274 10.274 0 0 0-2.286 1.414c-.6.382.163-1.852-2.015-5.66-.036-.062-.071-.127-.108-.19a19 19 0 0 1-2.178-9.392c0-1.96-2.394.219-1.414-1.685s2.123-5.225 1.2-3.592a19.931 19.931 0 0 1-2.992 3.592 10.881 10.881 0 0 0 .382-3.592c-.049-2.4-1.091-1.091.379-3.276s2.394-4.02.49-1.842-2.831 2.394-1.741.816 1.685-5.823.379-10.451.709-9.608-1.169-6.669-1.47 5.552-3.184 2.858-.081-7.185-.653-5.715a28.437 28.437 0 0 0-.9 5.225 4.534 4.534 0 0 1-2.2-3.184c-.164-2.041-2.45-1.061-2.613-1.878s1.715-4.246-.245-2.2-.98.816-.98-.653-.163-1.143-1.633-2.041-5.633-4.49-6.858-4.735-.9-1.143-1.878-1.715-3.1-.98-.49-1.47 1.388-.653-1.388-1.633-6.7-5.388-6.45-5.633-1.8-1.47-.735-1.8.572-.082-.816-1.633-4.734-5.693-3.086-4.795M115.4 59.366c.411-1.391.562-1.173 1.378 1.26s3.233 6.055 2.286 3.38a21.02 21.02 0 0 1-.911-7.426c.137-.888.464 1.127 2.4 4.281s3.041 3.792 1.47 1.293-1.443-6.577-1.443-6.577c0-.3.663-4.213-.647-3.4s-2.92 3.168-3.152 2.025.013-1.574-1.414 1.065-.379 5.49.036 4.1M104.419 46.5c2.149-.591 1.659-1.11 1.316-1.5s1.336-.761.2-1.489c-.209-.137-2.547-1.773-4.295-.957s.121 3.658-.153 4.357-1.933-.33-1.849 1.711-1.176.951-.039 5.493 1.4 8.031 1.472 4.157-.431-5.34.3-5.3-.5-1.986.326-2.28.572-3.609 2.72-4.2m-21.173 59.817a34.035 34.035 0 0 1 8.057 2.178c3.537 1.417 3.974 1.2 4.464 1.035s2.558.327 2.338 0 4.791 0 8.491 0 1.417-.6-.653-2.231-7.022-1.907-6.91-2.286-2.724-.327-2.887-.764-2.394-.163-4.843-1.032-9.745.96-10.069 1.032c-1.574.353-.274 1.688 2.012 2.067m-21.009 134.61c1.225-1.225 7.266-3.347 11.1-6.532s4.9-5.8 4.981-7.593 2.368-1.388 2.2-3.1 1.633.98 1.47-1.715-3.674-9.8-3.674-9.8c-.581-1.215-2.449-3.266-2.2 0s-.082 6.858-.9 7.266-.98 2.531-1.633 2.449-.572.98-1.891 3.592-4.233 6.695-6.258 6.123-1.4 2.531-2.629 2.286-1.061 2.368-1.224 6.123a20.276 20.276 0 0 1-.2 2.312 3.589 3.589 0 0 1 .849-1.414" transform="translate(0 -26.398)" style="fill:#efdaca"/>
                <path data-name="패스 16389" d="M342.871 497.411c.98 1.633.9.98.163 1.225s3.795 9.053 4.239 10.588a29.167 29.167 0 0 1-.647-3.4c-.327-2.776-1.306-3.511-.327-2.776s.571-2.694 1.225-2.449 1.061-5.879 2.286-7.266 2.8-2.041 7.485-5.415 8.109-5.075 9.824-9.037 3.1-4.327 2.655-6.695.611-.774 1.061.287.98-3.184-.245-5.35 1.59 1.551 2 3.919.369-2.244 1.143-3.387.7-1.839-.2-4 1.672.98 2.081 2.325.79-3.481.627-6.257 1.088.761 1.414 1.848 1.47-2.828 3.648-5.552-1.091-6.368 1.47-5.17.327-1.088 1.359-1.143c.581-.033.8-.941 1.5-2.195a4.285 4.285 0 0 1-1.44-.908c-1.088-1.035-2.342-3.158-4.19-5.608s2.665 5.01 2.776 5.934-2.831-1.47-5.281-2.832 1.506 2.234 1.542 2.724-3.883-.98-5.95-.49a25.12 25.12 0 0 1-7.348.924c-2.72-.163-3.537-2.557-5.17-5.007s1.143 4.027 1.032 4.409-3.7-2.668-5.66-6.316.108 2.668 0 3.321-3.811-3.158-5.062-5.389-1.47-3.537-1.852-2.449-2.231-2.884-3.971-5.934-.056 5.715 3.21 11.1 1.47 6.532 3.266 5.389 4.409 6.042 5.225 4.9 7.185 6.858 6.695 11.431 1.306 6.368-1.306 5.225-1.45 5.388-2.358 4.246-.663 4.327-5.48 9.063-7.267 13.717-7.512 10.859.9-7.43-.408-4.409a23.259 23.259 0 0 0-1.633 6.7c0 .245-2.368-1.306-3.674-4.736s.816 6.124 1.8 7.756" transform="translate(-257.612 -324.613)" style="fill:#e2cbbc"/>
                <path data-name="패스 16390" d="M287.431 969.556s.888.846 4.082 1.012c-.216-4.249-3.759-8.331-2.995-5.693a4.3 4.3 0 0 1-1.088 4.68" transform="translate(-217.358 -729.018)" style="fill:#ceb7aa"/>
                <path data-name="패스 16391" d="M13.772 250.218c7.237 5.879 12.789 7.567 13.116 8s2.724.98 2.724 2.4 1.959 2.394 8.38 2.394 6.532.327 9.909-1.414 4.9-4.138 5.66-2.939 1.088-3.592 2.286-2.832.434-.545 1.525-7.838 10.128-28.196 11.146-33.532 7.25-15.892 8.991-16.875 1.744-10.447 2.12-10.559-1.355-3.374-.7-3.266 0 0-.98-4.572-1.8-16.548-1.8-16.548c-.3-2.521-.5-4.964-.624-7.031 0 0-1.388 10.843-1.8 14.6s-2.368 22.371-3.511 28.25-9.308 33.475-15.839 44.905-11.431 15.186-21.065 13.227-20.656-8.491-25.147-15.268a53.433 53.433 0 0 1-4.089-7.345c.238 5.114 3.566 9.9 2.456 10.15-1.2.271 0 .216 7.24 6.094" transform="translate(-3.082 -117.671)" style="fill:#ceb7aa"/>
                <path data-name="패스 16392" d="M447.988 228.019c.9.9 3.429 5.771 2.831 9.582s-1.091 3.971-.6 3.808.764 3.214 1.306 2.342 1.744 3.485 2.939 4.843.927 1.143 1.417.327c.356-.595 2.913 1.137 4.272 2.116-1.006-1.819-1.943-3.511-2.583-4.892-1.93-4.164-2.887-12.247-2.724-14.778s2.724-6.649 2.724-6.649a9.5 9.5 0 0 0-2.041.584 19.906 19.906 0 0 1-6.884 1.548s-1.555.271-.657 1.169" transform="translate(-338.562 -169.933)" style="fill:#e2cbbc"/>
                <path data-name="패스 16393" d="M477.866 357.133a15.974 15.974 0 0 0 4.909 1.163 25.107 25.107 0 0 0-1.169-3.119 17.1 17.1 0 0 1-7.567-1.146c-6.532-2.394.526 1.525 3.827 3.1" transform="translate(-356.448 -267.15)" style="fill:#e2cbbc"/>
                <path data-name="패스 16394" d="M647.292 463.716c1.878 2.734.082 4.491 0 4.912a5.224 5.224 0 0 0 3.511 0c-.565-5.088-5.222-7.407-3.511-4.915" transform="translate(-489.205 -349.906)" style="fill:#ceb7aa"/>
                <path data-name="패스 16395" d="M501.824 335.976c1 1.836 2.015 3.746 2.818 5.562a25.065 25.065 0 0 1 1.169 3.119 34.337 34.337 0 0 1 8.138 1.613c4.951 1.852 12.845 2.884 16.055 5.17s5.01 4.409 8.655 6.205a23.044 23.044 0 0 1 2.714 1.6c1.065-1.414 2.678-3.844 2.894-5.846.326-3.021-.9-1.225 1.225-3.021s1.715-5.389 1.143-7.92-8.165-3.1-12.492-3.919-12.9-4.572-18.942-2.858c-4.34 1.231-10.284.692-13.377.294" transform="translate(-379.485 -253.511)" style="fill:#ceb7aa"/>
                <path data-name="패스 16396" d="M333.072 317.445a34.035 34.035 0 0 1 8.057 2.178c3.537 1.417 3.975 1.2 4.465 1.035s2.557.326 2.338 0 4.791 0 8.491 0 1.417-.6-.653-2.231-7.021-1.907-6.91-2.286-2.724-.327-2.887-.764-2.394-.163-4.843-1.032-9.745.96-10.069 1.032c-1.574.353-.274 1.688 2.012 2.067" transform="translate(-249.828 -237.534)" style="fill:#e2cbbc"/>
                <path data-name="패스 16397" d="M140.132 819.481a8.639 8.639 0 0 1 .052 1.633 16.893 16.893 0 0 0 2.179-2.23c.653-.924-.653 1.959-1.306 3.321s-.056.816.382.6-1.035 4.409 1.251 7.456 5.333 4.9 8.926 4.3c.986-.163 1.839-.3 2.561-.408-.921-2.038-.4-6.816-.872-6.342-.545.546 0-4.625-.98-3.429s-.434.49.056-1.577-.928-2.286-.764-3.974 1.525-3.1.111-2.5-1.525 1.2-.872-.927 7.077-6.421 3.321-5.441-5.389 3.7-5.173 2.665 4.9-5.879 3.1-4.517a12.292 12.292 0 0 0-2.776 2.939s-.216-.98-.49-2.342-1.306-1.633-.653-2.557 2.561-2.015 1.417-2.123-1.8.49-1.581 0 3.811-3.811 3.214-3.7a10.27 10.27 0 0 0-2.286 1.414c-.6.382.163-1.852-2.015-5.66l-.108-.189a10.265 10.265 0 0 1-3.756 5.359c-3.592 2.231-2.668 3.537-2.123 6.476s.258 5.934-.526 7.459l-.777 1.519a6.875 6.875 0 0 0 2.825-1.845c.816-1.143.382 1.032-1.359 2.557s-1.091.761-.98 2.067" transform="translate(-105.601 -601.859)" style="fill:#ceb7aa"/>
                <path data-name="패스 16398" d="M251.8 786.743a3.6 3.6 0 0 1 .849-1.414c1.225-1.225 7.266-3.347 11.1-6.532s4.9-5.8 4.98-7.593 2.368-1.388 2.2-3.1 1.633.98 1.47-1.715-3.674-9.8-3.674-9.8c-.581-1.215-2.449-3.266-2.2 0s-.082 6.858-.9 7.267-.98 2.531-1.633 2.449-.572.98-1.891 3.592-4.232 6.7-6.257 6.123-1.4 2.531-2.629 2.286-1.061 2.368-1.225 6.123a20.276 20.276 0 0 1-.2 2.312" transform="translate(-190.412 -570.81)" style="fill:#f7e7dc"/>
            </g>
        </g>
        <g data-name="그룹 19252">
            <g data-name="그룹 19253">
                <path data-name="패스 16003" d="M386.733 89.663c-1.03 6.26-4.735 13.648-11.958 14.379-10.3 1.043-11.857-12.7-2.29-14.919 13.315-3.089 16.636 14.678 15.19 24.217-2.471 16.294-18.9 23.424-18.142 23.15 13.234-4.761 22.271-20.553 19.731-34.239-1.076-5.8-4.259-11.525-10.058-13.767-4.588-1.774-9.967-.874-12.91 3.256a8.263 8.263 0 0 0 2.532 12.294c4.515 2.6 10.074.969 13.63-2.472 10.791-10.442 4.714-26.951-1.948-39.162-.383-.7 7.775 17.834 6.224 27.264" transform="translate(-191.049 328.782)" style="fill:#878787"/>
                <path data-name="패스 16004" d="m351.044 21.3-.341.063c-.238.035-.368-.01-.606-.326a11.175 11.175 0 0 0-4.986-.581c-1.827.473-3.21 1.371-4.07 4.217l-.964-.283c.85-2.816 2.238-4.231 4.778-4.894a10.918 10.918 0 0 1 4.416.257c-1.28-2.047-3.942-6.188-6.1-6.646-2.964-.629-4.9 2.229-4.917 2.258l-.841-.544c.093-.142 2.341-3.453 5.969-2.683 2.68.568 5.541 5.16 6.915 7.367.182.291.368.589.5.785a.892.892 0 0 1 .16.121.582.582 0 0 1 .174.574z" transform="translate(-177.307 364.581)" style="fill:#6d5a4b"/>
                <path data-name="패스 16005" d="M368.308 15.056s-3.545-7.287-3.037-9.58S367.47.1 369.593 0s12.714 7.575 13.119 9.575-4.979 4.629-4.979 4.629 4.7-1.122 5.321 1.163-8.611 3.129-8.611 3.129z" transform="translate(-191.372 370.737)" style="fill:#f4d314"/>
                <path data-name="패스 16006" d="M365.012 28.662a3.2 3.2 0 0 1-1.929 4.122 3.265 3.265 0 0 1-4.176-1.9 3.2 3.2 0 0 1 1.929-4.122 3.266 3.266 0 0 1 4.176 1.9" transform="translate(-188.077 357.131)" style="fill:#a9764c"/>
                <path data-name="패스 16007" d="M370.688 30.065a2.832 2.832 0 0 1 2.075-.754c1.183.125 7.512 8.256 6.9 9.041s-5.2-3.284-6.541-3.519-2.965-.519-3.163-1.411.733-3.356.733-3.356" transform="translate(-193.753 355.728)" style="fill:#6d5a4b"/>
            </g>
        </g>
    </g>
</svg>
