<svg xmlns="http://www.w3.org/2000/svg" width="24" height="24" viewBox="0 0 24 24">
    <defs>
        <clipPath id="tfrrrx24oa">
            <path data-name="사각형 29337" style="fill:none" d="M0 0h20.886v20.593H0z"/>
        </clipPath>
    </defs>
    <g transform="translate(-22 -620)">
        <path data-name="사각형 29338" transform="translate(22 620)" style="fill:transparent" d="M0 0h24v24H0z"/>
        <g data-name="그룹 21083">
            <g data-name="그룹 21082" style="clip-path:url(#tfrrrx24oa)" transform="translate(23.278 621.703)">
                <path data-name="패스 18205" d="M8.028 18.886 5.91 16.767l1.3-1.3-1.933-1.935-1.3 1.3-2.27-2.267a1 1 0 0 0-1.414 1.414L6.614 20.3a1 1 0 0 0 1.414-1.414" style="fill:#4749fb"/>
                <path data-name="패스 18206" d="M20.593.293a1 1 0 0 1 0 1.414l-3.229 3.23a1 1 0 0 1-1.415-1.415l3.23-3.229a1 1 0 0 1 1.414 0" style="fill:#4749fb"/>
                <path data-name="패스 18207" d="m19.2 5.181-3.494-3.492a3 3 0 0 0-4.243 0l-8.08 8.08-.707-.707a1 1 0 0 0-1.414 1.414l8.838 8.839a1 1 0 1 0 1.415-1.415l-.4-.4 8.08-8.08a3 3 0 0 0 0-4.243" style="fill:#bcbffb"/>
                <path data-name="사각형 29335" transform="rotate(-45 11.771 -3.423)" style="fill:#4749fb" d="M0 0h2v5.469H0z"/>
                <path data-name="사각형 29336" transform="rotate(-45 9.699 -8.334)" style="fill:#4749fb" d="M0 0h2v5.469H0z"/>
            </g>
        </g>
        <g data-name="그룹 21084">
            <path data-name="선 71" transform="translate(38 636)" style="stroke:#fff;stroke-linecap:round;stroke-width:1.5px;fill:none" d="M0 0h4"/>
            <path data-name="선 72" transform="translate(40 634)" style="stroke:#fff;stroke-linecap:round;stroke-width:1.5px;fill:none" d="M0 0v4"/>
        </g>
        <circle data-name="타원 3022" cx="5" cy="5" r="5" transform="translate(34.722 631)" style="fill:#4749fb"/>
        <g data-name="그룹 21085">
            <path data-name="선 71" transform="translate(37.722 636)" style="stroke:#fff;stroke-linecap:round;stroke-width:1.5px;fill:none" d="M0 0h4"/>
            <path data-name="선 72" transform="translate(39.722 634)" style="stroke:#fff;stroke-linecap:round;stroke-width:1.5px;fill:none" d="M0 0v4"/>
        </g>
    </g>
</svg>
