<svg xmlns="http://www.w3.org/2000/svg" width="48" height="48" viewBox="0 0 48 48">
    <path data-name="사각형 28018" style="fill:transparent" d="M0 0h48v48H0z"/>
    <g data-name="그룹 19916">
        <path data-name="패스 16898" d="m254.608 5.084 11.608 11.608a1.984 1.984 0 0 1 0 2.807l-8.685 8.685-14.416-14.415 8.685-8.685a1.982 1.982 0 0 1 2.805 0" transform="translate(-232.967 4.429)" style="fill:#dbe0eb"/>
        <path data-name="패스 16899" d="M269.592 33.761a2.966 2.966 0 0 1-2.1-.871l-3.561-3.563-5.158.069a2.968 2.968 0 0 1-2.145-.871l-15-14.994a2.976 2.976 0 0 1 4.208-4.21l14.109 14.107 5.154-.069a2.861 2.861 0 0 1 2.145.871l4.454 4.45a2.976 2.976 0 0 1-2.1 5.081" transform="translate(-235.288 8.315)" style="fill:#bfc4d5"/>
        <path data-name="패스 16900" d="M257.843 17.7c-.216-.2-.409-.4-.581-.581L249 8.851a3.438 3.438 0 0 1 0-4.864 3.444 3.444 0 0 1 4.87 0l8.531 8.531c.077.077.149.157.216.238a5.915 5.915 0 0 0 3.664 1.742c.821-.1.5 1.131-.5 2.363a6.05 6.05 0 0 1-4.434 2.369 5.1 5.1 0 0 1-3.5-1.528" transform="translate(-228.174 2.925)" style="fill:#bfc4d5"/>
        <path data-name="사각형 28111" transform="rotate(-44.999 32.277 -8.666)" style="fill:#bfc4d5" d="M0 0h7.935v1.984H0z"/>
        <path data-name="사각형 28112" transform="rotate(-44.999 41.858 -12.633)" style="fill:#bfc4d5" d="M0 0h7.935v1.984H0z"/>
    </g>
</svg>
