<svg xmlns="http://www.w3.org/2000/svg" width="23.999" height="24" viewBox="0 0 23.999 24">
    <path data-name="사각형 28024" style="fill:transparent" d="M0 0h23.999v24H0z"/>
    <g data-name="그룹 19926">
        <path data-name="패스 16780" d="m125.071 122.585-8.485 8.485a4 4 0 1 1-5.657-5.657l8.485-8.485a4 4 0 0 1 5.657 5.657" transform="translate(-106 -112)" style="fill:#ff6767"/>
        <path data-name="패스 16781" d="m119.415 131.071-8.485-8.485a4 4 0 1 1 5.657-5.657l8.485 8.485a4 4 0 0 1-5.657 5.657" transform="translate(-106 -112)" style="fill:#ffb6a4"/>
        <path data-name="패스 16782" d="m118.353 120.818 2.828 2.828a1 1 0 0 1 0 1.415l-2.121 2.121a1 1 0 0 1-1.414 0l-2.829-2.828a1 1 0 0 1 0-1.415l2.122-2.121a1 1 0 0 1 1.414 0" transform="translate(-106 -112)" style="fill:#fff8e4"/>
        <path data-name="패스 16783" d="M122.6 125.768a.5.5 0 1 1-.707 0 .5.5 0 0 1 .707 0" transform="translate(-106 -112)" style="fill:#fff8e4"/>
        <path data-name="패스 16784" d="M120.475 127.889a.5.5 0 1 1-.707 0 .5.5 0 0 1 .707 0" transform="translate(-106 -112)" style="fill:#fff8e4"/>
        <path data-name="패스 16785" d="M114.818 117.99a.5.5 0 1 1-.707 0 .5.5 0 0 1 .707 0" transform="translate(-106 -112)" style="fill:#fff8e4"/>
        <path data-name="패스 16786" d="M112.7 120.111a.5.5 0 1 1-.707 0 .5.5 0 0 1 .707 0" transform="translate(-106 -112)" style="fill:#fff8e4"/>
        <path data-name="패스 16787" d="M124.01 127.182a.5.5 0 1 1-.707 0 .5.5 0 0 1 .707 0" transform="translate(-106 -112)" style="fill:#fff8e4"/>
        <path data-name="패스 16788" d="M121.889 129.3a.5.5 0 1 1-.707 0 .5.5 0 0 1 .707 0" transform="translate(-106 -112)" style="fill:#fff8e4"/>
        <path data-name="패스 16789" d="M116.232 119.4a.5.5 0 1 1-.707 0 .5.5 0 0 1 .707 0" transform="translate(-106 -112)" style="fill:#fff8e4"/>
        <path data-name="패스 16790" d="M114.111 121.525a.5.5 0 1 1-.707 0 .5.5 0 0 1 .707 0" transform="translate(-106 -112)" style="fill:#fff8e4"/>
    </g>
</svg>
