<svg xmlns="http://www.w3.org/2000/svg" width="23.999" height="24" viewBox="0 0 23.999 24">
    <path data-name="사각형 28014" style="fill:transparent" d="M0 0h23.999v24H0z"/>
    <g data-name="그룹 19915">
        <path data-name="패스 16768" d="m223.908 4.8 5.851 5.851a1 1 0 0 1 0 1.415l-4.378 4.378-7.266-7.266 4.379-4.378a1 1 0 0 1 1.414 0" transform="translate(-213)" style="fill:#5582f5"/>
        <path data-name="패스 16769" d="M230.291 21.209a1.5 1.5 0 0 1-1.061-.439l-1.795-1.8-2.6.035a1.483 1.483 0 0 1-1.081-.439l-7.554-7.554a1.5 1.5 0 0 1 2.121-2.122l7.107 7.11 2.6-.035a1.456 1.456 0 0 1 1.081.439l2.245 2.243a1.5 1.5 0 0 1-1.061 2.561" transform="translate(-213)" style="fill:#275cea"/>
        <path data-name="패스 16770" d="M227.955 10.4a5.39 5.39 0 0 1-.293-.293L223.5 5.936a1.733 1.733 0 0 1 0-2.452 1.736 1.736 0 0 1 2.455 0l4.3 4.3c.039.039.075.079.109.12a2.982 2.982 0 0 0 1.847.878c.414-.051.254.57-.254 1.191a3.05 3.05 0 0 1-2.235 1.194 2.573 2.573 0 0 1-1.763-.77" transform="translate(-213)" style="fill:#a8c1ff"/>
        <path data-name="사각형 28012" transform="rotate(-44.999 16.27 -4.368)" style="fill:#275cea" d="M0 0h4v1H0z"/>
        <path data-name="사각형 28013" transform="rotate(-44.999 21.099 -6.368)" style="fill:#275cea" d="M0 0h4v1H0z"/>
    </g>
</svg>
