<svg xmlns="http://www.w3.org/2000/svg" width="24" height="24" viewBox="0 0 24 24">
    <path data-name="사각형 28100" style="fill:transparent" d="M0 0h24v24H0z"/>
    <path data-name="패스 16869" d="M101.5 6a3.482 3.482 0 0 0-2.75 1.359 3.462 3.462 0 0 0-5.5 0 3.5 3.5 0 1 0 0 4.283 3.463 3.463 0 0 0 5.5 0A3.494 3.494 0 1 0 101.5 6" transform="translate(-83.998)" style="fill:#26a6cc"/>
    <path data-name="패스 16870" d="M87.831 10.6h16.334a1.092 1.092 0 0 1 1.167 1l1.166 8a1.092 1.092 0 0 1-1.167 1H86.665a1.092 1.092 0 0 1-1.167-1l1.167-8a1.093 1.093 0 0 1 1.166-1" transform="translate(-83.998)" style="fill:#a8dbeb"/>
    <path data-name="패스 16871" d="M93.426 13.769c-1.765.309-3 1.011-3 1.831s1.235 1.523 3 1.831z" transform="translate(-83.998)" style="fill:#26a6cc"/>
    <path data-name="패스 16872" d="m101.924 14.47-.707-.707-1.129 1.129c-.717-.754-2.526-1.292-4.662-1.292-.343 0-.677.015-1 .041v3.919c.323.026.657.04 1 .04 2.136 0 3.945-.538 4.662-1.291l1.129 1.13.707-.707-1.13-1.131z" transform="translate(-83.998)" style="fill:#26a6cc"/>
</svg>
