<svg xmlns="http://www.w3.org/2000/svg" width="24" height="24" viewBox="0 0 24 24">
    <path data-name="사각형 28034" style="fill:transparent" d="M0 0h24v24H0z"/>
    <g data-name="그룹 19907">
        <path data-name="패스 16812" d="M76.827 11h-12.01v-.512a3.392 3.392 0 0 1 1.793-6.272h.216a3.381 3.381 0 0 1 2.381.977A3.385 3.385 0 0 1 71.789 4H72a3.382 3.382 0 0 1 2.419 1.015 3.377 3.377 0 0 1 2.186-.8h.217a3.392 3.392 0 0 1 1.853 6.233V11z" transform="translate(-59.818)" style="fill:#179e79"/>
        <path data-name="패스 16813" d="M64.819 10h14a.928.928 0 0 1 1 .833l1 8.333a.928.928 0 0 1-1 .834h-16a.928.928 0 0 1-1-.833l1-8.334a.928.928 0 0 1 1-.833" transform="translate(-59.818)" style="fill:#26cc9f"/>
        <path data-name="패스 16814" d="m77.645 13.869-.707-.707-1.129 1.13C75.092 13.538 73.283 13 71.146 13c-.342 0-.676.014-1 .04v3.919c.323.027.657.041 1 .041 2.136 0 3.946-.538 4.662-1.292l1.13 1.13.707-.707L76.515 15z" transform="translate(-59.818)" style="fill:#fff"/>
        <path data-name="패스 16815" d="M66.146 15c0 .82 1.236 1.522 3 1.831v-3.662c-1.764.309-3 1.011-3 1.831" transform="translate(-59.818)" style="fill:#fff"/>
    </g>
</svg>
