<svg xmlns="http://www.w3.org/2000/svg" width="48" height="48" viewBox="0 0 48 48">
    <path data-name="사각형 28034" style="fill:transparent" d="M0 0h48v48H0z"/>
    <g data-name="그룹 19909">
        <path data-name="패스 16812" d="M90.157 17.855H66.384v-1.013a6.714 6.714 0 0 1 3.549-12.415h.428a6.693 6.693 0 0 1 4.713 1.933A6.7 6.7 0 0 1 80.185 4h.428A6.694 6.694 0 0 1 85.4 6.01a6.685 6.685 0 0 1 4.327-1.584h.43a6.715 6.715 0 0 1 3.668 12.338v1.091z" transform="translate(-56.489 3.919)" style="fill:#bfc4d5"/>
        <path data-name="패스 16813" d="M66.778 10H94.49a1.836 1.836 0 0 1 1.979 1.649l1.979 16.495a1.838 1.838 0 0 1-1.979 1.656H64.8a1.836 1.836 0 0 1-1.979-1.649l1.979-16.5A1.836 1.836 0 0 1 66.778 10" transform="translate(-56.879 9.791)" style="fill:#dbe0eb"/>
        <path data-name="패스 16814" d="m84.989 14.72-1.4-1.4-2.235 2.237c-1.419-1.492-5-2.557-9.23-2.557-.677 0-1.338.028-1.977.079v7.757c.639.053 1.3.081 1.977.081 4.228 0 7.811-1.065 9.228-2.557l2.237 2.24 1.4-1.4-2.237-2.239z" transform="translate(-49.702 12.733)" style="fill:#bfc4d5"/>
        <path data-name="패스 16815" d="M66.146 16.793c0 1.623 2.447 3.013 5.938 3.624v-7.248c-3.492.612-5.938 2-5.938 3.624" transform="translate(-53.62 12.898)" style="fill:#bfc4d5"/>
    </g>
</svg>
