<svg xmlns="http://www.w3.org/2000/svg" width="48" height="48" viewBox="0 0 48 48">
    <path data-name="사각형 28021" style="fill:transparent" d="M0 0h48v48H0z"/>
    <g data-name="그룹 19924">
        <path data-name="패스 16777" d="M53.987 130.254h6.723a3.553 3.553 0 0 0 3.553-3.553v-5.428h-7.038l-5.808-5.808h-9.462c-5.61 0-4.924 8.705-4.924 8.705s1.969 7.964-7.109 13.53c-.072.044-.14.092-.212.138a22.6 22.6 0 0 0 24.226 7.962c.032-.344.052-.68.052-1z" transform="translate(-20.297 -108.54)" style="fill:#dbe0eb"/>
        <path data-name="패스 16778" d="M37.105 130.492a4.669 4.669 0 0 1-4.664-4.666v-4.253a6.107 6.107 0 0 1 6.1-6.107h3.228v10.36a4.669 4.669 0 0 1-4.668 4.668" transform="translate(-17.57 -108.54)" style="fill:#bfc4d5"/>
        <path data-name="패스 16779" d="M52.917 145.777a23.249 23.249 0 0 1-18.386-9.061 126.866 126.866 0 0 1-8.751-14.249 2 2 0 1 1 3.535-1.861 122.92 122.92 0 0 0 8.434 13.742 19.181 19.181 0 0 0 15.124 7.432h.014a23.214 23.214 0 0 0 5.366-.767 2 2 0 0 1 1.023 3.865 27.425 27.425 0 0 1-6.339.9z" transform="translate(-24.452 -104.474)" style="fill:#bfc4d5"/>
        <path data-name="사각형 28022" transform="translate(29.001 11.072)" style="fill:#bfc4d5" d="M0 0h3.208v3.208H0z"/>
    </g>
</svg>
