<svg xmlns="http://www.w3.org/2000/svg" width="48" height="48" viewBox="0 0 48 48">
    <path data-name="사각형 28033" style="fill:transparent" d="M0 0h48v48H0z"/>
    <g data-name="그룹 19905">
        <path data-name="패스 16809" d="M56.7 18.041H32.609v-1.027a6.8 6.8 0 0 1 3.6-12.581h.433a6.782 6.782 0 0 1 4.776 1.96A6.791 6.791 0 0 1 46.594 4h.433a6.784 6.784 0 0 1 4.853 2.037 6.774 6.774 0 0 1 4.385-1.6h.435a6.8 6.8 0 0 1 3.717 12.5v1.105z" transform="translate(-22.581 4.025)" style="fill:#bfc4d5"/>
        <path data-name="패스 16810" d="M33.012 10H61.1a1.861 1.861 0 0 1 2 1.674l2.007 16.716a1.862 1.862 0 0 1-2.007 1.673H31a1.861 1.861 0 0 1-2-1.671l2.006-16.718A1.861 1.861 0 0 1 33.012 10" transform="translate(-22.982 10.056)" style="fill:#dbe0eb"/>
        <path data-name="패스 16811" d="M46.278 19.634h-6.493a3.222 3.222 0 1 1-5.747-2.327 3.222 3.222 0 1 1 5.773-1.968h6.447a3.222 3.222 0 1 1 5.773 1.968 3.222 3.222 0 1 1-5.753 2.327" transform="translate(-18.596 12.191)" style="fill:#bfc4d5"/>
    </g>
</svg>
