<svg xmlns="http://www.w3.org/2000/svg" width="24" height="24" viewBox="0 0 24 24">
    <path data-name="사각형 28032" style="fill:transparent" d="M0 0h24v24H0z"/>
    <g data-name="그룹 19903">
        <path data-name="패스 16806" d="M17.009 11H5v-.512a3.392 3.392 0 0 1 1.792-6.272h.216a3.381 3.381 0 0 1 2.381.977A3.385 3.385 0 0 1 11.971 4h.216a3.382 3.382 0 0 1 2.419 1.015 3.377 3.377 0 0 1 2.186-.8h.217a3.392 3.392 0 0 1 1.853 6.233V11z" style="fill:#179e79"/>
        <path data-name="패스 16807" d="M5 10h14a.928.928 0 0 1 1 .833l1 8.333A.928.928 0 0 1 20 20H4a.928.928 0 0 1-1-.833l1-8.334A.928.928 0 0 1 5 10" style="fill:#26cc9f"/>
        <path data-name="패스 16808" d="M13.8 15.865h-3.237A1.606 1.606 0 1 1 7.7 14.7a1.606 1.606 0 1 1 2.878-.981h3.212a1.606 1.606 0 1 1 2.878.981 1.606 1.606 0 1 1-2.868 1.16" style="fill:#fff"/>
    </g>
</svg>
