<svg xmlns="http://www.w3.org/2000/svg" width="24" height="24" viewBox="0 0 24 24">
    <defs>
        <clipPath id="pxxmd4drsa">
            <path data-name="사각형 29326" style="fill:#26a6cc" d="M0 0h9v9H0z"/>
        </clipPath>
    </defs>
    <path data-name="사각형 22017" style="fill:transparent" d="M0 0h24v24H0z"/>
    <path data-name="패스 16613" d="M2.333 0h16.334a1.093 1.093 0 0 1 1.167 1L21 9a1.093 1.093 0 0 1-1.167 1H1.167A1.093 1.093 0 0 1 0 9l1.167-8a1.093 1.093 0 0 1 1.166-1z" transform="translate(1.358 11)" style="fill:#a8dbeb"/>
    <path data-name="합치기 53" d="M7161.676-12294h-3.021a1.5 1.5 0 0 1-1.49 1.333 1.5 1.5 0 0 1-1.5-1.5 1.492 1.492 0 0 1 .313-.917 1.487 1.487 0 0 1-.313-.916 1.5 1.5 0 0 1 1.5-1.5 1.5 1.5 0 0 1 1.5 1.5h3a1.5 1.5 0 0 1 1.5-1.5 1.5 1.5 0 0 1 1.5 1.5 1.49 1.49 0 0 1-.313.916 1.5 1.5 0 0 1 .313.917 1.5 1.5 0 0 1-1.5 1.5 1.5 1.5 0 0 1-1.489-1.333z" transform="translate(-7148.308 12311.083)" style="fill:#26a6cc"/>
    <g data-name="그룹 21074" style="clip-path:url(#pxxmd4drsa)" transform="translate(7.5 1)">
        <path data-name="패스 18204" d="M4.5 9A4.5 4.5 0 1 1 9 4.5 4.505 4.505 0 0 1 4.5 9m0-7A2.5 2.5 0 1 0 7 4.5 2.5 2.5 0 0 0 4.5 2" style="fill:#26a6cc"/>
    </g>
</svg>
