<svg xmlns="http://www.w3.org/2000/svg" width="24" height="24" viewBox="0 0 24 24">
    <path data-name="사각형 28019" style="fill:transparent" d="M0 0h24v24H0z"/>
    <g data-name="그룹 19922">
        <path data-name="패스 16774" d="M16.858 122.865h3.364A1.778 1.778 0 0 0 22 121.087v-2.716h-3.522l-2.906-2.906h-4.735c-2.807 0-2.464 4.356-2.464 4.356s.986 3.985-3.557 6.771c-.036.022-.07.046-.106.069a11.306 11.306 0 0 0 12.122 3.984c.016-.172.026-.34.026-.5z" transform="translate(0 -112)" style="fill:#26cc9f"/>
        <path data-name="패스 16775" d="M9.775 122.984a2.336 2.336 0 0 1-2.334-2.335v-2.128a3.056 3.056 0 0 1 3.054-3.056h1.615v5.184a2.336 2.336 0 0 1-2.336 2.336" transform="translate(0 -112)" style="fill:#179e79"/>
        <path data-name="패스 16776" d="M14.243 132.667a11.633 11.633 0 0 1-9.2-4.534A63.482 63.482 0 0 1 .664 121a1 1 0 1 1 1.769-.931 61.507 61.507 0 0 0 4.22 6.876 9.6 9.6 0 0 0 7.568 3.719h.007a11.616 11.616 0 0 0 2.685-.384 1 1 0 0 1 .512 1.934 13.723 13.723 0 0 1-3.172.45z" transform="translate(0 -112)" style="fill:#179e79"/>
        <path data-name="사각형 28020" transform="translate(14.512 5.54)" style="fill:#179e79" d="M0 0h1.605v1.605H0z"/>
    </g>
</svg>
