<svg xmlns="http://www.w3.org/2000/svg" width="16" height="16" viewBox="0 0 16 16">
    <path data-name="사각형 28181" style="fill:transparent" d="M0 0h16v16H0z"/>
    <g data-name="그룹 19980">
        <path data-name="패스 16901" d="M2.46 0A1.96 1.96 0 1 1 .5 1.96 1.96 1.96 0 0 1 2.46 0" transform="translate(1 2.75)" style="fill:#ffcb21"/>
        <path data-name="패스 16902" d="M15.46 0a1.96 1.96 0 1 1-1.96 1.96A1.96 1.96 0 0 1 15.46 0" transform="translate(-2.921 2.75)" style="fill:#ffcb21"/>
        <path data-name="합치기 179" d="M9.662 5.608a3.626 3.626 0 0 1-3.081-1.844 1.5 1.5 0 0 1-.163 0 3.622 3.622 0 0 1-3 1.835c-.061 0-.119.018-.182.018-.033 0-.064-.009-.1-.009A3.646 3.646 0 0 1 .091 3.839a.7.7 0 0 1 .644-1.031h.009a.727.727 0 0 1 .624.352 2.19 2.19 0 0 0 3.782-.068l-.75-.621a1.374 1.374 0 0 1-.159-1.98A1.468 1.468 0 0 1 5.345 0h2.308a1.427 1.427 0 0 1 1.454 1.4A1.386 1.386 0 0 1 8.6 2.471l-.752.621a2.19 2.19 0 0 0 3.782.068.727.727 0 0 1 .624-.352h.009a.7.7 0 0 1 .645 1.028A3.645 3.645 0 0 1 9.941 5.6c-.061 0-.119.018-.182.018-.033-.001-.059-.01-.097-.01z" transform="translate(1.5 7.633)" style="stroke:#ffcb21;stroke-miterlimit:10;stroke-width:.3px;fill:#ffcb21"/>
        <path data-name="패스 16923" d="M9.543 10.429a1.554 1.554 0 0 1-1.933 0l-1.19-.958a1.351 1.351 0 0 1-.162-1.98A1.525 1.525 0 0 1 7.392 7h2.369a1.448 1.448 0 0 1 1.491 1.4 1.373 1.373 0 0 1-.52 1.071z" transform="translate(-.578 .642)" style="fill:#ffcb21"/>
    </g>
</svg>
