<svg xmlns="http://www.w3.org/2000/svg" width="24" height="24" viewBox="0 0 24 24">
    <g data-name="그룹 19513">
        <path data-name="사각형 22017" style="fill:transparent" d="M0 0h24v24H0z"/>
    </g>
    <g data-name="그룹 19542">
        <path data-name="패스 16611" d="M9.6 0c4.952 0 10.6 4.014 10.6 8.966s-5.644 8.966-10.6 8.966S-1 13.918-1 8.966 4.644 0 9.6 0z" transform="translate(2.454 3.168)" style="fill:#bfc4d5"/>
        <path data-name="패스 16610" d="M207.057 247.268a5.892 5.892 0 1 0-5.893 5.893 5.893 5.893 0 0 0 5.893-5.893" transform="translate(-189.114 -235.048)" style="fill:#9ba8bb"/>
        <path data-name="패스 16609" d="M194.487 241.648a2.3 2.3 0 1 0-2.3 2.3 2.3 2.3 0 0 0 2.3-2.3" transform="translate(-184.345 -231.694)" style="fill:#dbe0eb"/>
    </g>
</svg>
