<svg xmlns="http://www.w3.org/2000/svg" width="16" height="16" viewBox="0 0 16 16">
    <path data-name="사각형 28187" style="fill:transparent" d="M0 0h16v16H0z"/>
    <path data-name="사각형 28291" transform="translate(3 7)" style="fill:#bcbffb" d="M0 0h9v2H0z"/>
    <g data-name="그룹 20129">
        <g data-name="그룹 20130">
            <path data-name="패스 16928" d="M11 0h1a2 2 0 0 1 2 2v5a2 2 0 0 1-2 2h-1a2 2 0 0 1-2-2V2a2 2 0 0 1 2-2" style="fill:#4749fb" transform="translate(1 3.5)"/>
            <path data-name="패스 16929" d="M2 0h1a2 2 0 0 1 2 2v5a2 2 0 0 1-2 2H2a2 2 0 0 1-2-2V2a2 2 0 0 1 2-2" style="fill:#4749fb" transform="translate(1 3.5)"/>
        </g>
    </g>
</svg>
