<svg xmlns="http://www.w3.org/2000/svg" width="24" height="24" viewBox="0 0 24 24">
    <g data-name="그룹 19881">
        <path data-name="사각형 22103" style="fill:transparent" d="M0 0h24v24H0z"/>
    </g>
    <path data-name="패스 16851" d="M19.9.145a1 1 0 0 1 1.517.876l-.262 12.586a1 1 0 0 1-1.5.846L9.152 8.386a1 1 0 0 1-.018-1.721z" transform="translate(1.066 3.571)" style="fill:#9ba8bb"/>
    <path data-name="패스 16852" d="M.444 1.021A1 1 0 0 1 1.961.145l10.77 6.52a1 1 0 0 1-.019 1.722L2.2 14.453a1 1 0 0 1-1.36-.366.987.987 0 0 1-.134-.479z" transform="translate(1.066 3.571)" style="fill:#9ba8bb"/>
    <path data-name="패스 16853" d="M7 8.357h7.866a7 7 0 0 1 7 7v1.5H0v-1.5a7 7 0 0 1 7-7" transform="translate(1.066 3.571)" style="fill:#dbe0eb"/>
    <path data-name="패스 16854" d="M6.37 11.545a1.4 1.4 0 1 1-1.395 1.4 1.4 1.4 0 0 1 1.395-1.4" transform="translate(1.066 3.571)" style="fill:#9ba8bb"/>
    <path data-name="패스 16855" d="M15.37 11.545a1.4 1.4 0 1 1-1.4 1.4 1.4 1.4 0 0 1 1.4-1.4" transform="translate(1.066 3.571)" style="fill:#9ba8bb"/>
    <path data-name="패스 16856" d="M2.527 3.432a.5.5 0 0 1 .511-.489.508.508 0 0 1 .229.057l3.447 1.9a.5.5 0 0 1 .009.871L3.192 7.81a.5.5 0 0 1-.749-.444z" transform="translate(1.066 3.571)" style="fill:#dbe0eb"/>
    <path data-name="패스 16857" d="M18.739 3.006a.5.5 0 0 1 .679.2.485.485 0 0 1 .061.23l.082 3.932a.5.5 0 0 1-.489.511.506.506 0 0 1-.261-.068l-3.531-2.04a.5.5 0 0 1 .01-.871z" transform="translate(1.066 3.571)" style="fill:#dbe0eb"/>
</svg>
