<svg xmlns="http://www.w3.org/2000/svg" width="14" height="14" viewBox="0 0 14 14">
    <path data-name="사각형 29449" style="fill:transparent" d="M0 0h14v14H0z"/>
    <g data-name="그룹 21255">
        <path data-name="패스 17914" d="M217.937 261.666c.219.831.015 2.79-.816 3.009s-1.974-1.385-2.193-2.216a1.556 1.556 0 1 1 3.009-.793" transform="translate(-211.574 -259.506)" style="fill:#fff"/>
        <path data-name="패스 17915" d="M254.391 261.666c-.219.831-.015 2.79.816 3.009s1.974-1.385 2.193-2.216a1.556 1.556 0 1 0-3.009-.793" transform="translate(-246.754 -259.506)" style="fill:#fff"/>
        <path data-name="패스 17916" d="M281.126 291.6c-.46.612-.949 2.3-.337 2.757s2.094-.48 2.554-1.092a1.386 1.386 0 0 0-2.216-1.665" transform="translate(-270.121 -286.655)" style="fill:#fff"/>
        <path data-name="패스 17917" d="M191.4 291.6c.46.612.949 2.3.338 2.757s-2.094-.48-2.554-1.092a1.386 1.386 0 1 1 2.216-1.665" transform="translate(-188.404 -286.655)" style="fill:#fff"/>
        <path data-name="패스 17918" d="M214.655 306.147a1.588 1.588 0 0 1-.624-.935 2.85 2.85 0 0 0-5.513 0 1.588 1.588 0 0 1-.624.935c-.97.675-1.629 2.269-.658 3.264a2.117 2.117 0 0 0 1.531.537c.841 0 1.668-.248 2.507-.248s1.666.251 2.507.248a2.118 2.118 0 0 0 1.531-.537c.97-.995.311-2.588-.658-3.264" transform="translate(-204.275 -297.353)" style="fill:#fff"/>
    </g>
    <g data-name="그룹 21296" style="opacity:.5">
        <path data-name="패스 17914" d="M217.937 261.666c.219.831.015 2.79-.816 3.009s-1.974-1.385-2.193-2.216a1.556 1.556 0 1 1 3.009-.793" transform="translate(-211.574 -259.506)" style="fill:#ff4a4a"/>
        <path data-name="패스 17915" d="M254.391 261.666c-.219.831-.015 2.79.816 3.009s1.974-1.385 2.193-2.216a1.556 1.556 0 1 0-3.009-.793" transform="translate(-246.754 -259.506)" style="fill:#ff4a4a"/>
        <path data-name="패스 17916" d="M281.126 291.6c-.46.612-.949 2.3-.337 2.757s2.094-.48 2.554-1.092a1.386 1.386 0 0 0-2.216-1.665" transform="translate(-270.121 -286.655)" style="fill:#ff4a4a"/>
        <path data-name="패스 17917" d="M191.4 291.6c.46.612.949 2.3.338 2.757s-2.094-.48-2.554-1.092a1.386 1.386 0 1 1 2.216-1.665" transform="translate(-188.404 -286.655)" style="fill:#ff4a4a"/>
        <path data-name="패스 17918" d="M214.655 306.147a1.588 1.588 0 0 1-.624-.935 2.85 2.85 0 0 0-5.513 0 1.588 1.588 0 0 1-.624.935c-.97.675-1.629 2.269-.658 3.264a2.117 2.117 0 0 0 1.531.537c.841 0 1.668-.248 2.507-.248s1.666.251 2.507.248a2.118 2.118 0 0 0 1.531-.537c.97-.995.311-2.588-.658-3.264" transform="translate(-204.275 -297.353)" style="fill:#ff4a4a"/>
    </g>
</svg>
