<svg xmlns="http://www.w3.org/2000/svg" width="40" height="40" viewBox="0 0 40 40">
    <g data-name="ic-foot stamp">
        <path data-name="사각형 29444" style="fill:transparent" d="M0 0h40v40H0z"/>
        <g data-name="그룹 21295" style="opacity:.25">
            <path data-name="패스 18244" d="M17.972 3.847C17.791 5.79 15.814 9.8 13.85 9.622S10.682 5.144 10.861 3.2a3.571 3.571 0 0 1 7.113.643" transform="translate(7.07 4.072)" style="fill:#ff4a4a"/>
            <path data-name="패스 18245" d="M21.515 4.652c-1.107 1.574-2.187 5.835-.593 6.928s5.261-1.4 6.367-2.971a3.442 3.442 0 0 0-.834-4.837 3.545 3.545 0 0 0-4.9.824l-.039.057" transform="translate(7.882 4.98)" style="fill:#ff4a4a"/>
            <path data-name="패스 18246" d="M27.244 13.347c-1.511.972-3.954 4.267-2.969 5.759s5.024.617 6.535-.354a3.2 3.2 0 0 0 .882-4.477 3.293 3.293 0 0 0-4.448-.927" transform="translate(7.466 4.919)" style="fill:#ff4a4a"/>
            <path data-name="패스 18247" d="M7.734 6.758c.509 1.653.244 5.6-1.43 6.105s-4.123-2.632-4.633-4.285a3.122 3.122 0 0 1 2.11-3.9 3.175 3.175 0 0 1 3.952 2.08" transform="translate(7.01 4.347)" style="fill:#ff4a4a"/>
            <path data-name="패스 18248" d="M25.834 23.465A4.839 4.839 0 0 1 25 20.1a8.833 8.833 0 0 0-8.074-9.566 9 9 0 0 0-8.172 3.748 4.967 4.967 0 0 1-2.841 2.052c-3.582.935-7.234 4.859-5.44 8.767a6.613 6.613 0 0 0 3.936 3.174c2.475.9 5.18 1.045 7.653 1.931s4.641 2.485 7.124 3.36a6.742 6.742 0 0 0 5.089.059c3.927-1.86 3.693-7.176 1.56-10.158" transform="translate(5.073 4.134)" style="fill:#ff4a4a"/>
        </g>
    </g>
</svg>
