<svg xmlns="http://www.w3.org/2000/svg" width="24" height="24" viewBox="0 0 24 24">
    <path data-name="사각형 22080" style="fill:transparent" d="M0 0h24v24H0z"/>
    <path data-name="패스 16592" d="M174.561 176.108c0 .091 0 .04 0 0" transform="translate(-154.502 -155.927)" style="fill:#afa0a0"/>
    <path data-name="패스 16594" d="M24.293 176.32c0 .05 0 .182 0 0" transform="translate(-20.311 -156.116)" style="fill:#afa0a0"/>
    <g data-name="그룹 19539">
        <path data-name="패스 16593" d="M18.345 3.913a9.545 9.545 0 0 0-1.1-.109c-.437-3.57-4.038-5-6.6-2.66C8.107-1.171 4.528.178 4.032 3.838h-.409a3.647 3.647 0 0 0-3.59 3.3 5.063 5.063 0 0 0 .688 3.181 13.874 13.874 0 0 1 1.9 7.3c-.011.752-.017 1.1-.02 1.245 0-.05.007-.019.009.481v.888a1.2 1.2 0 0 0 0 .33v.814h16.071v-.887a.816.816 0 0 0 0-.1v-1.042h-.011c0-.6.007-.567.009-.5 0-.114-.008-.454-.019-1.328a13.985 13.985 0 0 1 1.862-7.15 6.4 6.4 0 0 0 .655-1.681 3.833 3.833 0 0 0-2.832-4.772" transform="translate(1.381 1.337)" style="fill:#a8dbeb"/>
        <path data-name="패스 16595" d="M54.859 81.567h-4.425c-.226 0-.451 0-.677-.006a2.449 2.449 0 0 1-2.373-3.386 12.309 12.309 0 0 1 3.384-4.736 2.968 2.968 0 0 1 4 .227 26.829 26.829 0 0 1 2.948 4.067c.932 1.581.134 4.039-2.857 3.833" transform="translate(-40.617 -63.53)" style="fill:#26a6cc"/>
        <path data-name="패스 16596" d="M138.945 56.042a2.7 2.7 0 0 1 1.4-2.3 1.57 1.57 0 0 1 2.463 1.444 2.681 2.681 0 0 1-1.415 2.4 1.588 1.588 0 0 1-2.445-1.539" transform="translate(-122.038 -46.413)" style="fill:#26a6cc"/>
        <path data-name="패스 16597" d="M21.6 56.138a1.578 1.578 0 0 1-2.486 1.452 2.737 2.737 0 0 1-1.314-2.837 1.5 1.5 0 0 1 2.059-1.128 2.752 2.752 0 0 1 1.741 2.513" transform="translate(-14.471 -46.454)" style="fill:#26a6cc"/>
        <path data-name="패스 16598" d="M59.164 20.34a3.038 3.038 0 0 1 0 .319 1.841 1.841 0 0 1-1.239 1.65 1.76 1.76 0 0 1-1.877-.839 2.641 2.641 0 0 1-.258-2.77 1.493 1.493 0 0 1 2.309-.576 2.636 2.636 0 0 1 1.065 2.213" transform="translate(-48.189 -14.559)" style="fill:#26a6cc"/>
        <path data-name="패스 16599" d="M103.454 20.337a2.648 2.648 0 0 1 .916-2.064 1.531 1.531 0 0 1 2.519.594 2.664 2.664 0 0 1-.306 2.613 1.764 1.764 0 0 1-1.915.857 1.869 1.869 0 0 1-1.213-1.679c-.009-.106 0-.214 0-.32" transform="translate(-90.388 -14.593)" style="fill:#26a6cc"/>
    </g>
</svg>
