<svg xmlns="http://www.w3.org/2000/svg" width="16" height="16" viewBox="0 0 16 16">
    <defs>
        <clipPath id="iw9yl64w2a">
            <path data-name="사각형 28450" style="fill:none" d="M0 0h8v6H0z"/>
        </clipPath>
    </defs>
    <path data-name="사각형 28183" style="fill:transparent" d="M0 0h16v16H0z"/>
    <path data-name="패스 16917" d="M7.524 1.923c.078-.1.157-.219.245-.326A3.777 3.777 0 0 1 12.024.185a4.068 4.068 0 0 1 2.907 3.427 4.945 4.945 0 0 1-.9 3.621 14.918 14.918 0 0 1-3.53 3.731c-.9.7-1.849 1.328-2.787 1.972a.427.427 0 0 1-.391.028 23.338 23.338 0 0 1-5.508-4.591A7.368 7.368 0 0 1 .1 5.241 4.291 4.291 0 0 1 3.226.105a3.849 3.849 0 0 1 4.109 1.64c.036.049.071.1.11.146.011.013.034.015.08.032" transform="translate(.5 1.5)" style="fill:#ff4a4a"/>
    <g data-name="그룹 20128" transform="translate(4 5)" style="clip-path:url(#iw9yl64w2a)">
        <path data-name="패스 16927" d="M4.693 6h-.02a.488.488 0 0 1-.447-.35l-1.06-3.563L3 2.578a.488.488 0 0 1-.46.33H.488a.492.492 0 0 1 0-.984h1.7L2.741.33a.486.486 0 0 1 .927.02l1.084 3.642.673-1.756a.488.488 0 0 1 .456-.315h1.631a.492.492 0 0 1 0 .984h-1.3l-1.063 2.78A.49.49 0 0 1 4.693 6" style="fill:#fff"/>
    </g>
</svg>
