<svg xmlns="http://www.w3.org/2000/svg" width="16" height="16" viewBox="0 0 16 16">
    <path data-name="사각형 29103" style="fill:transparent" d="M0 0h16v16H0z"/>
    <path data-name="패스 16917" d="M7.524 1.923c.078-.1.157-.219.245-.326A3.777 3.777 0 0 1 12.024.185a4.068 4.068 0 0 1 2.907 3.427 4.945 4.945 0 0 1-.9 3.621 14.918 14.918 0 0 1-3.53 3.731c-.9.7-1.849 1.328-2.787 1.972a.427.427 0 0 1-.391.028 23.338 23.338 0 0 1-5.508-4.591A7.368 7.368 0 0 1 .1 5.241 4.291 4.291 0 0 1 3.226.105a3.849 3.849 0 0 1 4.109 1.64c.036.049.071.1.11.146.011.013.034.015.08.032" transform="translate(.5 1.5)" style="fill:#26a6cc"/>
</svg>
