<svg xmlns="http://www.w3.org/2000/svg" width="16" height="16" viewBox="0 0 16 16">
    <path data-name="사각형 29033" d="M0 0h.5A2.5 2.5 0 0 1 3 2.5 2.5 2.5 0 0 1 .5 5H0V0z" transform="translate(12.002 4.5)" style="fill:#ff6767"/>
    <path data-name="사각형 29031" d="M0 0h2v6a1 1 0 0 1-1 1 1 1 0 0 1-1-1V0z" transform="translate(4.002 9)" style="fill:#dc3d3d"/>
    <path data-name="합치기 181" d="m-18237.256-7657.208-2.883-1.681h-2.861a4 4 0 0 1-4-4 4 4 0 0 1 4-4h2.854l2.891-1.685a1.5 1.5 0 0 1 2.258 1.3v8.779a1.5 1.5 0 0 1-1.5 1.5 1.488 1.488 0 0 1-.759-.213z" transform="translate(18248.002 7669.891)" style="fill:#ffb6a4"/>
    <path data-name="사각형 29032" d="M4 0h1v8H4a4 4 0 0 1-4-4 4 4 0 0 1 4-4z" transform="translate(1.002 3)" style="fill:#ff6767"/>
</svg>
