<svg xmlns="http://www.w3.org/2000/svg" width="23.999" height="24" viewBox="0 0 23.999 24">
    <path data-name="사각형 28008" style="fill:transparent" d="M0 0h23.999v24H0z"/>
    <g data-name="그룹 19911">
        <path data-name="패스 16760" d="M111.5 14h13a2.5 2.5 0 0 1 0 5h-13a2.5 2.5 0 0 1 0-5" transform="translate(-106)" style="fill:#ff9621"/>
        <path data-name="패스 16761" d="M113.5 10h9a2.5 2.5 0 0 1 0 5h-9a2.5 2.5 0 0 1 0-5" transform="translate(-106)" style="fill:#ffcb21"/>
        <path data-name="패스 16762" d="M115.5 7h5a2.5 2.5 0 0 1 0 5h-5a2.5 2.5 0 0 1 0-5" transform="translate(-106)" style="fill:#ff9621"/>
        <path data-name="패스 16763" d="M117.219 3.976a1 1 0 0 1 1.562 0l1.919 2.4A1 1 0 0 1 119.919 8h-3.838a1 1 0 0 1-.781-1.625z" transform="translate(-106)" style="fill:#ffcb21"/>
    </g>
</svg>
