<svg xmlns="http://www.w3.org/2000/svg" width="24" height="24" viewBox="0 0 24 24">
    <path data-name="사각형 22017" style="fill:transparent" d="M0 0h24v24H0z"/>
    <g data-name="그룹 20159">
        <g data-name="그룹 20158">
            <path data-name="패스 16946" d="M21.313 17.914h-8.974a1.1 1.1 0 1 1 0-2.206h8.974a1.1 1.1 0 0 1 0 2.206" transform="translate(.125 1.033)" style="fill:#ffb6a4"/>
            <path data-name="패스 16948" d="M22.669 5.115h-2.22c0-.039.016-.074.017-.114a3.265 3.265 0 0 0-2.58-3.174A2.8 2.8 0 0 0 15.175 0H6.6a1.1 1.1 0 1 0 0 2.206c.59 0 1.173 0 1.764-.024.514-.02 1.406 0 1.56.644.287 1.2-1.645 1.222-2.34 1.219-.9 0-1.807-.026-2.71-.018a9.251 9.251 0 0 0-2.634.191 3.31 3.31 0 0 0-1.229.717A3.052 3.052 0 0 0 0 7.269a3.541 3.541 0 0 0 3.74 3.107c3.523 0 5.674.07 14.7.07a1.1 1.1 0 0 0 1.1-1.1v-.221a1.1 1.1 0 0 0-1.1-1.1h-.054s-.2-.118 0-.244h4.283a1.331 1.331 0 0 0 0-2.663" transform="translate(0 5.052)" style="fill:#ffb6a4"/>
        </g>
    </g>
    <path data-name="패스 16949" d="M8.679 1.625c.149-.272.307-.41.47-.41a.956.956 0 0 1 .495.254 1.681 1.681 0 0 0 1.035.431h.014a1.723 1.723 0 0 0 1.429-.986l.069-.146-.914-.69-.112.2c-.1.184-.263.4-.47.4a.968.968 0 0 1-.487-.252A1.707 1.707 0 0 0 9.16 0a1.694 1.694 0 0 0-1.438 1l-.066.146.911.686z" transform="translate(5.735 7.948)" style="fill:#ff6767"/>
    <path data-name="패스 16950" d="M8.679 1.625c.149-.272.307-.41.47-.41a.956.956 0 0 1 .495.254 1.681 1.681 0 0 0 1.035.431h.014a1.723 1.723 0 0 0 1.429-.986l.069-.146-.914-.69-.112.2c-.1.184-.263.4-.47.4a.968.968 0 0 1-.487-.252A1.707 1.707 0 0 0 9.16 0a1.694 1.694 0 0 0-1.438 1l-.066.146.911.686z" transform="translate(2.077 11.478)" style="fill:#ff6767"/>
    <path data-name="패스 16945" d="M62.232 11.922A30.187 30.187 0 0 0 61 9.97a1.184 1.184 0 0 0-1.647-.3 1.168 1.168 0 0 0-.3.3c-.025.036-.621.907-1.233 1.952-1.2 2.075-1.342 2.962-1.342 3.449a3.549 3.549 0 1 0 7.1 0c0-.488-.14-1.375-1.343-3.449" transform="translate(-53.842 1.08)" style="fill:#ff6767"/>
</svg>
