<svg xmlns="http://www.w3.org/2000/svg" width="24" height="24" viewBox="0 0 24 24">
    <path data-name="사각형 28035" style="fill:transparent" d="M0 0h24v24H0z"/>
    <g data-name="그룹 19934">
        <path data-name="패스 16816" d="M101.992 5.395a13.638 13.638 0 0 0-4.512.392 4.642 4.642 0 0 0-2.288 1.184c-.453.514-.989 1.422-.2 1.908.231.143.562.146.694.455a.71.71 0 0 1-.03.552 1.755 1.755 0 0 1-.313.437 9.793 9.793 0 0 0-1.9 2.387 3.913 3.913 0 0 0 .259 3.244c1.451 2.726 4.738 3.136 7.209 3.342a14.3 14.3 0 0 0 5.022-.369 7.541 7.541 0 0 0 3.854-2.455 6.518 6.518 0 0 0-1.059-9.157l-.018-.014a10.842 10.842 0 0 0-5.878-1.85c-.279-.022-.56-.041-.841-.056" transform="translate(-90.203)" style="fill:#ffcb21"/>
        <path data-name="패스 16817" d="m107.424 10.371-.14.249c-.206.367-.427.553-.659.553a1.318 1.318 0 0 1-.673-.346 2.294 2.294 0 0 0-1.409-.582 2.281 2.281 0 0 0-1.93 1.344l-.081.181 1.2.906.139-.254c.206-.378.427-.57.654-.57a1.309 1.309 0 0 1 .677.348 2.271 2.271 0 0 0 1.4.584h.018a2.306 2.306 0 0 0 1.918-1.323l.086-.184z" transform="translate(-90.203)" style="fill:#ff9621"/>
        <path data-name="패스 16818" d="m101.316 13.554-.14.249c-.206.366-.427.552-.659.552a1.325 1.325 0 0 1-.672-.345 2.288 2.288 0 0 0-1.408-.582 2.28 2.28 0 0 0-1.937 1.343l-.081.182 1.2.9.138-.254c.206-.378.427-.57.654-.57a1.32 1.32 0 0 1 .677.348 2.263 2.263 0 0 0 1.4.584h.018a2.31 2.31 0 0 0 1.918-1.324l.086-.184z" transform="translate(-90.203)" style="fill:#ff9621"/>
        <path data-name="패스 16819" d="M101.852 4.814a24.177 24.177 0 0 0-.908-1.439.874.874 0 0 0-1.433 0c-.018.027-.46.667-.908 1.439a5.34 5.34 0 0 0-.988 2.539 2.613 2.613 0 0 0 5.226 0 5.331 5.331 0 0 0-.989-2.539" transform="translate(-90.203)" style="fill:#ff9621"/>
    </g>
</svg>
