<svg xmlns="http://www.w3.org/2000/svg" width="24" height="24" viewBox="0 0 24 24">
    <path data-name="사각형 22017" style="fill:transparent" d="M0 0h24v24H0z"/>
    <g data-name="그룹 19887">
        <path data-name="패스 16878" d="M11.7 2.406a21.088 21.088 0 0 0-6.018.448 6.593 6.593 0 0 0-3.05 1.353c-.6.588-1.315 1.626-.266 2.181.308.163.749.167.926.52a.71.71 0 0 1-.04.63 2.064 2.064 0 0 1-.417.5 11.633 11.633 0 0 0-2.521 2.731 3.9 3.9 0 0 0 .341 3.7c1.934 3.115 6.318 3.584 9.612 3.819a22.208 22.208 0 0 0 6.7-.421 10.374 10.374 0 0 0 5.136-2.8 6.764 6.764 0 0 0-1.437-10.483 16.2 16.2 0 0 0-7.839-2.115q-.559-.038-1.122-.063" transform="translate(.024 1.634)" style="fill:#a8dbeb"/>
        <path data-name="패스 16879" d="m17.5 6.266-.139.252c-.174.316-.46.693-.832.693a1.607 1.607 0 0 1-.831-.423 2.726 2.726 0 0 0-1.664-.688 2.683 2.683 0 0 0-2.274 1.576l-.083.182 1.366 1.03.138-.256c.253-.468.532-.7.831-.7a1.58 1.58 0 0 1 .845.426 2.677 2.677 0 0 0 1.646.687h.018a2.72 2.72 0 0 0 2.258-1.561l.086-.184z" transform="translate(.024 1.634)" style="fill:#26a6cc"/>
        <path data-name="패스 16880" d="M10.8 11.518c-.175.316-.461.693-.833.693a1.609 1.609 0 0 1-.831-.422A2.72 2.72 0 0 0 7.47 11.1a2.683 2.683 0 0 0-2.274 1.575l-.083.182 1.368 1.03.137-.257c.173-.321.457-.7.83-.7a1.582 1.582 0 0 1 .846.426 2.679 2.679 0 0 0 1.647.687h.018a2.72 2.72 0 0 0 2.257-1.561l.084-.182-1.365-1.029z" transform="translate(.024 1.634)" style="fill:#26a6cc"/>
    </g>
</svg>
