<svg xmlns="http://www.w3.org/2000/svg" width="24" height="24" viewBox="0 0 24 24">
    <defs>
        <clipPath id="jm6fdhv87a">
            <path data-name="사각형 28091" style="fill:#26a6cc" d="M0 0h7.404v7.4H0z"/>
        </clipPath>
    </defs>
    <path data-name="사각형 22017" style="fill:transparent" d="M0 0h24v24H0z"/>
    <g data-name="그룹 19896">
        <g data-name="그룹 19895">
            <path data-name="합치기 178" d="M-5790.351-5373.338a2.981 2.981 0 0 1-2.982-2.982 2.981 2.981 0 0 1 2.981-2.98 2.968 2.968 0 0 1-.6-1.789 2.983 2.983 0 0 1 2.456-2.936 3.006 3.006 0 0 1-.069-.644 2.982 2.982 0 0 1 2.28-2.9 1 1 0 0 1 .213-.515l2.69-3.363a1 1 0 0 1 1.406-.155 1.041 1.041 0 0 1 .156.155l2.69 3.363a1 1 0 0 1 .213.515 2.981 2.981 0 0 1 2.279 2.9 3.009 3.009 0 0 1-.069.644 2.983 2.983 0 0 1 2.454 2.936 2.97 2.97 0 0 1-.6 1.789 2.981 2.981 0 0 1 2.981 2.98 2.981 2.981 0 0 1-2.982 2.982z" transform="translate(5794.667 5393.638)" style="fill:#a8dbeb;stroke:transparent;stroke-miterlimit:10"/>
        </g>
    </g>
    <g data-name="그룹 19873" style="clip-path:url(#jm6fdhv87a)" transform="translate(8.298 9.51)">
        <path data-name="패스 16842" d="M6.4 7.4a1 1 0 0 1-.7-.293l-5.4-5.4A1 1 0 0 1 1.712.293l5.4 5.4A1 1 0 0 1 6.4 7.4" style="fill:#26a6cc"/>
        <path data-name="패스 16843" d="M1 7.4a1 1 0 0 1-.707-1.707l5.4-5.4a1 1 0 0 1 1.413 1.414l-5.4 5.4A1 1 0 0 1 1 7.4" style="fill:#26a6cc"/>
    </g>
</svg>
