<svg xmlns="http://www.w3.org/2000/svg" width="24" height="24" viewBox="0 0 24 24">
    <path data-name="사각형 22017" style="fill:transparent" d="M0 0h24v24H0z"/>
    <g data-name="그룹 19888">
        <path data-name="패스 16884" d="M52.195 2.406a21.088 21.088 0 0 0-6.018.448 6.593 6.593 0 0 0-3.05 1.353c-.6.588-1.315 1.626-.266 2.181.308.163.749.167.926.52a.71.71 0 0 1-.04.63 2.064 2.064 0 0 1-.417.5 11.633 11.633 0 0 0-2.53 2.731 3.9 3.9 0 0 0 .341 3.7c1.934 3.115 6.318 3.584 9.612 3.819a22.208 22.208 0 0 0 6.7-.421 10.374 10.374 0 0 0 5.136-2.8 6.764 6.764 0 0 0-1.433-10.483 16.2 16.2 0 0 0-7.839-2.115q-.56-.038-1.122-.063" transform="translate(-40.483 1.63)" style="fill:#dbe0eb"/>
        <path data-name="패스 16885" d="m57.988 6.266-.139.252c-.174.316-.46.693-.832.693a1.607 1.607 0 0 1-.831-.423 2.726 2.726 0 0 0-1.662-.688 2.683 2.683 0 0 0-2.274 1.576l-.083.182 1.366 1.03.138-.256c.253-.468.532-.7.831-.7a1.58 1.58 0 0 1 .845.426 2.677 2.677 0 0 0 1.646.687h.018a2.72 2.72 0 0 0 2.258-1.561l.086-.184z" transform="translate(-40.483 1.63)" style="fill:#9ba8bb"/>
        <path data-name="패스 16886" d="M50.849 11.518c-.175.316-.46.693-.832.693a1.609 1.609 0 0 1-.831-.422 2.752 2.752 0 0 0-1.663-.688 2.683 2.683 0 0 0-2.273 1.575l-.083.182 1.367 1.03.137-.256c.253-.468.533-.7.831-.7a1.582 1.582 0 0 1 .846.426 2.674 2.674 0 0 0 1.646.687h.018a2.72 2.72 0 0 0 2.258-1.561l.086-.184-1.367-1.029z" transform="translate(-40.483 1.63)" style="fill:#9ba8bb"/>
        <path data-name="패스 16887" d="M62.964 12.235a35.083 35.083 0 0 0-1.39-2.2 1.334 1.334 0 0 0-1.856-.335 1.317 1.317 0 0 0-.337.337c-.028.041-.7 1.022-1.39 2.2-1.356 2.339-1.513 3.339-1.513 3.888a4 4 0 1 0 8 0c0-.55-.158-1.55-1.514-3.888" transform="translate(-40.483 1.63)" style="fill:#9ba8bb"/>
        <path data-name="패스 16888" d="M50.082 1.972C49.6 1.134 49.116.437 49.1.408a.947.947 0 0 0-1.323-.239.936.936 0 0 0-.239.239c-.02.029-.5.725-.987 1.564a5.8 5.8 0 0 0-1.074 2.76 2.84 2.84 0 0 0 5.679 0 5.8 5.8 0 0 0-1.074-2.76" transform="translate(-40.483 1.63)" style="fill:#9ba8bb"/>
    </g>
</svg>
