<svg xmlns="http://www.w3.org/2000/svg" width="24" height="24" viewBox="0 0 24 24">
    <defs>
        <clipPath id="hw11uxyw7a">
            <path data-name="사각형 28091" style="fill:#ffb6a4" d="M0 0h7.404v7.4H0z"/>
        </clipPath>
    </defs>
    <path data-name="사각형 22017" style="fill:transparent" d="M0 0h24v24H0z"/>
    <path data-name="합치기 56" d="M-4993.023-6459.836a3 3 0 0 1-3-3 3 3 0 0 1 3-3 2.984 2.984 0 0 1-.6-1.8 3 3 0 0 1 2.468-2.95 3.005 3.005 0 0 1-.07-.647 3 3 0 0 1 2.284-2.911.984.984 0 0 1 .215-.512l2.715-3.4a1 1 0 0 1 1.563 0l2.715 3.4a.988.988 0 0 1 .215.512 3 3 0 0 1 2.284 2.911 3.005 3.005 0 0 1-.07.647 3 3 0 0 1 2.466 2.95 2.986 2.986 0 0 1-.6 1.8 3 3 0 0 1 3 3 3 3 0 0 1-3 3z" transform="translate(4997.241 6480.241)" style="fill:#ff6767"/>
    <g data-name="그룹 19873" style="clip-path:url(#hw11uxyw7a)" transform="translate(8.298 9.51)">
        <path data-name="패스 16842" d="M6.4 7.4a1 1 0 0 1-.7-.293l-5.4-5.4A1 1 0 0 1 1.712.293l5.4 5.4A1 1 0 0 1 6.4 7.4" style="fill:#ffb6a4"/>
        <path data-name="패스 16843" d="M1 7.4a1 1 0 0 1-.707-1.707l5.4-5.4a1 1 0 0 1 1.413 1.414l-5.4 5.4A1 1 0 0 1 1 7.4" style="fill:#ffb6a4"/>
    </g>
</svg>
