<svg xmlns="http://www.w3.org/2000/svg" width="24" height="24" viewBox="0 0 24 24">
    <path data-name="사각형 22017" style="fill:transparent" d="M0 0h24v24H0z"/>
    <path data-name="패스 18202" d="M67.7 14.262a60.464 60.464 0 0 0-2.405-3.807 2.308 2.308 0 0 0-3.212-.583 2.279 2.279 0 0 0-.583.583c-.048.071-1.211 1.769-2.405 3.807-2.347 4.048-2.618 5.778-2.618 6.729a6.922 6.922 0 1 0 13.844 0c0-.952-.273-2.682-2.62-6.729" transform="translate(-53.604 -6.687)" style="fill:#a8dbeb"/>
    <path data-name="패스 18203" d="M51.382 2.529A32.999 32.999 0 0 0 50.117.523a1.214 1.214 0 0 0-1.69-.307 1.2 1.2 0 0 0-.306.307c-.026.037-.641.93-1.266 2.006a7.439 7.439 0 0 0-1.377 3.54 3.642 3.642 0 0 0 7.283 0 7.439 7.439 0 0 0-1.377-3.54" transform="translate(-31.633 8.478)" style="fill:#26a6cc"/>
</svg>
