<svg xmlns="http://www.w3.org/2000/svg" width="48" height="48" viewBox="0 0 48 48">
    <path data-name="사각형 28009" style="fill:transparent" d="M0 0h48v48H0z"/>
    <g data-name="그룹 19913">
        <path data-name="패스 16764" d="M139.025 14h26.131a5.025 5.025 0 0 1 0 10.05h-26.131a5.025 5.025 0 1 1 0-10.05" transform="translate(-127.97 14.141)" style="fill:#bfc4d5"/>
        <path data-name="패스 16765" d="M141.025 10h18.091a5.025 5.025 0 0 1 0 10.05h-18.091a5.025 5.025 0 1 1 0-10.05" transform="translate(-125.95 10.101)" style="fill:#dbe0eb"/>
        <path data-name="패스 16766" d="M143.025 7h10.05a5.025 5.025 0 0 1 0 10.05h-10.05a5.025 5.025 0 1 1 0-10.05" transform="translate(-123.93 7.071)" style="fill:#bfc4d5"/>
        <path data-name="패스 16767" d="M144.379 4.355a2.011 2.011 0 0 1 3.14 0l3.857 4.822a2.01 2.01 0 0 1-1.57 3.266h-7.715a2.011 2.011 0 0 1-1.57-3.266z" transform="translate(-121.828 3.637)" style="fill:#dbe0eb"/>
    </g>
</svg>
