<svg xmlns="http://www.w3.org/2000/svg" width="24" height="24" viewBox="0 0 24 24">
    <path data-name="사각형 22017" style="fill:transparent" d="M0 0h24v24H0z"/>
    <g data-name="그룹 19871">
        <g data-name="그룹 19892">
            <path data-name="패스 16835" d="M3 18.606a3 3 0 0 1 0-6 3 3 0 0 1 1.872-4.759A3.041 3.041 0 0 1 4.8 7.2a3 3 0 0 1 2.288-2.916.994.994 0 0 1 .212-.509l2.722-3.4A1 1 0 0 1 11.428.22a1.033 1.033 0 0 1 .155.155l2.722 3.4a.989.989 0 0 1 .215.51 3 3 0 0 1 2.215 3.56 3 3 0 0 1 1.871 4.755 3 3 0 0 1 0 6z" style="fill:#9ba8bb" transform="translate(1.189 1.79)"/>
            <g data-name="그룹 19893">
                <path data-name="패스 16836" d="M11.406 5.3h4.768a2.993 2.993 0 0 0-1.432-1h-3.336z" style="fill:#dbe0eb" transform="translate(1.189 1.79)"/>
                <path data-name="패스 16837" d="M9.811 7.708H4.863c.005.026 0 .053.009.079a2.972 2.972 0 0 0-1.666.921h6.6z" style="fill:#dbe0eb" transform="translate(1.189 1.79)"/>
                <path data-name="패스 16838" d="M9.005 12.9h11a2.962 2.962 0 0 0-1.4-.362 3 3 0 0 0 .356-.638H9.005z" style="fill:#dbe0eb" transform="translate(1.189 1.79)"/>
                <path data-name="사각형 28083" transform="translate(14.195 10.191)" style="fill:#dbe0eb" d="M0 0h2v2H0z"/>
                <path data-name="사각형 28084" transform="translate(9.594 5.389)" style="fill:#dbe0eb" d="M0 0h2v2H0z"/>
                <path data-name="사각형 28085" transform="translate(6.594 12.192)" style="fill:#dbe0eb" d="M0 0h2v2H0z"/>
                <path data-name="사각형 28086" transform="translate(11.001 16.795)" style="fill:#dbe0eb" d="M0 0h2v2H0z"/>
                <path data-name="사각형 28087" transform="translate(4.594 16.795)" style="fill:#dbe0eb" d="M0 0h2v2H0z"/>
                <path data-name="사각형 28088" transform="translate(17.998 16.795)" style="fill:#dbe0eb" d="M0 0h2v2H0z"/>
            </g>
        </g>
    </g>
</svg>
