<svg xmlns="http://www.w3.org/2000/svg" width="48" height="48" viewBox="0 0 48 48">
    <path data-name="사각형 28035" style="fill:transparent" d="M0 0h48v48H0z"/>
    <g data-name="그룹 19936">
        <path data-name="패스 16816" d="M110.716 5.439a27.183 27.183 0 0 0-8.993.781 9.252 9.252 0 0 0-4.56 2.36c-.9 1.024-1.971 2.834-.4 3.8.46.285 1.12.291 1.383.907a1.416 1.416 0 0 1-.06 1.1 3.5 3.5 0 0 1-.624.871 19.519 19.519 0 0 0-3.787 4.758 7.8 7.8 0 0 0 .516 6.466c2.892 5.433 9.444 6.251 14.369 6.661a28.506 28.506 0 0 0 10.01-.735 15.031 15.031 0 0 0 7.682-4.893 12.992 12.992 0 0 0-2.111-18.251l-.036-.028a21.61 21.61 0 0 0-11.713-3.686 66.07 66.07 0 0 0-1.676-.112" transform="translate(-87.219 5.314)" style="fill:#dbe0eb"/>
        <path data-name="패스 16817" d="m112.284 10.5-.279.5c-.411.731-.851 1.1-1.313 1.1a2.627 2.627 0 0 1-1.341-.69 4.573 4.573 0 0 0-2.808-1.16 4.546 4.546 0 0 0-3.847 2.679l-.161.361 2.4 1.806.277-.506c.411-.753.851-1.136 1.3-1.136a2.609 2.609 0 0 1 1.349.694 4.527 4.527 0 0 0 2.792 1.164h.036a4.6 4.6 0 0 0 3.823-2.637l.171-.367z" transform="translate(-77.959 10.175)" style="fill:#bfc4d5"/>
        <path data-name="패스 16818" d="m106.176 13.679-.279.5c-.411.729-.851 1.1-1.313 1.1a2.64 2.64 0 0 1-1.339-.688 4.56 4.56 0 0 0-2.806-1.16 4.544 4.544 0 0 0-3.855 2.669l-.161.363 2.4 1.8.275-.506c.411-.753.851-1.136 1.3-1.136a2.631 2.631 0 0 1 1.349.694 4.51 4.51 0 0 0 2.792 1.164h.036a4.6 4.6 0 0 0 3.823-2.639l.171-.367z" transform="translate(-84.026 13.336)" style="fill:#bfc4d5"/>
        <path data-name="패스 16819" d="M106.06 6.616a48.023 48.023 0 0 0-1.81-2.868 1.741 1.741 0 0 0-2.856 0c-.036.054-.917 1.329-1.81 2.868a10.644 10.644 0 0 0-1.969 5.061 5.208 5.208 0 0 0 10.416 0 10.626 10.626 0 0 0-1.971-5.061" transform="translate(-82.842 2.979)" style="fill:#bfc4d5"/>
    </g>
</svg>
