<svg xmlns="http://www.w3.org/2000/svg" width="16" height="16" viewBox="0 0 16 16">
    <g transform="translate(-24 -528)">
        <path data-name="패스 16757" d="M8 0a8 8 0 1 1-8 8 8 8 0 0 1 8-8z" transform="translate(24 528)" style="fill:#6a798d"/>
        <rect data-name="사각형 29320" width="2" height="2" rx="1" transform="translate(31 539)" style="fill:#fff"/>
        <path data-name="패스 18201" d="m.36-6.82.87 1.02a3.917 3.917 0 0 1 .62-.42 1.466 1.466 0 0 1 .7-.16q.76 0 .76.84a1.61 1.61 0 0 1-.03.325 1.177 1.177 0 0 1-.11.3 1.756 1.756 0 0 1-.23.33 4.1 4.1 0 0 1-.4.395 1.787 1.787 0 0 0-.4.51 3.636 3.636 0 0 0-.265.64 4.074 4.074 0 0 0-.15.705 5.92 5.92 0 0 0-.045.725h1.61a4.331 4.331 0 0 1 .035-.525A3.176 3.176 0 0 1 3.45-2.7a2.623 2.623 0 0 1 .255-.56 2.154 2.154 0 0 1 .425-.5 5.105 5.105 0 0 0 .38-.38 2.009 2.009 0 0 0 .29-.42 2.166 2.166 0 0 0 .18-.48 2.394 2.394 0 0 0 .065-.58 2.233 2.233 0 0 0-.175-.895 1.973 1.973 0 0 0-.49-.69 2.177 2.177 0 0 0-.77-.44 3.1 3.1 0 0 0-1-.155 3.505 3.505 0 0 0-1.225.22 2.271 2.271 0 0 0-1.025.76z" transform="translate(29.5 539.5)" style="fill:#fff"/>
    </g>
</svg>
