<svg xmlns="http://www.w3.org/2000/svg" width="16" height="16" viewBox="0 0 16 16">
    <defs>
        <clipPath id="3xmdowa7oa">
            <path data-name="사각형 28452" style="fill:none" d="M0 0h13.5v12H0z"/>
        </clipPath>
    </defs>
    <path data-name="사각형 28193" style="fill:transparent" d="M0 0h16v16H0z"/>
    <g data-name="그룹 20132" style="clip-path:url(#3xmdowa7oa)" transform="translate(1.5 2)">
        <path data-name="패스 16931" d="m13.5 2.092-.081-.122a2.048 2.048 0 0 0-1.145-.833 2.151 2.151 0 0 0-1.913.34Q8.194 3 6.014 4.517a.366.366 0 0 1-.122.049c-.367-.245-.73-.5-1.092-.756l-.414-.291-1.2 1.214.149.1c.458.31.911.628 1.377.957l.3.209-.1.069c-.567.4-1.107.777-1.649 1.148h-.352L4.34 8.509l1.576-1.1.014.009c.057.038.113.074.167.113q2.072 1.457 4.144 2.908a4.374 4.374 0 0 0 .469.3 2.1 2.1 0 0 0 2.691-.722l.08-.122-5.551-3.9z" transform="translate(-.002)" style="fill:#ffcb21"/>
        <path data-name="패스 16932" d="M2.5 5A2.5 2.5 0 1 1 5 2.5 2.5 2.5 0 0 1 2.5 5m0-3.5a1 1 0 1 0 1 1 1 1 0 0 0-1-1" style="fill:#ff9621"/>
        <path data-name="패스 16933" d="M2.5 12A2.5 2.5 0 1 1 5 9.5 2.5 2.5 0 0 1 2.5 12m0-3.5a1 1 0 1 0 1 1 1 1 0 0 0-1-1" style="fill:#ff9621"/>
    </g>
</svg>
