<svg xmlns="http://www.w3.org/2000/svg" width="24" height="24" viewBox="0 0 24 24">
    <path data-name="사각형 22017" style="fill:transparent" d="M0 0h24v24H0z"/>
    <path data-name="패스 16861" d="M4.281 9.165a1 1 0 0 1-1-1V3.388a1 1 0 0 1 2 0v4.777a1 1 0 0 1-1 1" transform="translate(2.942 2.051)" style="fill:#e44747"/>
    <path data-name="패스 16862" d="M13.835 9.165a1 1 0 0 1-1-1V3.388a1 1 0 0 1 2 0v4.777a1 1 0 0 1-1 1" transform="translate(2.942 2.051)" style="fill:#e44747"/>
    <path data-name="사각형 28094" transform="translate(2.5 10.95)" style="fill:#ffb6a4" d="M0 0h19v9H0z"/>
    <path data-name="사각형 28095" transform="translate(2.5 19.95)" style="fill:#ff6767" d="M0 0h19v2H0z"/>
    <path data-name="패스 16863" d="M2 4.9h15a2 2 0 0 1 2 2v3H0v-3a2 2 0 0 1 2-2" transform="translate(2.5 2.051)" style="fill:#ff6767"/>
    <path data-name="패스 16864" d="M10 12.177V1a1 1 0 0 0-2 0v11.177a2 2 0 1 0 2 0" transform="translate(2.942 2.051)" style="fill:#e44747"/>
    <path data-name="사각형 28096" transform="translate(4.391 13.799)" style="fill:#ff6767" d="M0 0h1.791v1.791H0z"/>
    <path data-name="사각형 28097" transform="translate(6.182 17.382)" style="fill:#ff6767" d="M0 0h1.791v1.791H0z"/>
    <path data-name="사각형 28098" transform="translate(16.335 13.799)" style="fill:#ff6767" d="M0 0h1.791v1.791H0z"/>
</svg>
