<svg xmlns="http://www.w3.org/2000/svg" width="80" height="80" viewBox="0 0 80 80">
    <g data-name="그룹 23086" transform="translate(-143 -307)">
        <path data-name="사각형 33410" d="M5 0h41a8 8 0 0 1 8 8v38a8 8 0 0 1-8 8H5a5 5 0 0 1-5-5V5a5 5 0 0 1 5-5z" transform="translate(156 321)" style="fill:#c8c8c8"/>
        <path data-name="패스 17509" d="m5.588 0 26.824 3C35.343 3.265 38 5.236 38 8v47.969c-.092 2.769-2.5 4.618-5.588 5l-26.823 3a5.1 5.1 0 0 1-5.588-5V5a4.959 4.959 0 0 1 5.587-5z" transform="translate(172 315.028)" style="fill:#e5e5e5"/>
        <path data-name="빼기 377" d="M8396.283-2752a5.8 5.8 0 0 1-1.653-.236l24.783-2.771c3.3-.406 5.5-2.367 5.587-5v-47.973c0-2.915-2.879-4.75-5.587-5l-24.978-2.793a5.287 5.287 0 0 1 1.579-.234c.188 0 .381.009.573.028l26.823 3a7.05 7.05 0 0 1 3.895 1.563 4.487 4.487 0 0 1 1.694 3.433V-2760a4.583 4.583 0 0 1-1.673 3.395 7.352 7.352 0 0 1-3.916 1.6l-26.823 3c-.1.005-.202.005-.304.005z" transform="translate(-8219 3131)" style="fill:#dcdcdc"/>
        <rect data-name="사각형 33412" width="4" height="8" rx="2" transform="translate(178 343)" style="fill:#c8c8c8"/>
    </g>
</svg>
