<svg xmlns="http://www.w3.org/2000/svg" width="64" height="64" viewBox="0 0 64 64">
    <path data-name="사각형 29476" style="fill:transparent" d="M0 0h64v64H0z"/>
    <path data-name="합치기 537" d="M18.9 43.1a1.535 1.535 0 0 1 0-2.166L52.584 7.249a1.532 1.532 0 0 1 2.166 2.166L50 14.165v16.913C50 36 46.681 40 42.6 40H24.166l-3.1 3.1a1.533 1.533 0 0 1-2.166 0zm23.532-13.53a1.531 1.531 0 0 0 2.129 0 1.45 1.45 0 0 0 0-2.081l-3.987-3.9-2.1 2.1zM15.726 40H7.4C3.318 40 0 36 0 31.078V8.922C0 4 3.318 0 7.4 0h35.2c3.19 0 6.011 2.453 7.021 6.1L35.379 20.348a1.479 1.479 0 0 0-.132.115l-6.122 5.987-10.247-10.019a1.53 1.53 0 0 0-2.128 0L5.441 27.49a1.448 1.448 0 0 0 0 2.081 1.529 1.529 0 0 0 2.127 0l10.247-10.02 9.285 9.078L15.727 40zm11.711-25.5a3.5 3.5 0 1 0 3.5-3.5 3.5 3.5 0 0 0-3.5 3.5z" transform="translate(7 12)" style="fill:#b3b9cf"/>
</svg>
