<svg xmlns="http://www.w3.org/2000/svg" width="80" height="80" viewBox="0 0 80 80">
    <g transform="translate(-944 -541.775)">
        <path data-name="사각형 19261" transform="translate(944 541.775)" style="fill:none" d="M0 0h80v80H0z"/>
        <rect data-name="사각형 23680" width="56" height="50" rx="6" transform="translate(956 559.775)" style="fill:#e5e5e5"/>
        <path data-name="사각형 23682" d="M6 0h44a6 6 0 0 1 6 6v6H0V6a6 6 0 0 1 6-6z" transform="translate(956 559.775)" style="fill:#c8c8c8"/>
        <path data-name="사각형 23691" d="M3 0a3 3 0 0 1 3 3v9H0V3a3 3 0 0 1 3-3z" transform="translate(996 551.775)" style="fill:#c8c8c8"/>
        <path data-name="사각형 23692" d="M3 0a3 3 0 0 1 3 3v9H0V3a3 3 0 0 1 3-3z" transform="translate(966 551.775)" style="fill:#c8c8c8"/>
        <rect data-name="사각형 23694" width="36" height="4" rx="2" transform="translate(966 585.775)" style="fill:#c8c8c8"/>
        <rect data-name="사각형 23695" width="29" height="4" rx="2" transform="translate(966 595.775)" style="fill:#c8c8c8"/>
        <path data-name="빼기 21" d="M-7213-119.224h-3.993a6.008 6.008 0 0 0 5.994-6v-38a6.008 6.008 0 0 0-6-6h3.999a6.007 6.007 0 0 1 6 6v38a6.007 6.007 0 0 1-6 6z" transform="translate(8219 729)" style="fill:#111;opacity:.04"/>
    </g>
</svg>
