<svg xmlns="http://www.w3.org/2000/svg" width="80" height="80" viewBox="0 0 80 80">
    <path data-name="사각형 19261" style="fill:none" d="M0 0h80v80H0z"/>
    <path data-name="↳Color" d="M32 58c-2.32-.008-4.64-2.779-4.64-2.779C10.88 40.078 0 30.091 0 17.834A17.546 17.546 0 0 1 17.6 0C23.168 0 28.512 3.732 32 7.883 35.488 3.732 40.832 0 46.4 0A17.546 17.546 0 0 1 64 17.834c0 12.257-10.88 22.244-27.36 37.419 0 0-2.32 2.755-4.64 2.747z" transform="translate(8 11)" style="fill:#e5e5e5"/>
    <path data-name="빼기 337" d="M-2441.99-1709h-.01c-1.543-.005-3.1-1.256-3.891-2 2.262-.076 4.508-2.719 4.531-2.745l.125-.115c16.4-15.1 27.235-25.078 27.235-37.3a17.827 17.827 0 0 0-7.748-14.857 17.259 17.259 0 0 1 8.462 6.365 18.027 18.027 0 0 1 3.285 10.491c0 12.227-10.837 22.205-27.24 37.309l-.12.11c-.022.022-2.339 2.742-4.629 2.742z" transform="translate(2482 1778)" style="fill:#111;opacity:.04"/>
    <path data-name="패스 17364" d="M32.433 26.8a2 2 0 0 1-1.794-1.118L21.573 7.228l-2.827 8.342a2 2 0 0 1-1.894 1.358H2a2 2 0 1 1 0-4h13.418l3.921-11.57a2 2 0 0 1 3.689-.24l9.408 19.153 3.07-6.226a2 2 0 0 1 1.794-1.116h10.709a2 2 0 0 1 0 4h-9.466l-4.316 8.756a2 2 0 0 1-1.794 1.115" transform="translate(5.996 24)" style="fill:#c8c8c8"/>
</svg>
