<svg xmlns="http://www.w3.org/2000/svg" width="80" height="80" viewBox="0 0 80 80">
    <g data-name="그룹 22033" transform="translate(-1254.999 -711)">
        <path data-name="사각형 27940" d="M6 0a6 6 0 0 1 6 6v4H0V6a6 6 0 0 1 6-6z" transform="translate(1319 721)" style="fill:#dcdcdc"/>
        <path data-name="합치기 76" d="M-494 20412a4 4 0 0 1-4-4v-47a9 9 0 0 1 9-9h44.993a6.006 6.006 0 0 0-5.994 6v45a9 9 0 0 1-9 9z" transform="translate(1769 -19631)" style="fill:#e5e5e5"/>
        <rect data-name="사각형 27939" width="6" height="20" rx="1" transform="rotate(90 280 1025)" style="fill:#c8c8c8"/>
        <rect data-name="사각형 27931" width="6" height="20" rx="1" transform="translate(1292 738)" style="fill:#c8c8c8"/>
        <path data-name="빼기 350" d="M-449 20364h-40a9.01 9.01 0 0 1-9-9v-3h42v3a9.061 9.061 0 0 0 7 8.775v.225z" transform="translate(1757 -19583)" style="fill:#dcdcdc"/>
        <path data-name="빼기 368" d="M21850 13555h-4a9.011 9.011 0 0 0 9-9v-45a6.013 6.013 0 0 1 5.992-6h4a6.011 6.011 0 0 0-5.992 6v45a9.012 9.012 0 0 1-9 9z" transform="translate(-20540.002 -12773.998)" style="fill:#e5e5e5"/>
    </g>
</svg>
