<svg xmlns="http://www.w3.org/2000/svg" width="80" height="80" viewBox="0 0 80 80">
    <g data-name="그룹 22026" transform="translate(-1062 -711)">
        <rect data-name="사각형 27918" width="54" height="60" rx="6" transform="translate(1075 721)" style="fill:#e5e5e5"/>
        <path data-name="빼기 347" d="M-443.993 20412h-5a6.007 6.007 0 0 0 6-6v-48a6.009 6.009 0 0 0-5.995-6H-449h5.009a5.006 5.006 0 0 1 5 5v50a5.006 5.006 0 0 1-5.002 5z" transform="translate(1567.991 -19631)" style="fill:#dcdcdc"/>
        <rect data-name="사각형 27919" width="22" height="6" rx="1" transform="translate(1091 720)" style="fill:#c8c8c8"/>
        <path data-name="패스 17359" d="M9.778 17.612a1.99 1.99 0 0 1-1.414-.586L.586 9.248A2 2 0 0 1 3.414 6.42l6.364 6.363 12.2-12.2A2 2 0 0 1 24.8 3.414L11.192 17.026a1.99 1.99 0 0 1-1.414.586" transform="translate(1089 744)" style="fill:#c8c8c8"/>
    </g>
</svg>
