<svg xmlns="http://www.w3.org/2000/svg" width="80" height="80" viewBox="0 0 80 80">
    <g transform="translate(-949 -633)">
        <rect data-name="사각형 35940" width="24" height="52" rx="8" transform="translate(959 645)" style="fill:#e5e5e5"/>
        <rect data-name="사각형 35950" width="58" height="46" rx="8" transform="translate(959 653)" style="fill:#e5e5e5"/>
        <path data-name="빼기 382" d="M21962 13375h-4a6.007 6.007 0 0 0 6-6v-34a6.008 6.008 0 0 0-6-6h4a6.006 6.006 0 0 1 6 6v34a6.006 6.006 0 0 1-6 6z" transform="translate(-20951 -12676)" style="fill:#dcdcdc"/>
        <path data-name="패스 17523" d="M1.091 0h21.818A1.048 1.048 0 0 1 24 1v4a1.048 1.048 0 0 1-1.091 1H1.091A1.048 1.048 0 0 1 0 5V1a1.048 1.048 0 0 1 1.091-1z" transform="translate(976 673)" style="fill:#c8c8c8"/>
        <rect data-name="사각형 35956" width="6" height="24" rx="1" transform="translate(985 664)" style="fill:#c8c8c8"/>
    </g>
</svg>
