<svg xmlns="http://www.w3.org/2000/svg" width="80" height="80" viewBox="0 0 80 80">
    <g transform="translate(-1270 -734)">
        <path data-name="사각형 19261" transform="translate(1270 734)" style="fill:none" d="M0 0h80v80H0z"/>
        <path data-name="패스 16582" d="M.223 11.8C1.52 8.057 25.121-1 28.842-1S55.675 9.206 57.457 11.8s-1.689 22.408-6.733 32S33.24 63 28.842 63 11.857 52.666 6.96 43.8s-8.033-28.257-6.737-32z" transform="translate(1280.07 742)" style="fill:#e5e5e5"/>
        <path data-name="패스 16585" d="M1.091 0h21.818A1.048 1.048 0 0 1 24 1v4a1.048 1.048 0 0 1-1.091 1H1.091A1.048 1.048 0 0 1 0 5V1a1.048 1.048 0 0 1 1.091-1z" transform="translate(1297 768)" style="fill:#c8c8c8"/>
        <rect data-name="사각형 23701" width="6" height="24" rx="1" transform="translate(1306 759)" style="fill:#c8c8c8"/>
        <path data-name="빼기 336" d="M-2251.088-2075c-1.211 0-3.077-.778-5.4-2.25a4.836 4.836 0 0 0 1.4.249c4.329 0 16.775-9.488 21.882-19.2 2.261-4.3 4.476-11.262 5.926-18.624 1.332-6.764 1.656-12.139.807-13.376-.438-.637-2.205-1.783-5.111-3.312 5.173 2.477 8.494 4.414 9.111 5.313.849 1.237.525 6.612-.807 13.375-1.45 7.363-3.666 14.325-5.927 18.624-5.105 9.713-17.552 19.201-21.881 19.201z" transform="translate(3560 2880)" style="fill:#111;opacity:.04"/>
    </g>
</svg>
