<svg xmlns="http://www.w3.org/2000/svg" width="73" height="73" viewBox="0 0 73 73">
    <defs>
        <linearGradient id="4fajtqqy1a" x1=".274" y1=".128" x2=".748" y2="1" gradientUnits="objectBoundingBox">
            <stop offset="0" stop-color="#f6f0a4"/>
            <stop offset="1" stop-color="#ffc640"/>
        </linearGradient>
    </defs>
    <path data-name="사각형 29468" style="fill:transparent" d="M0 0h73v73H0z"/>
    <g data-name="그룹 21290">
        <g data-name="그룹 21280" transform="translate(-20789.043 -5540.043)">
            <circle data-name="타원 2257" cx="24" cy="24" r="24" transform="translate(20812.043 5553.043)" style="fill:url(#4fajtqqy1a)"/>
            <g data-name="타원 2258" transform="translate(20816.043 5557.043)" style="mix-blend-mode:multiply;isolation:isolate;stroke:#ffd582;stroke-width:1.5px;fill:none">
                <circle cx="20" cy="20" r="20" style="stroke:none"/>
                <circle cx="20" cy="20" r="19.25" style="fill:none"/>
            </g>
            <path data-name="패스 18243" d="M8.82-13.412a7.633 7.633 0 0 0-.546-2.926A6.483 6.483 0 0 0 6.72-18.62a6.886 6.886 0 0 0-2.478-1.47 9.943 9.943 0 0 0-3.318-.518H-9.1v3.976h2.324V0h4.7v-6.188h2.86A10.645 10.645 0 0 0 3.99-6.65a7.413 7.413 0 0 0 2.548-1.358 6.088 6.088 0 0 0 1.68-2.254 7.71 7.71 0 0 0 .602-3.15zm-4.76 0a2.882 2.882 0 0 1-.938 2.282 3.874 3.874 0 0 1-2.646.83h-2.548v-6.22H.364a4.238 4.238 0 0 1 2.716.784 2.8 2.8 0 0 1 .98 2.324z" transform="translate(20837.043 5588.043)" style="fill:#ffd582;mix-blend-mode:multiply;isolation:isolate"/>
        </g>
        <g data-name="그룹 21283">
            <path data-name="패스 12302" d="M734.633 485.059s.224 1.821 2.967 3.778a7.84 7.84 0 0 0 2.407-.9c.7-.544 1.848-1.495 1.512-1.875a13.239 13.239 0 0 1-2.3-2.935c-.672-1.359-1.344.326-2.687.544s-2.179.57-1.899 1.388z" transform="translate(-668.58 -468.288)" style="fill:#26cc9f"/>
            <path data-name="패스 12303" d="M764.884 557.284s2.205.355 5.406-2.009a8.516 8.516 0 0 0-.25-2.938c-.4-.947-1.136-2.521-1.693-2.278a16.366 16.366 0 0 1-4.2 1.55c-1.813.288-.064 1.582-.256 3.129s-.057 2.583.993 2.546z" transform="translate(-701.321 -499.033)" style="fill:#ff4a4a"/>
            <path data-name="패스 18242" d="M1795.877 272.569s.976 1.3 3.891 1.618a6.644 6.644 0 0 0 1.395-1.728c.28-.719.711-1.944.292-2.091a11.684 11.684 0 0 1-3.015-1.261c-1.1-.753-.856.83-1.76 1.577s-1.38 1.378-.803 1.885z" transform="translate(-1790.628 -242.66)" style="fill:#26cc9f"/>
            <g data-name="그룹 13206">
                <g data-name="그룹 13204">
                    <path data-name="패스 12304" d="M1020.923 264.957a4.816 4.816 0 0 0-.974-5.186s-1.645 1.256-1.706 1.99c0 0 1.894 2.293-.112 5.586a10.8 10.8 0 0 0 2.792-2.39z" transform="translate(-994.703 -251.267)" style="fill:#4d4ede"/>
                </g>
                <g data-name="그룹 13205">
                    <path data-name="패스 12305" d="M984.121 306.141s4.7-.382 7.093-6.44c0 0-3.528 3.64-6.412 2.857a4.834 4.834 0 0 0-.681 3.583z" transform="translate(-964.995 -286.011)" style="fill:#7a7bff"/>
                </g>
            </g>
            <g data-name="그룹 21288">
                <path data-name="패스 11016" d="M5.3 5.623a11.974 11.974 0 0 1-3.724-2.138A6.94 6.94 0 0 1 .178 2.04c-.349-.554-.13-.987.191-1.49A5.308 5.308 0 0 1 .751 0v.163a1.873 1.873 0 0 0 .1.466H.8a1.473 1.473 0 0 0 .175.326 9.353 9.353 0 0 0 2.213 2.134 14.9 14.9 0 0 0 2.73 1.644s-.494.936-.618.89zM.7.224" transform="rotate(-56 62.746 14.642)" style="fill:#ffcb21"/>
                <path data-name="패스 11017" d="M0 0v.028A.267.267 0 0 1 0 0z" transform="rotate(-56 58.574 6.183)" style="fill:#407bff"/>
                <path data-name="패스 11018" d="M8.353 1.246a.318.318 0 0 1-.023-.061.582.582 0 0 0-.047-.093A1.453 1.453 0 0 0 8.148.86V.832a2.888 2.888 0 0 1-.629.079A16.007 16.007 0 0 1 5.19.683 42.437 42.437 0 0 1 2.888.315 4.8 4.8 0 0 0 .662.077 1.427 1.427 0 0 0 0 .543v.163a1.873 1.873 0 0 0 .1.466 3.366 3.366 0 0 1 1.16.13q1.523.312 3.061.526a10.859 10.859 0 0 0 2.739.219 1.779 1.779 0 0 0 1.293-.801z" transform="rotate(-56 61.866 14.249)" style="fill:#ff9621"/>
                <path data-name="패스 11020" d="M7.895 5.194A26.3 26.3 0 0 0 5.16 3.582c-.932-.55-1.891-1.113-2.837-1.672A5 5 0 0 1 .954.969h.028A.933.933 0 0 1 .847.205 1.113 1.113 0 0 1 .926 0a2.267 2.267 0 0 0-.5.6c-.293.466-.615.885-.279 1.4a4.021 4.021 0 0 0 1.445 1.056q2.236 1.281 4.449 2.585c.522.312 1.426.68 1.654 1.318v.033a1.45 1.45 0 0 1 .135.233.58.58 0 0 1 .047.093.319.319 0 0 0 .023.061c.065-.093.126-.186.191-.289a1.766 1.766 0 0 0 .4-.978 1.332 1.332 0 0 0-.596-.918z" transform="rotate(-56 55.894 16.888)" style="fill:#ffcb21"/>
                <path data-name="합치기 536" d="M-20497.8-6740.081a2.161 2.161 0 0 0-.422-.463 8.581 8.581 0 0 0-.932-.792 14.759 14.759 0 0 0-2.084-1.255c-.031-.01.561-1.137.705-1.085a8.208 8.208 0 0 1 3.313 2.171 1.012 1.012 0 0 1 .15 1.25l-.16.113c.006-.042-.051-.01-.17.077a.832.832 0 0 1-.189.093 1.486 1.486 0 0 1-.154.041.773.773 0 0 0-.057-.15zm.4.036c.119-.093.176-.118.17-.077a1.553 1.553 0 0 1-.359.17 1.1 1.1 0 0 0 .189-.093z" transform="rotate(-56 -3858.03 -22637.038)" style="stroke:transparent;stroke-miterlimit:10;fill:#ffcb21"/>
                <path data-name="패스 11022" d="m8.355 1.2-.155.117a1.677 1.677 0 0 1-.359.168l-.158.047a1.757 1.757 0 0 1-.494.028 6.879 6.879 0 0 1-1.224-.26L3.407.637A21.293 21.293 0 0 0 .91.018 1.034 1.034 0 0 0 .109.2 1.12 1.12 0 0 0 .03.4a.933.933 0 0 0 .135.764 9.493 9.493 0 0 1 1.29.345l2.166.564c.736.191 1.467.4 2.208.568a1.864 1.864 0 0 0 1.537-.126 3.7 3.7 0 0 0 .992-1.314z" transform="rotate(-56 55.266 16.232)" style="fill:#ff9621"/>
                <path data-name="패스 11024" d="M.158 0A1.557 1.557 0 0 1 0 .042z" transform="rotate(-56 52.836 8.262)" style="fill:#407bff"/>
            </g>
        </g>
    </g>
</svg>
