<svg xmlns="http://www.w3.org/2000/svg" width="44" height="73" viewBox="0 0 44 73">
    <path data-name="사각형 29469" style="fill:none" d="M0 0h44v73H0z"/>
    <g data-name="그룹 21289">
        <g data-name="그룹 21282">
            <path data-name="패스 12299" d="M1795.918 273.069s1.139 1.478 4.538 1.839a7.6 7.6 0 0 0 1.626-1.964c.327-.817.83-2.21.34-2.377a13.829 13.829 0 0 1-3.517-1.434c-1.287-.856-1 .944-2.052 1.793s-1.602 1.567-.935 2.143z" transform="translate(-1775.627 -207.909)" style="fill:#ffcb21"/>
            <path data-name="패스 12300" d="M1795.877 272.435s.977 1.253 3.889 1.559a6.456 6.456 0 0 0 1.394-1.665c.28-.693.711-1.873.292-2.015a11.935 11.935 0 0 1-3.014-1.215c-1.1-.725-.855.8-1.759 1.52s-1.379 1.328-.802 1.816z" transform="translate(-1795.627 -261.374)" style="fill:#7a7bff"/>
            <path data-name="패스 12301" d="M1748.52 337.932s1.751.292 4.293-1.652a7.253 7.253 0 0 0-.2-2.416c-.32-.779-.9-2.073-1.344-1.873a12.755 12.755 0 0 1-3.333 1.274c-1.44.237-.051 1.3-.2 2.572s-.049 2.125.784 2.095z" transform="translate(-1715.728 -295.48)" style="fill:#ff4a4a"/>
            <g data-name="그룹 13209">
                <g data-name="그룹 13207">
                    <path data-name="패스 12306" d="M2105.63 756.3a5.319 5.319 0 0 0 4.2-4.19s-2.094-.853-2.8-.457a5.26 5.26 0 0 1-5.184 3.36s2.554 1.36 3.784 1.287z" transform="rotate(30 2377.866 -3454.675)" style="fill:#4d4ede"/>
                </g>
                <g data-name="그룹 13208">
                    <path data-name="패스 12307" d="M2057.842 754.144s3.046 4.421 9.972 3.037c0 0-5.36-1.24-6.3-4.584a4.986 4.986 0 0 0-3.672 1.547z" transform="rotate(30 2360.56 -3383.346)" style="fill:#7a7bff"/>
                </g>
            </g>
            <g data-name="그룹 21287">
                <path data-name="패스 11016" d="M293.97 125.688a11.974 11.974 0 0 0-3.727 2.138 6.939 6.939 0 0 0-1.4 1.444c-.349.554-.13.988.191 1.491a5.308 5.308 0 0 0 .382.55v-.163a1.873 1.873 0 0 1 .1-.466h-.051a1.473 1.473 0 0 1 .177-.326 9.353 9.353 0 0 1 2.213-2.134 14.9 14.9 0 0 1 2.73-1.644s-.494-.937-.615-.89zm-4.607 5.4" style="fill:#26cc9f" transform="rotate(56.01 259.35 -185.112)"/>
                <path data-name="패스 11017" d="M307.67 137.148v-.028a.267.267 0 0 0 0 .028z" transform="rotate(56.01 270.166 -191.602)" style="fill:#407bff"/>
                <path data-name="패스 11018" d="M298.553 135.347a.318.318 0 0 0-.023.061.582.582 0 0 1-.047.093 1.453 1.453 0 0 1-.135.233v.028a2.888 2.888 0 0 0-.629-.079 16.008 16.008 0 0 0-2.329.228c-.773.1-1.542.224-2.3.368a4.8 4.8 0 0 1-2.227.238 1.427 1.427 0 0 1-.661-.466v-.163a1.873 1.873 0 0 1 .1-.466 3.366 3.366 0 0 0 1.16-.13q1.523-.312 3.061-.526a10.858 10.858 0 0 1 2.739-.219 1.779 1.779 0 0 1 1.291.8z" transform="rotate(56.01 264.203 -183.52)" style="fill:#00a49d"/>
                <path data-name="패스 11019" d="M298.553 135.347a.318.318 0 0 0-.023.061.582.582 0 0 1-.047.093 1.453 1.453 0 0 1-.135.233v.028a2.888 2.888 0 0 0-.629-.079 16.008 16.008 0 0 0-2.329.228c-.773.1-1.542.224-2.3.368a4.8 4.8 0 0 1-2.227.238 1.427 1.427 0 0 1-.661-.466v-.163a1.873 1.873 0 0 1 .1-.466 3.366 3.366 0 0 0 1.16-.13q1.523-.312 3.061-.526a10.858 10.858 0 0 1 2.739-.219 1.779 1.779 0 0 1 1.291.8z" transform="rotate(56.01 264.203 -183.52)" style="fill:#179e79;opacity:.2;isolation:isolate"/>
                <path data-name="패스 11020" d="M299.048 138.425a26.3 26.3 0 0 1-2.735 1.612c-.932.55-1.891 1.113-2.837 1.672a5 5 0 0 0-1.37.941h.028a.933.933 0 0 0-.135.764 1.113 1.113 0 0 0 .079.2 2.266 2.266 0 0 1-.5-.6c-.293-.466-.615-.885-.279-1.4a4.021 4.021 0 0 1 1.449-1.062q2.236-1.281 4.449-2.585c.522-.312 1.426-.68 1.654-1.318v-.033a1.45 1.45 0 0 0 .135-.233.58.58 0 0 0 .047-.093.319.319 0 0 1 .023-.061c.065.093.126.186.191.289a1.766 1.766 0 0 1 .4.978 1.332 1.332 0 0 1-.599.929z" transform="rotate(56.01 265.314 -183.543)" style="fill:#26cc9f"/>
                <path data-name="패스 11021" d="M305.919 150.885a8.155 8.155 0 0 1-3.317 2.171c-.14.051-.731-1.071-.7-1.085a15.027 15.027 0 0 0 2.087-1.253 9.5 9.5 0 0 0 .932-.792 2.205 2.205 0 0 0 .419-.466.608.608 0 0 0 .056-.149 1.547 1.547 0 0 1 .158.042.871.871 0 0 1 .186.093c.121.089.177.116.172.075l.158.116a1.016 1.016 0 0 1-.151 1.248z" transform="rotate(56.01 274.748 -185.449)" style="fill:#26cc9f"/>
                <path data-name="패스 11022" d="m301.27 148.218-.158-.116a1.677 1.677 0 0 0-.359-.168l-.158-.047a1.757 1.757 0 0 0-.494-.028 6.88 6.88 0 0 0-1.221.261l-2.557.662a21.291 21.291 0 0 1-2.5.62 1.034 1.034 0 0 1-.8-.182 1.12 1.12 0 0 1-.079-.2.933.933 0 0 1 .135-.764 9.494 9.494 0 0 0 1.29-.345l2.166-.564c.736-.191 1.467-.4 2.208-.568a1.864 1.864 0 0 1 1.537.126 3.7 3.7 0 0 1 .992 1.314z" transform="rotate(56.01 271.02 -181.644)" style="fill:#00a49d"/>
                <path data-name="패스 11023" d="m301.27 148.218-.158-.116a1.677 1.677 0 0 0-.359-.168l-.158-.047a1.757 1.757 0 0 0-.494-.028 6.88 6.88 0 0 0-1.221.261l-2.557.662a21.291 21.291 0 0 1-2.5.62 1.034 1.034 0 0 1-.8-.182 1.12 1.12 0 0 1-.079-.2.933.933 0 0 1 .135-.764 9.494 9.494 0 0 0 1.29-.345l2.166-.564c.736-.191 1.467-.4 2.208-.568a1.864 1.864 0 0 1 1.537.126 3.7 3.7 0 0 1 .992 1.314z" transform="rotate(56.01 271.02 -181.644)" style="fill:#179e79;opacity:.2;isolation:isolate"/>
                <path data-name="패스 11024" d="M309.558 149.312a1.557 1.557 0 0 0-.158-.042z" transform="rotate(56.01 276.73 -189.227)" style="fill:#407bff"/>
                <path data-name="패스 11025" d="M309.926 149.453a.871.871 0 0 0-.186-.093 1.677 1.677 0 0 1 .359.168c.001.042-.052.014-.173-.075z" transform="rotate(56.01 276.866 -189.374)" style="fill:#407bff"/>
            </g>
        </g>
    </g>
</svg>
