<svg xmlns="http://www.w3.org/2000/svg" width="44" height="44" viewBox="0 0 44 44">
    <g data-name="그룹 23016">
        <g data-name="사각형 33088" style="stroke:#fff;stroke-width:2px;fill:none">
            <path d="M0 0h16v13a4 4 0 0 1-4 4H4a4 4 0 0 1-4-4V0z" style="stroke:none" transform="translate(14 15)"/>
            <path d="M1 1h14v12a3 3 0 0 1-3 3H4a3 3 0 0 1-3-3V1z" style="fill:none" transform="translate(14 15)"/>
        </g>
        <g data-name="사각형 33089" style="stroke:#fff;stroke-width:2px;fill:none">
            <path d="M2 0h7a2 2 0 0 1 2 2v4H0V2a2 2 0 0 1 2-2z" style="stroke:none" transform="translate(16.5 11)"/>
            <path d="M2 1h7a1 1 0 0 1 1 1v3H1V2a1 1 0 0 1 1-1z" style="fill:none" transform="translate(16.5 11)"/>
        </g>
        <path data-name="선 29" transform="translate(13.5 16)" style="stroke-linecap:round;stroke:#fff;stroke-width:2px;fill:none" d="M0 0h17"/>
        <path data-name="선 30" transform="translate(19.5 20)" style="stroke-linecap:round;stroke:#fff;stroke-width:2px;fill:none" d="M0 0v6.5"/>
        <path data-name="선 31" transform="translate(24.5 20)" style="stroke-linecap:round;stroke:#fff;stroke-width:2px;fill:none" d="M0 0v6.5"/>
    </g>
</svg>
