<svg xmlns="http://www.w3.org/2000/svg" width="24" height="24" viewBox="0 0 24 24">
    <g data-name="그룹 23620">
        <path data-name="패스 17544" d="M7.293 11.518a.744.744 0 0 1-.53-.22L4.641 9.177A.75.75 0 0 1 5.7 8.117l1.591 1.59 3.005-3a.75.75 0 1 1 1.061 1.06L7.823 11.3a.744.744 0 0 1-.53.22" transform="translate(4 3.017)" style="fill:#111"/>
        <path data-name="패스 17545" d="M16.236 4.024A1.984 1.984 0 0 1 16.5 5a2.019 2.019 0 0 1-.083.542A2.5 2.5 0 0 1 18.5 8v8a2.5 2.5 0 0 1-2.5 2.5H8A2.5 2.5 0 0 1 5.5 16V8a2.5 2.5 0 0 1 2.083-2.458A2.018 2.018 0 0 1 7.5 5a1.984 1.984 0 0 1 .264-.976A3.989 3.989 0 0 0 4 8v8a4 4 0 0 0 4 4h8a4 4 0 0 0 4-4V8a3.989 3.989 0 0 0-3.764-3.976"/>
        <path data-name="패스 17546" d="M14.5 4.5a.5.5 0 0 1 0 1h-5a.5.5 0 0 1 0-1zm0-1.5h-5a2 2 0 0 0 0 4h5a2 2 0 0 0 0-4"/>
    </g>
</svg>
