<svg xmlns="http://www.w3.org/2000/svg" width="24" height="24" viewBox="0 0 24 24">
    <g data-name="그룹 23961">
        <path data-name="패스 17661" d="M13.5 7.478v5a1.5 1.5 0 0 1-1.5 1.5H3a1.5 1.5 0 0 1-1.5-1.5v-9a1.5 1.5 0 0 1 1.5-1.5h5v-1.5H3a3 3 0 0 0-3 3v9a3 3 0 0 0 3 3h9a3 3 0 0 0 3-3v-5z" style="fill:#111" transform="translate(4 4)"/>
        <path data-name="패스 17662" d="M15.109.369a1.26 1.26 0 0 1 0 1.782l-.445.445L12.882.814l.445-.445a1.26 1.26 0 0 1 1.782 0" style="fill:#111" transform="translate(4 4)"/>
        <path data-name="패스 17663" d="m11.991 1.705 1.782 1.782-6.237 6.237H5.754V7.942z" style="fill:#111" transform="translate(4 4)"/>
    </g>
</svg>
