<svg xmlns="http://www.w3.org/2000/svg" width="32" height="32" viewBox="0 0 32 32">
    <g data-name="그룹 22075">
        <path data-name="합치기 78" d="M1525.671 20357.609a1.013 1.013 0 0 1-.889-.562l-.8-1.654H1523a1 1 0 0 1 0-2h.017a1 1 0 0 1 1.817-.828l.879 1.809.511-1a1.013 1.013 0 0 1 .9-.547 1 1 0 0 1 .889.568l.419.863.858-1.713a1.007 1.007 0 0 1 1.344-.443.991.991 0 0 1 .468 1.289 1 1 0 0 1-.069 2h-.93l-.792 1.578a1.082 1.082 0 0 1-.9.553 1 1 0 0 1-.894-.562l-.429-.889-.516 1a.993.993 0 0 1-.889.541z" transform="translate(-1511.017 -20341.609)" style="fill:#8492a1"/>
        <path data-name="패스 17397" d="M20.293 7.12a1 1 0 0 1 0 1.414L7.565 21.262a1 1 0 0 1-1.414-1.414L18.879 7.12a1 1 0 0 1 1.414 0" transform="translate(7 6)" style="fill:#8492a1"/>
        <path data-name="패스 17398" d="M6.171 17H4a2 2 0 0 1-2-2V4a2 2 0 0 1 2-2h10a2 2 0 0 1 2 2v3.171l2-2V4a4 4 0 0 0-4-4H4a4 4 0 0 0-4 4v11a4 4 0 0 0 4 4h.171z" transform="translate(7 6)" style="fill:#8492a1"/>
        <path data-name="패스 17399" d="M16 10v5a2 2 0 0 1-2 2H9l-2 2h7a4 4 0 0 0 4-4V8z" transform="translate(7 6)" style="fill:#8492a1"/>
    </g>
</svg>
