<svg xmlns="http://www.w3.org/2000/svg" width="16" height="16" viewBox="0 0 16 16">
    <path data-name="사각형 21655" style="fill:none" d="M0 0h16v16H0z"/>
    <g data-name="합치기 61" style="fill:#fff">
        <path d="M7278.5-9490.75v-5.751a2 2 0 0 0-2-2H7271.752a.75.75 0 0 1-.751-.748.751.751 0 0 1 .751-.751h4.748a3.506 3.506 0 0 1 3.5 3.5v3.172a.685.685 0 0 1 0 .078v2.5a.75.75 0 0 1-.749.751.751.751 0 0 1-.751-.751z" style="stroke:none" transform="translate(-7266 9501.001)"/>
        <path d="M7279.251-9489.999a.75.75 0 0 1-.751-.751v-5.751c0-1.102-.896-2-2-2h-2.192l-.057.002h-2.501a.75.75 0 1 1 0-1.499h2.501c.02 0 .04 0 .06.002.063-.003.125-.005.188-.005h2c1.93 0 3.5 1.571 3.5 3.5v3.002c0 .058-.001.114-.004.172a.685.685 0 0 1 .005.078v2.499a.75.75 0 0 1-.749.751z" style="fill:#111;stroke:none" transform="translate(-7266 9501.001)"/>
    </g>
    <g data-name="빼기 14" style="fill:none">
        <path d="M7278-9490h-5a2 2 0 0 1-2-2v-6a2 2 0 0 1 2-2h5a2 2 0 0 1 2 2v6a2 2 0 0 1-2 2zm-5-8.5a.5.5 0 0 0-.5.5v6a.5.5 0 0 0 .5.5h5a.5.5 0 0 0 .5-.5v-6a.5.5 0 0 0-.5-.5z" style="stroke:none" transform="translate(-7269 9504.001)"/>
        <path d="M7277.999-9489.999h-5c-1.103 0-2-.897-2-2V-9498c0-1.104.897-2.001 2-2.001h5c1.103 0 2 .897 2 2.001v6.001c0 1.103-.897 2-2 2zm-5-8.502a.5.5 0 0 0-.498.501v5.998a.5.5 0 0 0 .499.501h4.999a.501.501 0 0 0 .501-.501V-9498a.501.501 0 0 0-.501-.501h-5z" style="fill:#111;stroke:none" transform="translate(-7269 9504.001)"/>
    </g>
</svg>
