<svg xmlns="http://www.w3.org/2000/svg" width="24" height="24" viewBox="0 0 24 24">
    <path data-name="사각형 21687" style="fill:none" d="M0 0h24v24H0z"/>
    <path data-name="패스 1" d="M2.495 0H0v3.972a1.143 1.143 0 0 0 .062.512.942.942 0 0 0 .4.343l1.693.944s.174.066.258 0 .078-.266.078-.266z" transform="translate(10.755 11.5)" style="fill:#243b57"/>
    <path data-name="다각형 2" d="M5.241.886a1 1 0 0 1 1.519 0l3.826 4.463A1 1 0 0 1 9.826 7H2.174a1 1 0 0 1-.759-1.651z" transform="rotate(180 9 7.25)" style="fill:#243b57"/>
</svg>
