<svg xmlns="http://www.w3.org/2000/svg" width="32" height="32" viewBox="0 0 32 32">
    <g transform="translate(-1270 -229)">
        <path data-name="패스 16533" d="M7240-9493h-3a3 3 0 0 1-3-3v-5h7a2 2 0 0 1 2 2v3a3 3 0 0 1-3 3zm-4-6v3a1 1 0 0 0 1 1h3a1 1 0 0 0 1-1v-3z" transform="translate(-5952.5 9737)" style="fill:#fff"/>
        <path data-name="패스 16532" d="M311.638 444.4a2 2 0 0 0 2-2v-8.92l-3.083-3.082h-8.915a2 2 0 0 0-2 2v10a2 2 0 0 0 2 2h10m0 2h-10a4 4 0 0 1-4-4v-10a4.005 4.005 0 0 1 4-4h8.915a2 2 0 0 1 1.414.585l3.083 3.083a2 2 0 0 1 .586 1.414v8.92a4 4 0 0 1-4 4z" transform="translate(979.362 -192.398)" style="fill:#fff"/>
        <rect data-name="사각형 22147" width="6" height="2" rx="1" transform="translate(1283 247.5)" style="fill:#fff"/>
    </g>
</svg>
