<svg xmlns="http://www.w3.org/2000/svg" width="32" height="32" viewBox="0 0 32 32">
    <path data-name="패스 17391" d="M34.975 5.828h-5a1 1 0 1 0 0 2h5a1 1 0 0 0 0-2" transform="translate(-16.475 6)" style="fill:#8492a1"/>
    <path data-name="패스 17392" d="M34.975 9.507h-5a1 1 0 0 0 0 2h5a1 1 0 1 0 0-2" transform="translate(-16.475 6)" style="fill:#8492a1"/>
    <path data-name="패스 17369" d="M11.538 1.923h-.318l.265-.531A.962.962 0 1 0 9.766.531L8.2 3.651l-.948-1.957a.963.963 0 0 0-.852-.543h-.013a.962.962 0 0 0-.855.521L4.44 3.792 2.864.541a.962.962 0 0 0-1.731.841l.263.541H.962a.962.962 0 1 0 0 1.923h1.367l1.22 2.517A.962.962 0 0 0 4.4 6.9h.012a.961.961 0 0 0 .855-.521l1.094-2.115.96 1.98a.96.96 0 0 0 .859.542.907.907 0 0 0 .866-.531l1.209-2.409h1.284a.962.962 0 0 0 0-1.923" transform="translate(16 19.328)" style="fill:#8492a1"/>
    <path data-name="패스 17396" d="M6 18H4a2 2 0 0 1-2-2V3a1 1 0 0 1 .7-.954l1.862.794.739.315.751-.283 1.929-.727 1.8.713.743.3.742-.3 2.024-.817A1 1 0 0 1 14 3v7.508a1 1 0 1 0 2 0V3a3 3 0 0 0-3-3l-2.485 1L8 0 5.346 1 3 0a3 3 0 0 0-3 3v13a4 4 0 0 0 4 4h2a1 1 0 0 0 0-2" transform="translate(8 6)" style="fill:#8492a1"/>
</svg>
