<svg xmlns="http://www.w3.org/2000/svg" width="24" height="24" viewBox="0 0 24 24">
    <defs>
        <clipPath id="xftvg34lja">
            <path data-name="사각형 33313" style="fill:none" d="M0 0h14.7v15H0z"/>
        </clipPath>
    </defs>
    <g data-name="그룹 23121" transform="translate(4.65 4.5)" style="clip-path:url(#xftvg34lja)">
        <path data-name="패스 17485" d="M6.725 1.5A5.236 5.236 0 1 1 1.5 6.74 5.236 5.236 0 0 1 6.725 1.5m0-1.5a6.74 6.74 0 1 0 6.725 6.74A6.732 6.732 0 0 0 6.725 0" style="fill:#111"/>
        <path data-name="패스 17486" d="M13.946 14.974a.744.744 0 0 1-.53-.221l-2.829-2.835a.751.751 0 1 1 1.06-1.064l2.829 2.836a.752.752 0 0 1 0 1.063.744.744 0 0 1-.53.221" transform="translate(.004 .026)" style="fill:#111"/>
    </g>
</svg>
