<svg xmlns="http://www.w3.org/2000/svg" width="32" height="32" viewBox="0 0 32 32">
    <path data-name="패스 16543" d="M6030.034-9739.716a1 1 0 0 1-1-1 .992.992 0 0 1 .106-.449 1 1 0 0 1 .231-.36l2.475-2.475a1 1 0 0 1 1.416 0 1 1 0 0 1 0 1.413l-.872.871h3.642a1 1 0 0 1 1 1 1 1 0 0 1-1 1z" transform="translate(-6011.534 9759.043)" style="fill:#8492a1"/>
    <path data-name="패스 16560" d="M6036.032-9744.292a1 1 0 0 1 1 1 .992.992 0 0 1-.106.449 1 1 0 0 1-.231.36l-2.475 2.475a1 1 0 0 1-1.416 0 1 1 0 0 1 0-1.413l.872-.871h-3.642a1 1 0 0 1-1-1 1 1 0 0 1 1-1z" transform="translate(-6011.535 9765.043)" style="fill:#8492a1"/>
    <path data-name="패스 16561" d="M8.5 8a4 4 0 1 1 4-4 4 4 0 0 1-4 4m0-6a2 2 0 1 0 2 2 2 2 0 0 0-2-2" transform="translate(7.5 6.25)" style="fill:#8492a1"/>
    <path data-name="패스 16562" d="M9 19.5H2.726A2.732 2.732 0 0 1 0 16.774 7.28 7.28 0 0 1 7.274 9.5h.514a.74.74 0 0 1 .163 0H8v.005a1 1 0 0 1 0 1.983v.012h-.855A5.148 5.148 0 0 0 2 16.641a.861.861 0 0 0 .858.861H9a1 1 0 1 1 0 2z" transform="translate(7.5 6.25)" style="fill:#8492a1"/>
</svg>
