<svg xmlns="http://www.w3.org/2000/svg" width="32" height="32" viewBox="0 0 32 32">
    <g data-name="패스 17496" style="fill:none">
        <path d="M8049 16712.988h-1a4.005 4.005 0 0 1-4-4v-10a4.014 4.014 0 0 1 3.666-3.994 3 3 0 0 0 .013 2.014 2.022 2.022 0 0 0-1.678 1.98v10a2 2 0 0 0 2 2h.908a.7.7 0 0 1 .09 0h3a1 1 0 1 1 0 2zm11-10v-3.992a2.022 2.022 0 0 0-1.678-1.98 3 3 0 0 0 .012-2.014 4.007 4.007 0 0 1 3.662 3.994v3.99a1 1 0 1 1-2 0z" style="stroke:none" transform="translate(-8036.999 -16687.988)"/>
        <path d="M8051.997 16712.988H8048a4.005 4.005 0 0 1-4.002-3.998v-9.998c0-1.012.377-1.976 1.065-2.719a3.989 3.989 0 0 1 2.601-1.275 3.01 3.01 0 0 0 .013 2.014 2.022 2.022 0 0 0-1.678 1.98v9.998c0 1.104.897 2.002 2 2.002h.909c.03-.004.06-.004.09-.004h3a.998.998 0 0 1 1.002.998c0 .553-.45 1.002-1.003 1.002zm9.001-9.002a.998.998 0 0 1-.998-1.002v-3.992c0-.972-.722-1.824-1.678-1.98.117-.326.18-.672.18-1.028 0-.336-.058-.668-.168-.986a3.978 3.978 0 0 1 2.601 1.275 3.981 3.981 0 0 1 1.062 2.72v.903l.003.09v2.998c0 .555-.448 1.002-1.002 1.002z" style="fill:#fff;stroke:none" transform="translate(-8036.999 -16687.988)"/>
    </g>
    <path data-name="패스 17498" d="M1 0h6a1 1 0 0 1 0 2H1a1 1 0 0 1 0-2z" transform="translate(12 14)" style="fill:#fff"/>
    <g data-name="패스 17497" style="fill:none">
        <path d="M8052 16701h-5a3 3 0 1 1 0-6h5a3 3 0 0 1 0 6zm-5-4a1 1 0 0 0 0 2h5a1 1 0 0 0 0-2z" style="stroke:none" transform="translate(-8033.5 -16690.002)"/>
        <path d="M8052.001 16701h-5a3.004 3.004 0 0 1-3.001-3 3.005 3.005 0 0 1 3.001-3.002h5a3.002 3.002 0 0 1 0 6.002zm-5-4.002a1.003 1.003 0 0 0 0 2.004h5a1 1 0 0 0 .998-1.002 1 1 0 0 0-.998-1.002h-5z" style="fill:#fff;stroke:none" transform="translate(-8033.5 -16690.002)"/>
    </g>
    <path data-name="패스 17495" d="M375.05 482.406a1 1 0 0 1-.738-.326l-3.013-3.3a1 1 0 1 1 1.476-1.347l2.272 2.488 4.249-4.686a1 1 0 1 1 1.482 1.344l-4.987 5.5a1 1 0 0 1-.739.328z" transform="translate(-354.037 -457.406)" style="fill:#fff"/>
</svg>
