<svg xmlns="http://www.w3.org/2000/svg" width="28" height="28" viewBox="0 0 28 28">
    <g data-name="그룹 23362">
        <path data-name="패스 17487" d="M10.5 0h-7A3.5 3.5 0 0 0 0 3.5v7A3.5 3.5 0 0 0 3.5 14h7a3.5 3.5 0 0 0 3.5-3.5v-7zM9.056 1.313V4.24a.438.438 0 0 1-.437.438H5.381a.438.438 0 0 1-.437-.437V1.313zm3.632 9.187a2.191 2.191 0 0 1-2.188 2.188h-7A2.191 2.191 0 0 1 1.313 10.5v-7A2.19 2.19 0 0 1 3.5 1.313h.131V4.24a1.75 1.75 0 0 0 1.75 1.75h3.238a1.75 1.75 0 0 0 1.75-1.75V1.725l2.319 2.319z" transform="translate(7 7)" style="fill:#fff"/>
        <path data-name="패스 17488" d="M9.969 9.975H5.156a.656.656 0 0 0 0 1.313h4.813a.656.656 0 1 0 0-1.313" transform="translate(6.438 5.753)" style="fill:#fff"/>
    </g>
</svg>
