<svg xmlns="http://www.w3.org/2000/svg" width="32" height="32" viewBox="0 0 32 32">
  <defs>
    <style>
      .cls-1 {
        fill: none;
      }

      .cls-2 {
        fill: #fff;
      }
    </style>
  </defs>
  <g id="btn-prev" transform="translate(9.959 8.008)">
    <rect id="사각형_44525" data-name="사각형 44525" class="cls-1" width="32" height="32" transform="translate(-9.959 -8.008)"/>
    <path id="패스_16526" data-name="패스 16526" class="cls-2" d="M8.009,10.009a1.468,1.468,0,0,1-1.063-.464L.44,2.7A1.64,1.64,0,0,1,.44.463a1.449,1.449,0,0,1,2.124,0L8.009,6.194,13.452.463a1.449,1.449,0,0,1,2.124,0,1.64,1.64,0,0,1,0,2.235L9.07,9.545A1.461,1.461,0,0,1,8.009,10.009Z" transform="translate(10.009 0) rotate(90)"/>
  </g>
</svg>
