<svg xmlns="http://www.w3.org/2000/svg" width="46" height="40" viewBox="0 0 46 40">
    <g transform="translate(-1402 -363)">
        <rect data-name="사각형 31152" width="30" height="28" rx="4" transform="translate(1410 370)" style="fill:#d9dfe5"/>
        <path data-name="사각형 31153" d="M4 0h22a4 4 0 0 1 4 4v2H0V4a4 4 0 0 1 4-4z" transform="translate(1410 370)" style="fill:#243b57"/>
        <rect data-name="사각형 31154" width="3" height="6" rx="1.5" transform="translate(1415 367)" style="fill:#aeb8c2"/>
        <rect data-name="사각형 31161" width="4" height="2" rx="1" transform="translate(1416 381)" style="fill:#aeb8c2"/>
        <rect data-name="사각형 31595" width="4" height="2" rx="1" transform="translate(1416 386)" style="fill:#aeb8c2"/>
        <rect data-name="사각형 31598" width="4" height="2" rx="1" transform="translate(1416 391)" style="fill:#aeb8c2"/>
        <rect data-name="사각형 31591" width="4" height="2" rx="1" transform="translate(1423 381)" style="fill:#aeb8c2"/>
        <rect data-name="사각형 31594" width="4" height="2" rx="1" transform="translate(1423 386)" style="fill:#aeb8c2"/>
        <rect data-name="사각형 31597" width="4" height="2" rx="1" transform="translate(1423 391)" style="fill:#aeb8c2"/>
        <rect data-name="사각형 31592" width="4" height="2" rx="1" transform="translate(1430 381)" style="fill:#aeb8c2"/>
        <rect data-name="사각형 31593" width="4" height="2" rx="1" transform="translate(1430 386)" style="fill:#aeb8c2"/>
        <rect data-name="사각형 31596" width="4" height="2" rx="1" transform="translate(1430 391)" style="fill:#aeb8c2"/>
        <rect data-name="사각형 31155" width="3" height="6" rx="1.5" transform="translate(1432 367)" style="fill:#aeb8c2"/>
    </g>
</svg>
