<svg xmlns="http://www.w3.org/2000/svg" width="46" height="40" viewBox="0 0 46 40">
    <path data-name="합치기 73" d="M-12743 17505a4 4 0 0 1-4-4v-21a3 3 0 0 1 3-3h18.249a3 3 0 0 1 3 3 3 3 0 0 1-3 3h4.749a4 4 0 0 1 4 4v14a4 4 0 0 1-4 4z" transform="translate(12755 -17471)" style="fill:#d9dfe5"/>
    <path data-name="사각형 24902" d="M3 0h20a3 3 0 0 1 3 3v3H3a3 3 0 0 1-3-3 3 3 0 0 1 3-3z" transform="translate(8 6)" style="fill:#aeb8c2"/>
    <path data-name="빼기 348" d="M-604.75 3332h-4.75a3.5 3.5 0 0 1-3.5-3.5 3.5 3.5 0 0 1 3.5-3.5h4.75a1.752 1.752 0 0 1 1.75 1.75v3.5a1.752 1.752 0 0 1-1.75 1.75zm-4.75-5a1.5 1.5 0 0 0-1.5 1.5 1.5 1.5 0 0 0 1.5 1.5 1.5 1.5 0 0 0 1.5-1.5 1.5 1.5 0 0 0-1.5-1.5z" transform="translate(642 -3306)" style="fill:#243b57"/>
</svg>
