<svg xmlns="http://www.w3.org/2000/svg" width="18" height="18" viewBox="0 0 18 18">
    <path data-name="사각형 23637" style="fill:none" d="M0 0h18v18H0z"/>
    <path data-name="빼기 362" d="M8261 21625.6h-9a2 2 0 0 1-2-2v-9a2 2 0 0 1 2-2h8.013a.756.756 0 0 1 .378.162l2.29 2.291.035.037a.462.462 0 0 0 .036.039 1.093 1.093 0 0 1 .249.73v7.736a2 2 0 0 1-2.001 2.005zm-7-7.25a.5.5 0 0 0-.5.5v.5a.5.5 0 0 0 .5.5h1.747v1.748a.5.5 0 0 0 .5.5h.5a.5.5 0 0 0 .5-.5v-1.748H8259a.5.5 0 0 0 .5-.5v-.5a.5.5 0 0 0-.5-.5h-1.747v-1.748a.5.5 0 0 0-.5-.5h-.5a.5.5 0 0 0-.5.5v1.748z" transform="translate(-8247.5 -21610.1)" style="fill:#a2a2a2"/>
</svg>
