<svg xmlns="http://www.w3.org/2000/svg" width="18" height="18" viewBox="0 0 18 18">
    <path data-name="사각형 23637" style="fill:none" d="M0 0h18v18H0z"/>
    <path data-name="빼기 362" d="M8261 21625.6h-9a2 2 0 0 1-2-2v-9a2 2 0 0 1 2-2h8.013a.756.756 0 0 1 .378.162l2.29 2.291.035.037a.462.462 0 0 0 .036.039 1.093 1.093 0 0 1 .249.73v7.736a2 2 0 0 1-2.001 2.005zm-7.251-6a.748.748 0 1 0 0 1.5h3.5a.748.748 0 1 0 0-1.5zm0-3a.75.75 0 0 0-.749.748.741.741 0 0 0 .749.75h5.5a.749.749 0 1 0 0-1.5z" transform="translate(-8247.5 -21610.1)" style="fill:#a2a2a2"/>
</svg>
