<svg xmlns="http://www.w3.org/2000/svg" width="18" height="18" viewBox="0 0 18 18">
    <path data-name="사각형 23637" style="fill:none" d="M0 0h18v18H0z"/>
    <g data-name="그룹 21418" transform="translate(-886.697 -550.904)">
        <path data-name="패스 17346" d="M4.328-1h.3c2.465 0 4.284 2.692 4.527 4.853.176 1.282-.454 1.793-1.592 1.88a20.9 20.9 0 0 1-3.056-.352c-.6 0-.951.241-2.76.352S-.2 4.84-.2 3.853C-.176 2.083 1.861-1 4.328-1z" transform="translate(891.276 560.212)" style="fill:#a2a2a2"/>
        <ellipse data-name="타원 2414" cx="1.861" cy="2.531" rx="1.861" ry="2.531" transform="translate(891.733 553.851)" style="fill:#a2a2a2"/>
        <ellipse data-name="타원 2415" cx="1.861" cy="2.531" rx="1.861" ry="2.531" transform="translate(895.902 553.851)" style="fill:#a2a2a2"/>
        <ellipse data-name="타원 2416" cx="1.415" cy="1.787" rx="1.415" ry="1.787" transform="rotate(23 -918.734 2490.346)" style="fill:#a2a2a2"/>
        <ellipse data-name="타원 2417" cx="1.489" cy="1.936" rx="1.489" ry="1.936" transform="rotate(-22 1880.233 -2005.431)" style="fill:#a2a2a2"/>
    </g>
</svg>
