<svg xmlns="http://www.w3.org/2000/svg" width="32" height="32" viewBox="0 0 32 32">
    <path data-name="사각형 21685" style="fill:none" d="M0 0h32v32H0z"/>
    <path data-name="사각형 21686" transform="rotate(54 1.61 26.951)" style="fill:#8492a1" d="M0 0h1.5v12.668H0z"/>
    <path data-name="패스 16530" d="m242.46 128.721 6.619-13.235-14.56 2.647 4.963 4.3 2.978 6.286m0 1.5h-.016a1.5 1.5 0 0 1-1.339-.857l-2.843-6-4.725-4.1a1.5 1.5 0 0 1 .714-2.609l14.559-2.647a1.5 1.5 0 0 1 1.61 2.147l-6.62 13.239a1.5 1.5 0 0 1-1.34.829z" transform="translate(-226.269 -104.985)" style="fill:#8492a1"/>
</svg>
