<svg xmlns="http://www.w3.org/2000/svg" width="18" height="18" viewBox="0 0 18 18">
    <path data-name="사각형 23637" style="fill:none" d="M0 0h18v18H0z"/>
    <path data-name="빼기 362" d="M8261 21625.6h-9a2 2 0 0 1-2-2v-9a2 2 0 0 1 2-2h8.013a.756.756 0 0 1 .378.162l2.29 2.291.035.037a.462.462 0 0 0 .036.039 1.093 1.093 0 0 1 .249.73v7.736a2 2 0 0 1-2.001 2.005zm-7.329-7.172a.748.748 0 0 0-.529 1.277l2.116 2.123a.746.746 0 0 0 .532.217.756.756 0 0 0 .532-.217l3.538-3.539a.75.75 0 0 0 0-1.059.756.756 0 0 0-1.063 0l-3.007 3-1.59-1.586a.745.745 0 0 0-.527-.218z" transform="translate(-8247.5 -21610.1)" style="fill:#a2a2a2"/>
</svg>
