<svg xmlns="http://www.w3.org/2000/svg" width="24" height="24" viewBox="0 0 24 24">
    <g data-name="그룹 22789">
        <g data-name="패스 17464">
            <path data-name="패스 17466" d="M295.5 428.5a1 1 0 0 1-.707-.293l-7-7a1 1 0 0 1 0-1.414l7-7a1 1 0 0 1 1.414 1.414l-6.293 6.293 6.293 6.293a1 1 0 0 1-.707 1.707z" style="fill:#0e0f0f" transform="translate(-285.5 -408.5)"/>
        </g>
        <g data-name="사각형 32227">
            <path data-name="패스 17467" d="M290.5 419.5h16a1 1 0 0 1 1 1 1 1 0 0 1-1 1h-16a1 1 0 0 1-1-1 1 1 0 0 1 1-1z" style="fill:#0e0f0f" transform="translate(-285.5 -408.5)"/>
        </g>
    </g>
</svg>
