<svg xmlns="http://www.w3.org/2000/svg" width="24" height="24" viewBox="0 0 24 24">
    <path data-name="사각형 32265" style="fill:none" d="M0 0h24v24H0z"/>
    <g data-name="그룹 22794">
        <g data-name="빼기 367">
            <g data-name="그룹 22790">
                <path data-name="패스 17468" d="M266.536 346.911h-10a3 3 0 0 1-3-3v-10a3 3 0 0 1 3-3h9.364l3.634 3.848v9.149a3 3 0 0 1-3 3z" style="fill:none" transform="translate(-249.535 -326.911)"/>
            </g>
            <g data-name="그룹 22791">
                <path data-name="패스 17469" d="M266.534 346.91a3 3 0 0 0 3-3v-9.15l-3.634-3.848h-9.364a3 3 0 0 0-3 3v10a3 3 0 0 0 3 3h10m0 2h-10a5.005 5.005 0 0 1-5-5v-10a5.005 5.005 0 0 1 5-5h9.364a2 2 0 0 1 1.454.627l3.634 3.848a2 2 0 0 1 .546 1.373v9.15a5 5 0 0 1-5 5z" style="fill:#0e0f0f" transform="translate(-249.535 -326.911)"/>
            </g>
        </g>
        <g data-name="사각형 32482">
            <path data-name="패스 17470" d="M259.536 341.912h4a1 1 0 0 1 1 1 1 1 0 0 1-1 1h-4a1 1 0 0 1-1-1 1 1 0 0 1 1-1z" style="fill:#0e0f0f" transform="translate(-249.535 -326.911)"/>
        </g>
        <g data-name="사각형 32481">
            <g data-name="그룹 22792">
                <path data-name="패스 17471" d="M256.536 328.912h10v6a3 3 0 0 1-3 3h-4a3 3 0 0 1-3-3v-6z" style="fill:none" transform="translate(-249.535 -326.911)"/>
            </g>
            <g data-name="그룹 22793">
                <path data-name="패스 17472" d="M263.536 337.912h-4a3 3 0 0 1-3-3v-6h10v6a3 3 0 0 1-3 3zm-5-7v4a1 1 0 0 0 1 1h4a1 1 0 0 0 1-1v-4z" style="fill:#0e0f0f" transform="translate(-249.535 -326.911)"/>
            </g>
        </g>
    </g>
</svg>
