<svg xmlns="http://www.w3.org/2000/svg" width="48" height="48" viewBox="0 0 48 48">
    <g data-name="그룹 22277" transform="translate(6.86 6.396)">
        <path data-name="빼기 356" d="M27 36H7a5.005 5.005 0 0 1-5-5V5a5.006 5.006 0 0 1 5-5h13c.144 0 .291 0 .437.008a2.668 2.668 0 0 1 1.412.631l9.431 9.4.011.012a2.825 2.825 0 0 1 .542.751 2.015 2.015 0 0 1 .153.594c.005.1.009.2.011.305V31A5.005 5.005 0 0 1 27 36z" transform="translate(.14 -.395)" style="fill:#bbd2f2"/>
        <rect data-name="사각형 30650" width="20" height="2.5" rx="1.25" transform="translate(7.14 15.605)" style="fill:#7591b2"/>
        <rect data-name="사각형 30651" width="14" height="2.5" rx="1.25" transform="translate(10.14 22.605)" style="fill:#7591b2"/>
    </g>
</svg>
