<svg xmlns="http://www.w3.org/2000/svg" width="196" height="38" viewBox="0 0 196 38">
    <defs>
        <clipPath id="wg0mgkcsca">
            <path data-name="사각형 21791" style="fill:none" d="M0 0h195.366v37.101H0z"/>
        </clipPath>
    </defs>
    <g data-name="그룹 6436">
        <path data-name="패스 16545" d="M64.355 27.655H59.8l-4.3-6.239-4.4 6.239h-4.245l6.5-9.008-6.474-9.113h4.556l4.246 6.136 4.349-6.136h4.246l-6.446 8.931z" transform="translate(2.071 .508)" style="fill:#070707"/>
        <g data-name="그룹 6435">
            <g data-name="그룹 6434" style="clip-path:url(#wg0mgkcsca)" transform="translate(0 .087)">
                <path data-name="패스 16546" d="M67.085 18.612a9.336 9.336 0 0 1 9.681-9.474 8.978 8.978 0 0 1 7.43 3.21l-2.8 2.277a6.1 6.1 0 0 0-4.634-2.019 5.829 5.829 0 0 0-5.9 6.006 5.828 5.828 0 0 0 5.9 6.005A6.094 6.094 0 0 0 81.4 22.6l2.821 2.226c-1.6 2.1-4.141 3.261-7.456 3.261a9.336 9.336 0 0 1-9.681-9.474" transform="translate(2.966 .404)" style="fill:#070707"/>
                <path data-name="패스 16547" d="M96.457 13.492H99.1v14h-3.21v-1.859a5.692 5.692 0 0 1-4.556 2.123 7.11 7.11 0 0 1-7.093-7.326 7.094 7.094 0 0 1 7.091-7.33 5.632 5.632 0 0 1 4.141 1.657zm-.828 6.938a3.94 3.94 0 1 0-7.87 0 3.94 3.94 0 1 0 7.87 0" transform="translate(3.724 .579)" style="fill:#070707"/>
                <path data-name="패스 16548" d="M101.121 27.712V9.307l3.469-1.062v19.467z" transform="translate(4.47 .364)" style="fill:#070707"/>
                <path data-name="패스 16549" d="M106.748 10.337a2.183 2.183 0 0 1 4.349 0 2.183 2.183 0 0 1-4.349 0m.441 3.883h3.469v13.488h-3.469z" transform="translate(4.719 .369)" style="fill:#070707"/>
                <path data-name="패스 16550" d="M128.078 20.645a7.11 7.11 0 0 1-7.093 7.326 5.694 5.694 0 0 1-4.557-2.123v1.864h-3.209V9.306l3.469-1.061v6.885a5.638 5.638 0 0 1 4.3-1.812 7.094 7.094 0 0 1 7.093 7.326m-3.521 0a3.94 3.94 0 1 0-7.869 0 3.94 3.94 0 1 0 7.869 0" transform="translate(5.005 .364)" style="fill:#070707"/>
                <path data-name="패스 16551" d="M142.921 21.7h-10.458a3.878 3.878 0 0 0 4.09 3.028 5.863 5.863 0 0 0 4.116-1.5l1.838 2.149a8.669 8.669 0 0 1-6.031 2.381c-4.531 0-7.688-3.028-7.688-7.325a7.064 7.064 0 0 1 7.171-7.326c4.245 0 6.964 2.925 6.964 7.456zm-10.433-2.9h6.73a3.163 3.163 0 0 0-3.261-2.667 3.324 3.324 0 0 0-3.469 2.667" transform="translate(5.693 .579)" style="fill:#070707"/>
                <path data-name="패스 16552" d="M148.161 15.06a6.2 6.2 0 0 1 4.22-1.708v3.417c-1.993 0-4.582.7-4.582 3.677v7.041h-3.469v-14h2.641z" transform="translate(6.38 .59)" style="fill:#070707"/>
                <path data-name="패스 16553" d="M28.568 18.55 35.995 7.7A4.922 4.922 0 0 0 31.934 0h-8.35a4.92 4.92 0 0 0-4.061 2.142l-1.094 1.6-1.094-1.6A4.92 4.92 0 0 0 13.273 0h-8.35a4.922 4.922 0 0 0-4.06 7.7l7.426 10.85L.863 29.4a4.921 4.921 0 0 0 4.061 7.7h8.349a4.919 4.919 0 0 0 4.062-2.141l1.094-1.6 1.094 1.6a4.919 4.919 0 0 0 4.061 2.141h8.349a4.921 4.921 0 0 0 4.061-7.7zM3.516 4.18a1.48 1.48 0 0 1 1.33-.8h8.449a1.5 1.5 0 0 1 1.242.655l2.318 3.387-6.047 8.833L3.606 5.731a1.478 1.478 0 0 1-.09-1.551m.09 27.19 7.2-10.52 6.047 8.833-2.317 3.387a1.505 1.505 0 0 1-1.242.655H4.846a1.5 1.5 0 0 1-1.24-2.355m8.775-12.82 6.048-8.833 6.047 8.833-6.047 8.833zM20 7.419l2.319-3.387a1.5 1.5 0 0 1 1.241-.655h8.449a1.5 1.5 0 0 1 1.242 2.354l-7.2 10.52zm6.05 13.431 7.2 10.52a1.505 1.505 0 0 1-1.242 2.355h-8.446a1.5 1.5 0 0 1-1.241-.655L20 29.683z" style="fill:#483cee"/>
                <path data-name="패스 16554" d="M157.893 13.576V2.432h7.943V4.12h-6.065v2.944h5.619v1.689h-5.619v3.136h6.176v1.687z" transform="translate(6.98 .108)" style="fill:#483cee"/>
                <path data-name="패스 16555" d="M175.049 2.432h1.941l-4.41 11.144h-1.815l-4.392-11.144h2l3.344 8.58z" transform="translate(7.355 .108)" style="fill:#483cee"/>
                <path data-name="패스 16556" d="M187.5 13.576h-2.181L182 9.278h-2.34v4.3h-1.848V2.432h4.364c2.817 0 4.36 1.21 4.36 3.423a3.106 3.106 0 0 1-2.514 3.2zm-7.847-9.5v3.578h2.578c1.513 0 2.452-.7 2.452-1.8 0-1.177-.812-1.784-2.452-1.784z" transform="translate(7.86 .108)" style="fill:#483cee"/>
            </g>
        </g>
    </g>
</svg>
