<svg xmlns="http://www.w3.org/2000/svg" width="44" height="44" viewBox="0 0 44 44">
    <g data-name="그룹 19378">
        <path data-name="패스 16571" d="M14.5 2a1 1 0 0 1 0 2h-7a1 1 0 0 1 0-2zm0-2h-7a3 3 0 0 0 0 6h7a3 3 0 0 0 0-6" transform="translate(11 10)" style="fill:#b1befe"/>
        <path data-name="빼기 18" d="M24259 21584h-12a5.007 5.007 0 0 1-5-5v-12a5.007 5.007 0 0 1 5-5h.207a2.514 2.514 0 0 0 0 2h-.207a3 3 0 0 0-3 3v12a3 3 0 0 0 3 3h12a3 3 0 0 0 3-3v-12a3 3 0 0 0-3-3h-.209a2.5 2.5 0 0 0 0-2h.207a5.007 5.007 0 0 1 5 5v12a5.007 5.007 0 0 1-4.998 5z" transform="translate(-24231 -21550)" style="fill:#b1befe"/>
        <path data-name="패스 16573" d="M3.829 6.949a1 1 0 0 1-.707-.293L.293 3.828a1 1 0 0 1 1.414-1.414l2.122 2.121L8.071.293a1 1 0 0 1 1.414 1.414L4.536 6.656a1 1 0 0 1-.707.293" transform="translate(17.111 20)" style="fill:#b1befe"/>
    </g>
</svg>
