<svg xmlns="http://www.w3.org/2000/svg" width="44" height="44" viewBox="0 0 44 44">
    <g data-name="그룹 19380">
        <path data-name="패스 16579" d="M5.5 11A5.5 5.5 0 1 1 11 5.5 5.506 5.506 0 0 1 5.5 11m0-9.167A3.667 3.667 0 1 0 9.167 5.5 3.67 3.67 0 0 0 5.5 1.833" transform="translate(16.5 16.501)" style="fill:#fff"/>
        <path data-name="패스 16580" d="M12 2a3.005 3.005 0 0 1 1.473.386l7 3.935A3.008 3.008 0 0 1 22 8.94v7.645a3.008 3.008 0 0 1-1.532 2.615l-7 3.935a3 3 0 0 1-2.946 0l-7-3.935A3.008 3.008 0 0 1 2 16.585V8.94a3.008 3.008 0 0 1 1.532-2.619l7-3.935A3.005 3.005 0 0 1 12 2m0-2a5 5 0 0 0-2.454.643L2.551 4.578A5 5 0 0 0 0 8.94v7.645a5.006 5.006 0 0 0 2.551 4.363l6.995 3.934a5 5 0 0 0 4.908 0l6.995-3.934A5.006 5.006 0 0 0 24 16.585V8.94a5 5 0 0 0-2.551-4.362L14.454.643A5 5 0 0 0 12 0" transform="translate(10 9.236)" style="fill:#fff"/>
    </g>
</svg>
