<svg xmlns="http://www.w3.org/2000/svg" width="44" height="44" viewBox="0 0 44 44">
    <g data-name="그룹 23584">
        <path data-name="패스 17524" d="M232.248 454.04h-12a5.006 5.006 0 0 1-5-5v-14a5.006 5.006 0 0 1 5-5h12a5.006 5.006 0 0 1 5 5v14a5.006 5.006 0 0 1-5 5zm-12-22a3 3 0 0 0-3 3v14a3 3 0 0 0 3 3h12a3 3 0 0 0 3-3v-14a3 3 0 0 0-3-3z" style="fill:#fff" transform="translate(-204.248 -420.039)"/>
        <path data-name="패스 17525" d="M221.248 442.04h10a1 1 0 0 1 1 1 1 1 0 0 1-1 1h-10a1 1 0 0 1-1-1 1 1 0 0 1 1-1z" style="fill:#fff" transform="translate(-204.248 -420.039)"/>
        <path data-name="패스 17526" d="M222.248 446.54h6a1 1 0 0 1 1 1 1 1 0 0 1-1 1h-6a1 1 0 0 1-1-1 1 1 0 0 1 1-1z" style="fill:#fff" transform="translate(-204.248 -420.039)"/>
    </g>
</svg>
