<svg xmlns="http://www.w3.org/2000/svg" width="44" height="44" viewBox="0 0 44 44">
    <g data-name="그룹 19378">
        <g data-name="그룹 23591">
            <path data-name="패스 17533" d="M24409.33 20728.025h-11a5 5 0 0 1-4.994-5v-12a5 5 0 0 1 4.994-5h14a5.008 5.008 0 0 1 5 5v9h-1.029a4.469 4.469 0 0 0-.969-2.324v-6.678a3 3 0 0 0-3-3h-14a3 3 0 0 0-3 3v12a3 3 0 0 0 3 3h11v2z" transform="translate(-24383.332 -20696.027)" style="fill:#fff"/>
            <path data-name="패스 17528" d="M285.332 423.528h12a1 1 0 0 1 1 1 1 1 0 0 1-1 1h-12a1 1 0 0 1-1-1 1 1 0 0 1 1-1z" style="fill:#fff" transform="translate(-269.332 -408.027)"/>
            <path data-name="패스 17529" d="M285.332 427.528h5a1 1 0 0 1 1 1 1 1 0 0 1-1 1h-5a1 1 0 0 1-1-1 1 1 0 0 1 1-1z" style="fill:#fff" transform="translate(-269.332 -408.027)"/>
            <path data-name="패스 17534" d="M24401.342 20721.029h-.01a5.938 5.938 0 0 1-2.275-.9l-.016-.01h-.006a2.8 2.8 0 0 0-.705-.34 3.108 3.108 0 0 0-.744.354l-.014.006a6.1 6.1 0 0 1-2.213.887h-.025c-.922-.025-1-.92-1-2v-6h.537a4.013 4.013 0 0 0 3.453 2h-1.988v3.51c.131-.068.236-.127.275-.148h.01a3.4 3.4 0 0 1 1.711-.607 3.281 3.281 0 0 1 1.686.6c.078.043.189.1.318.172v-3.521h-2a4.017 4.017 0 0 0 3.457-2h.537v6.074a4.538 4.538 0 0 1-.123 1.361.812.812 0 0 1-.865.562z" transform="translate(-24369.332 -20687.027)" style="fill:#fff"/>
            <path data-name="패스 17532" d="M298.332 437.027a5 5 0 1 1 5-5 5.006 5.006 0 0 1-5 5zm0-8a3 3 0 1 0 3 3 3 3 0 0 0-3-3z" style="fill:#fff" transform="translate(-269.332 -408.027)"/>
        </g>
    </g>
</svg>
