<svg xmlns="http://www.w3.org/2000/svg" width="44" height="44" viewBox="0 0 44 44">
    <g data-name="그룹 19381" transform="translate(-216 -1057)">
        <path data-name="패스 16581" d="M13 2a3.006 3.006 0 0 1 2.939 2.4l.326 1.6H19a3 3 0 0 1 3 3v10a3 3 0 0 1-3 3H5a3 3 0 0 1-3-3V5a3 3 0 0 1 3-3zm0-2H5a5 5 0 0 0-5 5v14a5 5 0 0 0 5 5h14a5 5 0 0 0 5-5V9a5 5 0 0 0-5-5h-1.1A5 5 0 0 0 13 0" transform="translate(226 1067)" style="fill:#fff"/>
        <rect data-name="사각형 23669" width="14" height="2" rx="1" transform="translate(231 1083.5)" style="fill:#fff"/>
    </g>
</svg>
