<svg xmlns="http://www.w3.org/2000/svg" width="24" height="24" viewBox="0 0 24 24">
    <path data-name="패스 17535" d="M24695.5 20519h-5a5.007 5.007 0 0 1-5-5v-10a5.008 5.008 0 0 1 5-5h6a1 1 0 0 1 0 2h-6a3 3 0 0 0-3 3v10a3 3 0 0 0 3 3h4.887a1 1 0 0 1 .109-.006h1a1 1 0 0 1 0 2z" transform="translate(-24682.5 -20497.002)" style="fill:#b1befe"/>
    <path data-name="패스 17536" d="M24692.84 20508.75a.994.994 0 0 1-.092-1.406l2.051-2.344h-8.3a1 1 0 0 1 0-2h8.295l-2.047-2.342a1 1 0 1 1 1.506-1.314l3.5 4a1.008 1.008 0 0 1 0 1.32l-3.5 4a1 1 0 0 1-1.414.092z" transform="translate(-24675.25 -20492)" style="stroke:transparent;fill:#b1befe"/>
</svg>
