<svg xmlns="http://www.w3.org/2000/svg" width="44" height="44" viewBox="0 0 44 44">
    <g data-name="그룹 19377" transform="translate(-216 -865)">
        <path data-name="패스 16577" d="M19 2a3 3 0 0 1 3 3v12a3 3 0 0 1-3 3H5a3 3 0 0 1-3-3V5a3 3 0 0 1 3-3zm0-2H5a5 5 0 0 0-5 5v12a5 5 0 0 0 5 5h14a5 5 0 0 0 5-5V5a5 5 0 0 0-5-5" transform="translate(226 876)" style="fill:#b1befe"/>
        <path data-name="사각형 23661" transform="translate(228 882)" style="fill:#b1befe" d="M0 0h20v2H0z"/>
        <rect data-name="사각형 23662" width="10" height="2" rx="1" transform="translate(235 887)" style="fill:#b1befe"/>
        <rect data-name="사각형 23663" width="10" height="2" rx="1" transform="translate(230 891)" style="fill:#b1befe"/>
        <rect data-name="사각형 23664" width="6" height="2" rx="1" transform="rotate(90 -315 559)" style="fill:#b1befe"/>
        <rect data-name="사각형 23665" width="6" height="2" rx="1" transform="rotate(90 -320 554)" style="fill:#b1befe"/>
    </g>
</svg>
