<svg xmlns="http://www.w3.org/2000/svg" width="44" height="44" viewBox="0 0 44 44">
    <g data-name="그룹 19369">
        <path data-name="패스 16567" d="M4 19v-1.184A2.993 2.993 0 0 1 2 15V5a3 3 0 0 1 3-3h10a2.991 2.991 0 0 1 2.814 2H19a5.016 5.016 0 0 1 .907.091A4.993 4.993 0 0 0 15 0H5a5 5 0 0 0-5 5v10a4.991 4.991 0 0 0 4.091 4.906A5.005 5.005 0 0 1 4 19" style="fill:#fff" transform="translate(10 10)"/>
        <path data-name="패스 16568" d="M19 6a3 3 0 0 1 3 3v10a3 3 0 0 1-3 3H9a3 3 0 0 1-3-3V9a3 3 0 0 1 3-3zm0-2H9a5 5 0 0 0-5 5v10a5 5 0 0 0 5 5h10a5 5 0 0 0 5-5V9a5 5 0 0 0-5-5" style="fill:#fff" transform="translate(10 10)"/>
        <path data-name="합치기 66" d="M24251.35 21568.674a1.009 1.009 0 0 1-.953-.687l-1.379-2.957-1.389 2.977a.982.982 0 0 1-.516.572 1.033 1.033 0 0 1-.432.1 1.016 1.016 0 0 1-.428-.1.992.992 0 0 1-.518-.572l-1.59-3.408a.884.884 0 0 1-.145.01h-1a1 1 0 0 1 0-2h.221l-.4-.852a1 1 0 1 1 1.814-.848l2.049 4.393 1.414-3.035a1 1 0 0 1 .918-.576 1.013 1.013 0 0 1 .922.576l1.414 3.035 2.049-4.393a1 1 0 1 1 1.809.848l-.4.852h.191a1 1 0 0 1 0 2h-1a1.12 1.12 0 0 1-.117-.006l-1.576 3.379a1.009 1.009 0 0 1-.953.693z" transform="translate(-24225 -21540)" style="fill:#fff"/>
    </g>
</svg>
