<svg xmlns="http://www.w3.org/2000/svg" width="44" height="44" viewBox="0 0 44 44">
    <g data-name="그룹 19379" transform="translate(-235 -914)">
        <path data-name="패스 16578" d="M19 2a3 3 0 0 1 3 3v14a3 3 0 0 1-3 3H5a3 3 0 0 1-3-3V5a3 3 0 0 1 3-3zm0-2H5a5 5 0 0 0-5 5v14a5 5 0 0 0 5 5h14a5 5 0 0 0 5-5V5a5 5 0 0 0-5-5" transform="translate(245 924)" style="fill:#fff"/>
        <rect data-name="사각형 23666" width="2.5" height="7" rx="1" transform="translate(260.75 934)" style="fill:#fff"/>
        <rect data-name="사각형 23667" width="2.5" height="10" rx="1" transform="translate(255.75 931)" style="fill:#fff"/>
        <rect data-name="사각형 23668" width="2.5" height="5" rx="1" transform="translate(250.75 936)" style="fill:#fff"/>
    </g>
</svg>
