<svg xmlns="http://www.w3.org/2000/svg" width="44" height="44" viewBox="0 0 44 44">
    <g data-name="그룹 19374" transform="translate(-193 -738)">
        <path data-name="패스 16574" d="M9.683 19H5a3 3 0 0 1-3-3V5a3 3 0 0 1 3-3h10a3 3 0 0 1 3 3v4.3a6.949 6.949 0 0 1 2 .966V5a5 5 0 0 0-5-5H5a5 5 0 0 0-5 5v11a5 5 0 0 0 5 5h6.108a7.007 7.007 0 0 1-1.423-2" transform="translate(203 748)" style="fill:#fff"/>
        <path data-name="패스 16575" d="M16 11a5 5 0 1 1-5 5 5.006 5.006 0 0 1 5-5m0-2a7 7 0 1 0 7 7 7 7 0 0 0-7-7" transform="translate(203 748)" style="fill:#fff"/>
        <rect data-name="사각형 23652" width="2" height="4.784" rx="1" transform="rotate(135 -46.094 432.306)" style="fill:#fff"/>
        <rect data-name="사각형 23653" width="2" height="12" rx="1" transform="rotate(90 -267 486)" style="fill:#fff"/>
    </g>
</svg>
