<svg xmlns="http://www.w3.org/2000/svg" width="32" height="32" viewBox="0 0 32 32">
    <g transform="translate(4 4)" style="opacity:.7">
        <path data-name="사각형 21646" transform="translate(-4 -4)" style="fill:none" d="M0 0h32v32H0z"/>
        <path data-name="빼기 16" d="M7904-16972h-12a5 5 0 0 1-5-5v-12a5 5 0 0 1 1.191-3.236 4.987 4.987 0 0 1 2.957-1.689 3 3 0 0 0-.147.93 2.949 2.949 0 0 0 .209 1.1 3 3 0 0 0-2.21 2.895v12a3 3 0 0 0 3 3h12a3 3 0 0 0 3-3v-12a3 3 0 0 0-2.209-2.893 2.949 2.949 0 0 0 .209-1.1 3 3 0 0 0-.147-.93A4.988 4.988 0 0 1 7909-16989v12a5.007 5.007 0 0 1-5 5z" transform="translate(-7886 16996)" style="fill:#666"/>
        <g data-name="사각형 22362" transform="translate(5)" style="stroke:#666;stroke-width:2px;fill:none">
            <rect width="14" height="6" rx="3" style="stroke:none"/>
            <rect x="1" y="1" width="12" height="4" rx="2" style="fill:none"/>
        </g>
        <rect data-name="사각형 22363" width="10" height="2" rx="1" transform="translate(8 15)" style="fill:#666"/>
        <rect data-name="사각형 22366" width="9" height="2" rx="1" transform="translate(6 11)" style="fill:#666"/>
    </g>
</svg>
