<svg xmlns="http://www.w3.org/2000/svg" width="48" height="48" viewBox="0 0 48 48">
    <g data-name="그룹 22277" transform="translate(6.86 6.396)">
        <path data-name="빼기 356" d="M27 36H7a5.005 5.005 0 0 1-5-5V5a5.006 5.006 0 0 1 5-5h13c.144 0 .291 0 .437.008a2.668 2.668 0 0 1 1.412.631l9.431 9.4.011.012a2.825 2.825 0 0 1 .542.751 2.015 2.015 0 0 1 .153.594c.005.1.009.2.011.305V31A5.005 5.005 0 0 1 27 36z" transform="translate(.14 -.395)" style="fill:#bbd2f2"/>
        <path data-name="다각형 98" d="M4.714 2.144a1.5 1.5 0 0 1 2.572 0l3.351 5.585A1.5 1.5 0 0 1 9.351 10h-6.7a1.5 1.5 0 0 1-1.288-2.272z" transform="translate(6.639 16.602)" style="fill:#7591b2"/>
        <path data-name="다각형 99" d="M6.752 1.872a1.5 1.5 0 0 1 2.5 0l5.2 7.8A1.5 1.5 0 0 1 13.2 12H2.8a1.5 1.5 0 0 1-1.245-2.332z" transform="translate(11.639 14.602)" style="fill:#7591b2"/>
        <circle data-name="타원 2678" cx="2" cy="2" r="2" transform="translate(7.639 8.604)" style="fill:#7591b2"/>
    </g>
</svg>
