<svg xmlns="http://www.w3.org/2000/svg" width="48" height="48" viewBox="0 0 48 48">
    <g data-name="그룹 22277">
        <path data-name="빼기 356" d="M27 36H7a5.005 5.005 0 0 1-5-5V5a5.006 5.006 0 0 1 5-5h13c.144 0 .291 0 .437.008a2.668 2.668 0 0 1 1.412.631l9.431 9.4.011.012a2.825 2.825 0 0 1 .542.751 2.015 2.015 0 0 1 .153.594c.005.1.009.2.011.305V31A5.005 5.005 0 0 1 27 36z" transform="translate(7 6.001)" style="fill:#bbd2f2"/>
        <path data-name="패스 17462" d="M-14.082 25.9c.693-1.135 3.014-7.267 3.014-7.267s1.41-2.9.5-4.748-2.479.823-2.083 3.164a12.4 12.4 0 0 0 5.1 7.308c2.521 1.534 6.179.61 5.466-.978s-8.868.548-8.868.548-3.994 1.08-5.919 2.631-1.077 3.4.321 2.45a7.986 7.986 0 0 0 2.469-3.108z" transform="translate(33.999 2.732)" style="fill:none;stroke:#7591b2;stroke-width:2px"/>
    </g>
</svg>
