<svg xmlns="http://www.w3.org/2000/svg" width="132" height="25" viewBox="0 0 132 25">
    <defs>
        <clipPath id="svk230yeva">
            <path data-name="사각형 21791" style="fill:none" d="M0 0h131.646v25H0z"/>
        </clipPath>
    </defs>
    <g data-name="그룹 6436">
        <path data-name="패스 16545" d="M58.647 21.745h-3.07l-2.9-4.2-2.966 4.2h-2.856l4.379-6.07-4.361-6.141h3.07l2.857 4.135 2.931-4.135H58.6l-4.344 6.018z" transform="translate(-13.886 -2.826)" style="fill:#070707"/>
        <g data-name="그룹 6435">
            <g data-name="그룹 6434" style="clip-path:url(#svk230yeva)">
                <path data-name="패스 16546" d="M67.085 15.522a6.291 6.291 0 0 1 6.523-6.384 6.05 6.05 0 0 1 5.007 2.162l-1.884 1.535a4.107 4.107 0 0 0-3.123-1.361 3.928 3.928 0 0 0-3.978 4.047 3.927 3.927 0 0 0 3.978 4.047 4.106 4.106 0 0 0 3.123-1.36l1.9 1.5a6.013 6.013 0 0 1-5.024 2.2 6.291 6.291 0 0 1-6.523-6.384" transform="translate(-19.882 -2.708)" style="fill:#070707"/>
                <path data-name="패스 16547" d="M92.472 13.366h1.779V22.8h-2.162v-1.253a3.835 3.835 0 0 1-3.07 1.43 4.791 4.791 0 0 1-4.78-4.937 4.78 4.78 0 0 1 4.78-4.937 3.8 3.8 0 0 1 2.791 1.117zm-.558 4.675a2.655 2.655 0 1 0-5.3 0 2.655 2.655 0 1 0 5.3 0" transform="translate(-24.966 -3.884)" style="fill:#070707"/>
                <path data-name="패스 16548" d="M101.121 21.363V8.961l2.337-.716v13.118z" transform="translate(-29.969 -2.444)" style="fill:#070707"/>
                <path data-name="패스 16549" d="M106.748 9.687a1.471 1.471 0 0 1 2.931 0 1.471 1.471 0 0 1-2.931 0m.3 2.617h2.337v9.088h-2.337z" transform="translate(-31.637 -2.473)" style="fill:#070707"/>
                <path data-name="패스 16550" d="M123.232 16.6a4.791 4.791 0 0 1-4.78 4.937 3.837 3.837 0 0 1-3.071-1.43v1.256h-2.162V8.96l2.337-.715v4.64a3.8 3.8 0 0 1 2.9-1.221 4.78 4.78 0 0 1 4.78 4.937m-2.373 0a2.655 2.655 0 1 0-5.3 0 2.655 2.655 0 1 0 5.3 0" transform="translate(-33.555 -2.444)" style="fill:#070707"/>
                <path data-name="패스 16551" d="M138.311 18.9h-7.048a2.613 2.613 0 0 0 2.756 2.041 3.95 3.95 0 0 0 2.774-1.012l1.238 1.448a5.841 5.841 0 0 1-4.064 1.6 4.848 4.848 0 0 1-5.181-4.936 4.76 4.76 0 0 1 4.832-4.937c2.86 0 4.693 1.971 4.693 5.024zm-7.03-1.954h4.535a2.131 2.131 0 0 0-2.2-1.8 2.24 2.24 0 0 0-2.337 1.8" transform="translate(-38.169 -3.884)" style="fill:#070707"/>
                <path data-name="패스 16552" d="M146.912 14.5a4.181 4.181 0 0 1 2.843-1.151v2.3c-1.343 0-3.088.471-3.088 2.477v4.745h-2.337v-9.432h1.779z" transform="translate(-42.775 -3.957)" style="fill:#070707"/>
                <path data-name="패스 16553" d="m19.251 12.5 5-7.31A3.316 3.316 0 0 0 21.518 0h-5.626a3.315 3.315 0 0 0-2.736 1.443l-.738 1.077-.737-1.077A3.315 3.315 0 0 0 8.944 0H3.318A3.316 3.316 0 0 0 .581 5.19l5 7.31-5 7.311A3.316 3.316 0 0 0 3.318 25h5.626a3.315 3.315 0 0 0 2.737-1.442l.737-1.077.737 1.077A3.314 3.314 0 0 0 15.892 25h5.626a3.316 3.316 0 0 0 2.736-5.189zM2.369 2.817a1 1 0 0 1 .9-.541h5.69a1.013 1.013 0 0 1 .837.441L11.357 5l-4.074 5.951L2.43 3.862a1 1 0 0 1-.061-1.045m.061 18.321 4.853-7.089L11.357 20 9.8 22.284a1.014 1.014 0 0 1-.837.441H3.266a1.014 1.014 0 0 1-.836-1.587M8.343 12.5l4.075-5.952 4.075 5.952-4.075 5.952zM13.479 5l1.563-2.283a1.011 1.011 0 0 1 .836-.441h5.692a1.014 1.014 0 0 1 .837 1.586l-4.854 7.089zm4.075 9.05 4.854 7.089a1.014 1.014 0 0 1-.837 1.587h-5.694a1.013 1.013 0 0 1-.836-.441L13.479 20z" style="fill:#483cee"/>
                <path data-name="패스 16554" d="M157.893 9.942v-7.51h5.353v1.137h-4.087v1.985h3.786v1.137h-3.786V8.8h4.162v1.142z" transform="translate(-46.795 -.721)" style="fill:#483cee"/>
                <path data-name="패스 16555" d="M172.22 2.432h1.308l-2.971 7.509h-1.223l-2.96-7.509h1.351l2.253 5.782z" transform="translate(-49.308 -.721)" style="fill:#483cee"/>
                <path data-name="패스 16556" d="M184.342 9.941h-1.47l-2.241-2.9h-1.577v2.9h-1.245V2.432h2.94c1.9 0 2.938.816 2.938 2.307a2.093 2.093 0 0 1-1.694 2.161zm-5.288-6.4v2.41h1.737c1.02 0 1.652-.473 1.652-1.212 0-.793-.547-1.2-1.652-1.2z" transform="translate(-52.697 -.721)" style="fill:#483cee"/>
            </g>
        </g>
    </g>
</svg>
