<svg xmlns="http://www.w3.org/2000/svg" width="50" height="50" viewBox="0 0 50 50">
    <g data-name="그룹 21418" transform="translate(-884.414 -544.928)">
        <path data-name="빼기 383" d="M21.672 19.787a28.4 28.4 0 0 1-5.228-.664 17.207 17.207 0 0 0-2.753-.4 10.275 10.275 0 0 0-2.122.277 38.858 38.858 0 0 1-5.91.753c-.266.017-.526.025-.771.025-2.052 0-3.408-.569-4.144-1.74A7.235 7.235 0 0 1 0 14.237c.033-2.647 1.57-6.205 3.917-9.066C5.5 3.24 8.811 0 13.172 0h.867a10.22 10.22 0 0 1 4.989 1.333 14.336 14.336 0 0 1 4.029 3.408 18.723 18.723 0 0 1 4.162 9.5 4.933 4.933 0 0 1-.742 3.909 5.256 5.256 0 0 1-3.892 1.607c-.291.019-.598.03-.913.03zM9.278 8.269a1 1 0 0 0-1 1v1.252a1 1 0 0 0 1 1h2.779v2.794a1 1 0 0 0 1 1H14.3a1 1 0 0 0 1-1v-2.794h2.779a1 1 0 0 0 1-1V9.269a1 1 0 0 0-1-1H15.3V5.475a1 1 0 0 0-1-1h-1.24a1 1 0 0 0-1 1v2.794z" transform="translate(895.636 565.445)" style="fill:#fff"/>
        <ellipse data-name="타원 2415" cx="4.334" cy="5.894" rx="4.334" ry="5.894" transform="translate(910.6 552.232)" style="fill:#fff"/>
        <ellipse data-name="타원 2416" cx="3.769" cy="4.76" rx="3.769" ry="4.76" transform="rotate(23 -914.486 2542.418)" style="fill:#fff"/>
        <ellipse data-name="타원 2806" cx="4.334" cy="5.894" rx="4.334" ry="5.894" transform="translate(899.358 552.232)" style="fill:#fff"/>
        <ellipse data-name="타원 2807" cx="3.769" cy="4.76" rx="3.769" ry="4.76" transform="scale(-1) rotate(-23 -1848.983 1927.924)" style="fill:#fff"/>
    </g>
</svg>
