<svg xmlns="http://www.w3.org/2000/svg" width="282" height="54" viewBox="0 0 282 54">
    <defs>
        <clipPath id="c72nk1bera">
            <path data-name="사각형 21791" style="fill:none" d="M0 0h280.768v53.319H0z"/>
        </clipPath>
    </defs>
    <g data-name="그룹 6436">
        <path data-name="패스 16545" d="M72 35.577h-6.543l-6.175-8.967-6.325 8.967h-6.1l9.337-12.947-9.3-13.1h6.546l6.1 8.818 6.25-8.818h6.1l-9.26 12.839z" transform="translate(23.459 4.9)" style="fill:#070707"/>
        <g data-name="그룹 6435">
            <g data-name="그룹 6434" style="clip-path:url(#c72nk1bera)" transform="translate(0 .127)">
                <path data-name="패스 16546" d="M67.085 22.754c0-7.812 5.95-13.616 13.913-13.616 4.726 0 8.335 1.636 10.677 4.613l-4.017 3.273a8.759 8.759 0 0 0-6.66-2.9 8.377 8.377 0 0 0-8.483 8.632A8.376 8.376 0 0 0 81 31.384a8.758 8.758 0 0 0 6.66-2.9l4.055 3.2C89.407 34.7 85.761 36.369 81 36.369c-7.963 0-13.913-5.8-13.913-13.616" transform="translate(33.587 4.575)" style="fill:#070707"/>
                <path data-name="패스 16547" d="M101.8 13.662h3.8v20.127h-4.62v-2.678a8.18 8.18 0 0 1-6.547 3.051 10.218 10.218 0 0 1-10.194-10.529A10.2 10.2 0 0 1 94.433 13.1a8.093 8.093 0 0 1 5.952 2.382zm-1.19 9.97a5.663 5.663 0 1 0-11.311 0 5.663 5.663 0 1 0 11.311 0" transform="translate(42.176 6.561)" style="fill:#070707"/>
                <path data-name="패스 16548" d="M101.121 36.222V9.771l4.985-1.526v27.977z" transform="translate(50.628 4.128)" style="fill:#070707"/>
                <path data-name="패스 16549" d="M106.748 11.209a3.137 3.137 0 0 1 6.25 0 3.137 3.137 0 0 1-6.25 0m.633 5.581h4.985v19.382h-4.985z" transform="translate(53.446 4.178)" style="fill:#070707"/>
                <path data-name="패스 16550" d="M134.574 26.065a10.218 10.218 0 0 1-10.194 10.529 8.183 8.183 0 0 1-6.549-3.051v2.679h-4.612V9.77l4.981-1.525v9.9a8.1 8.1 0 0 1 6.175-2.6 10.2 10.2 0 0 1 10.194 10.529m-5.06 0a5.662 5.662 0 1 0-11.309 0 5.662 5.662 0 1 0 11.309 0" transform="translate(56.685 4.128)" style="fill:#070707"/>
                <path data-name="패스 16551" d="M149.1 25.456h-15.031c.633 2.715 2.79 4.352 5.878 4.352a8.425 8.425 0 0 0 5.916-2.158l2.641 3.088a12.458 12.458 0 0 1-8.668 3.422c-6.511 0-11.049-4.352-11.049-10.527A10.152 10.152 0 0 1 139.092 13.1c6.1 0 10.008 4.2 10.008 10.715zm-14.993-4.167h9.672a4.545 4.545 0 0 0-4.687-3.833 4.777 4.777 0 0 0-4.985 3.833" transform="translate(64.48 6.561)" style="fill:#070707"/>
                <path data-name="패스 16552" d="M149.836 15.807a8.916 8.916 0 0 1 6.064-2.455v4.91c-2.865 0-6.585 1.005-6.585 5.284v10.119h-4.985V13.538h3.8z" transform="translate(72.262 6.685)" style="fill:#070707"/>
                <path data-name="패스 16553" d="m41.057 26.659 10.673-15.59A7.073 7.073 0 0 0 45.894 0h-12a7.07 7.07 0 0 0-5.836 3.078l-1.573 2.3-1.573-2.3A7.071 7.071 0 0 0 19.075 0h-12A7.073 7.073 0 0 0 1.24 11.069l10.673 15.59L1.24 42.251a7.072 7.072 0 0 0 5.836 11.068h12a7.069 7.069 0 0 0 5.838-3.076l1.573-2.3 1.573 2.3a7.069 7.069 0 0 0 5.836 3.076h12a7.072 7.072 0 0 0 5.834-11.068zm-36-20.652a2.127 2.127 0 0 1 1.908-1.154h12.142a2.16 2.16 0 0 1 1.784.941l3.331 4.868-8.69 12.694-10.35-15.12a2.125 2.125 0 0 1-.129-2.228m.129 39.076 10.35-15.119 8.69 12.694-3.331 4.868a2.164 2.164 0 0 1-1.784.941H6.965a2.162 2.162 0 0 1-1.783-3.384m12.612-18.425 8.692-12.694 8.69 12.694-8.69 12.694zm10.953-16 3.333-4.865a2.157 2.157 0 0 1 1.783-.941H46a2.162 2.162 0 0 1 1.784 3.383L37.437 23.355zm8.69 19.3 10.352 15.124A2.163 2.163 0 0 1 46 48.467H33.863a2.161 2.161 0 0 1-1.783-.941l-3.333-4.868z" style="fill:#483cee"/>
                <path data-name="패스 16554" d="M157.893 18.448V2.432h11.416v2.425h-8.716v4.232h8.075v2.427h-8.075v4.507h8.876v2.425z" transform="translate(79.052 1.218)" style="fill:#483cee"/>
                <path data-name="패스 16555" d="M178.842 2.432h2.79l-6.337 16.015h-2.608l-6.314-16.015h2.881l4.805 12.331z" transform="translate(83.298 1.218)" style="fill:#483cee"/>
                <path data-name="패스 16556" d="M191.743 18.447h-3.135l-4.78-6.177h-3.363v6.177h-2.656V2.432h6.271c4.049 0 6.265 1.739 6.265 4.919a4.464 4.464 0 0 1-3.614 4.6zM180.465 4.788v5.149h3.705c2.174 0 3.524-1.008 3.524-2.586 0-1.691-1.168-2.563-3.524-2.563z" transform="translate(89.024 1.218)" style="fill:#483cee"/>
            </g>
        </g>
    </g>
</svg>
